<svg xmlns="http://www.w3.org/2000/svg" viewBox="0 0 500 500" width="500" height="500">
  <rect width="500" height="500" fill="#080f1a"/>
  <circle cx="208" cy="57" r="0.4" fill="white" opacity="0.27"/>
  <circle cx="424" cy="101" r="0.6" fill="white" opacity="0.54"/>
  <circle cx="222" cy="185" r="0.3" fill="white" opacity="0.41"/>
  <circle cx="378" cy="105" r="0.3" fill="white" opacity="0.30"/>
  <circle cx="418" cy="317" r="0.9" fill="white" opacity="0.24"/>
  <circle cx="324" cy="321" r="0.3" fill="white" opacity="0.37"/>
  <circle cx="292" cy="189" r="0.8" fill="white" opacity="0.38"/>
  <circle cx="124" cy="229" r="0.8" fill="white" opacity="0.13"/>
  <circle cx="320" cy="45" r="0.6" fill="white" opacity="0.21"/>
  <circle cx="130" cy="157" r="0.8" fill="white" opacity="0.34"/>
  <circle cx="240" cy="129" r="0.4" fill="white" opacity="0.35"/>
  <circle cx="204" cy="181" r="0.4" fill="white" opacity="0.55"/>
  <circle cx="404" cy="5" r="0.3" fill="white" opacity="0.18"/>
  <circle cx="332" cy="205" r="0.4" fill="white" opacity="0.31"/>
  <circle cx="184" cy="173" r="0.9" fill="white" opacity="0.32"/>
  <circle cx="252" cy="217" r="0.9" fill="white" opacity="0.52"/>
  <circle cx="56" cy="113" r="0.8" fill="white" opacity="0.46"/>
  <circle cx="440" cy="209" r="0.9" fill="white" opacity="0.28"/>
  <circle cx="372" cy="153" r="0.6" fill="white" opacity="0.29"/>
  <circle cx="144" cy="337" r="0.6" fill="white" opacity="0.49"/>
  <circle cx="14" cy="113" r="0.4" fill="white" opacity="0.43"/>
  <circle cx="454" cy="253" r="0.6" fill="white" opacity="0.25"/>
  <circle cx="314" cy="237" r="0.3" fill="white" opacity="0.26"/>
  <circle cx="494" cy="201" r="0.6" fill="white" opacity="0.46"/>
  <circle cx="30" cy="5" r="0.9" fill="white" opacity="0.40"/>
  <circle cx="374" cy="169" r="0.3" fill="white" opacity="0.22"/>
  <circle cx="252" cy="341" r="0.8" fill="white" opacity="0.54"/>
  <circle cx="322" cy="233" r="0.3" fill="white" opacity="0.29"/>
  <circle cx="352" cy="45" r="0.6" fill="white" opacity="0.37"/>
  <circle cx="324" cy="41" r="0.8" fill="white" opacity="0.50"/>
  <circle cx="68" cy="125" r="0.4" fill="white" opacity="0.51"/>
  <circle cx="118" cy="9" r="0.8" fill="white" opacity="0.26"/>
  <circle cx="242" cy="317" r="0.3" fill="white" opacity="0.34"/>
  <circle cx="56" cy="125" r="0.4" fill="white" opacity="0.47"/>
  <circle cx="370" cy="185" r="0.9" fill="white" opacity="0.48"/>
  <circle cx="248" cy="293" r="0.4" fill="white" opacity="0.23"/>
  <circle cx="314" cy="57" r="0.8" fill="white" opacity="0.17"/>
  <circle cx="308" cy="249" r="0.9" fill="white" opacity="0.44"/>
  <circle cx="426" cy="9" r="0.6" fill="white" opacity="0.45"/>
  <circle cx="346" cy="237" r="0.9" fill="white" opacity="0.20"/>
  <circle cx="78" cy="29" r="0.4" fill="white" opacity="0.14"/>
  <circle cx="466" cy="245" r="0.6" fill="white" opacity="0.41"/>
  <circle cx="236" cy="277" r="0.3" fill="white" opacity="0.42"/>
  <circle cx="288" cy="93" r="0.6" fill="white" opacity="0.17"/>
  <circle cx="24" cy="233" r="0.4" fill="white" opacity="0.56"/>
  <circle cx="40" cy="197" r="0.3" fill="white" opacity="0.38"/>
  <circle cx="42" cy="141" r="0.3" fill="white" opacity="0.25"/>
  <circle cx="198" cy="289" r="0.3" fill="white" opacity="0.14"/>
  <circle cx="152" cy="245" r="0.9" fill="white" opacity="0.53"/>
  <circle cx="10" cy="105" r="0.8" fill="white" opacity="0.21"/>
  <circle cx="92" cy="25" r="0.8" fill="white" opacity="0.22"/>
  <circle cx="76" cy="313" r="0.8" fill="white" opacity="0.42"/>
  <circle cx="462" cy="65" r="0.6" fill="white" opacity="0.50"/>
  <circle cx="10" cy="309" r="0.8" fill="white" opacity="0.18"/>
  <circle cx="386" cy="269" r="0.4" fill="white" opacity="0.19"/>
  <circle cx="288" cy="81" r="0.4" fill="white" opacity="0.39"/>
  <circle cx="340" cy="117" r="0.3" fill="white" opacity="0.33"/>
  <circle cx="282" cy="129" r="0.4" fill="white" opacity="0.15"/>
  <circle cx="310" cy="277" r="0.9" fill="white" opacity="0.16"/>
  <circle cx="468" cy="273" r="0.9" fill="white" opacity="0.36"/>
  <circle cx="34" cy="61" r="0.8" fill="white" opacity="0.30"/>
  <circle cx="94" cy="161" r="0.9" fill="white" opacity="0.12"/>
  <circle cx="354" cy="221" r="0.6" fill="white" opacity="0.13"/>
  <circle cx="492" cy="293" r="0.6" fill="white" opacity="0.33"/>
  <circle cx="276" cy="237" r="0.4" fill="white" opacity="0.27"/>
  <circle cx="302" cy="233" r="0.6" fill="white" opacity="0.54"/>
  <circle cx="152" cy="269" r="0.3" fill="white" opacity="0.41"/>
  <circle cx="118" cy="57" r="0.3" fill="white" opacity="0.30"/>
  <circle cx="334" cy="221" r="0.9" fill="white" opacity="0.24"/>
  <circle cx="292" cy="177" r="0.3" fill="white" opacity="0.37"/>
  <circle cx="70" cy="253" r="0.8" fill="white" opacity="0.38"/>
  <circle cx="444" cy="329" r="0.8" fill="white" opacity="0.13"/>
  <circle cx="450" cy="13" r="0.6" fill="white" opacity="0.21"/>
  <circle cx="312" cy="77" r="0.8" fill="white" opacity="0.34"/>
  <circle cx="232" cy="341" r="0.4" fill="white" opacity="0.35"/>
  <circle cx="372" cy="261" r="0.4" fill="white" opacity="0.55"/>
  <circle cx="258" cy="37" r="0.3" fill="white" opacity="0.18"/>
  <circle cx="362" cy="189" r="0.4" fill="white" opacity="0.31"/>
  <circle cx="390" cy="109" r="0.9" fill="white" opacity="0.32"/>
  <circle cx="144" cy="21" r="0.9" fill="white" opacity="0.52"/>
  <circle cx="248" cy="293" r="0.8" fill="white" opacity="0.46"/>
  <circle cx="194" cy="341" r="0.9" fill="white" opacity="0.28"/>
  <circle cx="426" cy="237" r="0.6" fill="white" opacity="0.29"/>
  <circle cx="374" cy="289" r="0.6" fill="white" opacity="0.49"/>
  <circle cx="420" cy="17" r="0.4" fill="white" opacity="0.43"/>
  <circle cx="422" cy="25" r="0.6" fill="white" opacity="0.25"/>
  <circle cx="458" cy="45" r="0.3" fill="white" opacity="0.26"/>
  <circle cx="448" cy="301" r="0.6" fill="white" opacity="0.46"/>
  <circle cx="160" cy="313" r="0.9" fill="white" opacity="0.40"/>
  <circle cx="190" cy="89" r="0.3" fill="white" opacity="0.22"/>
  <circle cx="244" cy="213" r="0.8" fill="white" opacity="0.54"/>
  <circle cx="490" cy="57" r="0.3" fill="white" opacity="0.29"/>
  <circle cx="206" cy="77" r="0.6" fill="white" opacity="0.37"/>
  <circle cx="354" cy="25" r="0.8" fill="white" opacity="0.50"/>
  <circle cx="274" cy="61" r="0.4" fill="white" opacity="0.51"/>
  <circle cx="10" cy="237" r="0.8" fill="white" opacity="0.26"/>
  <circle cx="310" cy="73" r="0.3" fill="white" opacity="0.34"/>
  <circle cx="424" cy="257" r="0.4" fill="white" opacity="0.47"/>
  <circle cx="424" cy="269" r="0.9" fill="white" opacity="0.48"/>
  <circle cx="354" cy="245" r="0.4" fill="white" opacity="0.23"/>
  <line x1="72.2" y1="245.3" x2="169.2" y2="207.8" stroke="#70B8E8" stroke-width="1.2" opacity="0.55" stroke-linecap="round"/><line x1="169.2" y1="207.8" x2="240.9" y2="163.2" stroke="#70B8E8" stroke-width="1.2" opacity="0.55" stroke-linecap="round"/><line x1="240.9" y1="163.2" x2="274.2" y2="148.9" stroke="#70B8E8" stroke-width="1.2" opacity="0.55" stroke-linecap="round"/><line x1="274.2" y1="148.9" x2="289.3" y2="160.7" stroke="#70B8E8" stroke-width="1.2" opacity="0.55" stroke-linecap="round"/><line x1="289.3" y1="160.7" x2="303.0" y2="161.5" stroke="#70B8E8" stroke-width="1.2" opacity="0.55" stroke-linecap="round"/><line x1="289.3" y1="160.7" x2="302.5" y2="226.0" stroke="#70B8E8" stroke-width="1.2" opacity="0.55" stroke-linecap="round"/><line x1="302.5" y1="226.0" x2="342.2" y2="296.3" stroke="#70B8E8" stroke-width="1.2" opacity="0.55" stroke-linecap="round"/><line x1="240.9" y1="163.2" x2="303.0" y2="161.5" stroke="#70B8E8" stroke-width="1.2" opacity="0.55" stroke-linecap="round"/>
  <circle cx="169.2" cy="207.8" r="9.8" fill="#70B8E8" opacity="0.08"/><circle cx="169.2" cy="207.8" r="5.8" fill="#70B8E8" opacity="0.18"/><circle cx="169.2" cy="207.8" r="4.4" fill="white" opacity="0.95"/><circle cx="169.2" cy="207.8" r="1.8" fill="#70B8E8" opacity="0.9"/><circle cx="240.9" cy="163.2" r="9.5" fill="#70B8E8" opacity="0.08"/><circle cx="240.9" cy="163.2" r="5.6" fill="#70B8E8" opacity="0.18"/><circle cx="240.9" cy="163.2" r="4.3" fill="white" opacity="0.95"/><circle cx="240.9" cy="163.2" r="1.7" fill="#70B8E8" opacity="0.9"/><circle cx="342.2" cy="296.3" r="8.5" fill="#70B8E8" opacity="0.08"/><circle cx="342.2" cy="296.3" r="5.0" fill="#70B8E8" opacity="0.18"/><circle cx="342.2" cy="296.3" r="3.8" fill="white" opacity="0.95"/><circle cx="342.2" cy="296.3" r="1.5" fill="#70B8E8" opacity="0.9"/><circle cx="274.2" cy="148.9" r="6.6" fill="#70B8E8" opacity="0.08"/><circle cx="274.2" cy="148.9" r="3.9" fill="#70B8E8" opacity="0.18"/><circle cx="274.2" cy="148.9" r="3.0" fill="white" opacity="0.95"/><circle cx="274.2" cy="148.9" r="1.2" fill="#70B8E8" opacity="0.9"/><circle cx="72.2" cy="245.3" r="6.8" fill="#70B8E8" opacity="0.08"/><circle cx="72.2" cy="245.3" r="4.0" fill="#70B8E8" opacity="0.18"/><circle cx="72.2" cy="245.3" r="3.1" fill="white" opacity="0.95"/><circle cx="72.2" cy="245.3" r="1.2" fill="#70B8E8" opacity="0.9"/><circle cx="302.5" cy="226.0" r="5.5" fill="#70B8E8" opacity="0.08"/><circle cx="302.5" cy="226.0" r="3.2" fill="#70B8E8" opacity="0.18"/><circle cx="302.5" cy="226.0" r="2.5" fill="white" opacity="0.95"/><circle cx="302.5" cy="226.0" r="1.0" fill="#70B8E8" opacity="0.9"/><circle cx="303.0" cy="161.5" r="6.0" fill="#70B8E8" opacity="0.08"/><circle cx="303.0" cy="161.5" r="3.5" fill="#70B8E8" opacity="0.18"/><circle cx="303.0" cy="161.5" r="2.7" fill="white" opacity="0.95"/><circle cx="303.0" cy="161.5" r="1.1" fill="#70B8E8" opacity="0.9"/><circle cx="289.3" cy="160.7" r="7.2" fill="#70B8E8" opacity="0.08"/><circle cx="289.3" cy="160.7" r="4.3" fill="#70B8E8" opacity="0.18"/><circle cx="289.3" cy="160.7" r="3.3" fill="white" opacity="0.95"/><circle cx="289.3" cy="160.7" r="1.3" fill="#70B8E8" opacity="0.9"/>
  <text x="250" y="438" text-anchor="middle" font-family="Georgia,serif" font-size="24" fill="#70B8E8" opacity="0.95" letter-spacing="4">AQUARIUS</text>
  <text x="250" y="462" text-anchor="middle" font-family="Georgia,serif" font-size="12" fill="#aaaaaa" letter-spacing="2">20 Gen – 18 Feb</text>
  <text x="250" y="488" text-anchor="middle" font-family="Georgia,serif" font-size="18" fill="#70B8E8" opacity="0.65">♒</text>
</svg>