<svg xmlns="http://www.w3.org/2000/svg" viewBox="0 0 500 500" width="500" height="500">
  <rect width="500" height="500" fill="#080f1a"/>
  <circle cx="264" cy="19" r="0.6" fill="white" opacity="0.45"/>
  <circle cx="460" cy="335" r="0.8" fill="white" opacity="0.14"/>
  <circle cx="210" cy="299" r="0.8" fill="white" opacity="0.47"/>
  <circle cx="338" cy="335" r="0.3" fill="white" opacity="0.54"/>
  <circle cx="46" cy="251" r="0.9" fill="white" opacity="0.35"/>
  <circle cx="96" cy="343" r="0.6" fill="white" opacity="0.49"/>
  <circle cx="366" cy="35" r="0.6" fill="white" opacity="0.37"/>
  <circle cx="210" cy="263" r="0.9" fill="white" opacity="0.44"/>
  <circle cx="300" cy="67" r="0.8" fill="white" opacity="0.39"/>
  <circle cx="52" cy="339" r="0.9" fill="white" opacity="0.39"/>
  <circle cx="76" cy="79" r="0.9" fill="white" opacity="0.27"/>
  <circle cx="464" cy="51" r="0.4" fill="white" opacity="0.48"/>
  <circle cx="170" cy="147" r="0.3" fill="white" opacity="0.29"/>
  <circle cx="328" cy="323" r="0.8" fill="white" opacity="0.43"/>
  <circle cx="320" cy="175" r="0.8" fill="white" opacity="0.31"/>
  <circle cx="486" cy="295" r="0.3" fill="white" opacity="0.38"/>
  <circle cx="146" cy="151" r="0.9" fill="white" opacity="0.19"/>
  <circle cx="310" cy="295" r="0.3" fill="white" opacity="0.33"/>
  <circle cx="242" cy="67" r="0.3" fill="white" opacity="0.21"/>
  <circle cx="276" cy="59" r="0.6" fill="white" opacity="0.28"/>
  <circle cx="104" cy="335" r="0.4" fill="white" opacity="0.23"/>
  <circle cx="122" cy="171" r="0.9" fill="white" opacity="0.23"/>
  <circle cx="84" cy="11" r="0.9" fill="white" opacity="0.56"/>
  <circle cx="324" cy="279" r="0.4" fill="white" opacity="0.32"/>
  <circle cx="44" cy="103" r="0.3" fill="white" opacity="0.13"/>
  <circle cx="254" cy="119" r="0.8" fill="white" opacity="0.27"/>
  <circle cx="460" cy="7" r="0.4" fill="white" opacity="0.15"/>
  <circle cx="264" cy="275" r="0.8" fill="white" opacity="0.22"/>
  <circle cx="90" cy="51" r="0.9" fill="white" opacity="0.48"/>
  <circle cx="92" cy="55" r="0.3" fill="white" opacity="0.17"/>
  <circle cx="390" cy="139" r="0.3" fill="white" opacity="0.50"/>
  <circle cx="338" cy="131" r="0.6" fill="white" opacity="0.12"/>
  <circle cx="242" cy="7" r="0.4" fill="white" opacity="0.52"/>
  <circle cx="374" cy="235" r="0.9" fill="white" opacity="0.52"/>
  <circle cx="488" cy="239" r="0.6" fill="white" opacity="0.40"/>
  <circle cx="428" cy="187" r="0.9" fill="white" opacity="0.16"/>
  <circle cx="376" cy="143" r="0.3" fill="white" opacity="0.42"/>
  <circle cx="362" cy="147" r="0.4" fill="white" opacity="0.56"/>
  <circle cx="16" cy="135" r="0.4" fill="white" opacity="0.44"/>
  <circle cx="162" cy="19" r="0.8" fill="white" opacity="0.51"/>
  <circle cx="126" cy="203" r="0.6" fill="white" opacity="0.32"/>
  <circle cx="180" cy="303" r="0.3" fill="white" opacity="0.46"/>
  <circle cx="78" cy="83" r="0.3" fill="white" opacity="0.34"/>
  <circle cx="278" cy="307" r="0.6" fill="white" opacity="0.41"/>
  <circle cx="348" cy="103" r="0.4" fill="white" opacity="0.36"/>
  <circle cx="318" cy="191" r="0.6" fill="white" opacity="0.36"/>
  <circle cx="184" cy="83" r="0.6" fill="white" opacity="0.24"/>
  <circle cx="162" cy="115" r="0.9" fill="white" opacity="0.31"/>
  <circle cx="186" cy="267" r="0.8" fill="white" opacity="0.26"/>
  <circle cx="162" cy="323" r="0.4" fill="white" opacity="0.40"/>
  <circle cx="458" cy="219" r="0.4" fill="white" opacity="0.28"/>
  <circle cx="304" cy="39" r="0.8" fill="white" opacity="0.35"/>
  <circle cx="6" cy="15" r="0.6" fill="white" opacity="0.16"/>
  <circle cx="326" cy="103" r="0.3" fill="white" opacity="0.30"/>
  <circle cx="162" cy="323" r="0.8" fill="white" opacity="0.18"/>
  <circle cx="214" cy="163" r="0.3" fill="white" opacity="0.25"/>
  <circle cx="298" cy="27" r="0.4" fill="white" opacity="0.20"/>
  <circle cx="320" cy="211" r="0.6" fill="white" opacity="0.20"/>
  <circle cx="400" cy="223" r="0.6" fill="white" opacity="0.53"/>
  <circle cx="16" cy="63" r="0.9" fill="white" opacity="0.15"/>
  <circle cx="330" cy="219" r="0.8" fill="white" opacity="0.55"/>
  <circle cx="144" cy="51" r="0.4" fill="white" opacity="0.24"/>
  <circle cx="316" cy="175" r="0.9" fill="white" opacity="0.12"/>
  <circle cx="76" cy="79" r="0.4" fill="white" opacity="0.19"/>
  <circle cx="220" cy="335" r="0.6" fill="white" opacity="0.45"/>
  <circle cx="288" cy="135" r="0.8" fill="white" opacity="0.14"/>
  <circle cx="152" cy="179" r="0.8" fill="white" opacity="0.47"/>
  <circle cx="394" cy="295" r="0.3" fill="white" opacity="0.54"/>
  <circle cx="340" cy="35" r="0.9" fill="white" opacity="0.35"/>
  <circle cx="138" cy="207" r="0.6" fill="white" opacity="0.49"/>
  <circle cx="32" cy="319" r="0.6" fill="white" opacity="0.37"/>
  <circle cx="114" cy="31" r="0.9" fill="white" opacity="0.44"/>
  <circle cx="318" cy="255" r="0.8" fill="white" opacity="0.39"/>
  <circle cx="308" cy="267" r="0.9" fill="white" opacity="0.39"/>
  <circle cx="80" cy="87" r="0.9" fill="white" opacity="0.27"/>
  <circle cx="92" cy="223" r="0.4" fill="white" opacity="0.48"/>
  <circle cx="36" cy="59" r="0.3" fill="white" opacity="0.29"/>
  <circle cx="308" cy="315" r="0.8" fill="white" opacity="0.43"/>
  <circle cx="48" cy="331" r="0.8" fill="white" opacity="0.31"/>
  <circle cx="328" cy="191" r="0.3" fill="white" opacity="0.38"/>
  <circle cx="226" cy="127" r="0.9" fill="white" opacity="0.19"/>
  <circle cx="14" cy="11" r="0.3" fill="white" opacity="0.33"/>
  <circle cx="184" cy="287" r="0.3" fill="white" opacity="0.21"/>
  <circle cx="332" cy="19" r="0.6" fill="white" opacity="0.28"/>
  <circle cx="398" cy="35" r="0.4" fill="white" opacity="0.23"/>
  <circle cx="164" cy="35" r="0.9" fill="white" opacity="0.23"/>
  <circle cx="240" cy="295" r="0.9" fill="white" opacity="0.56"/>
  <circle cx="228" cy="303" r="0.4" fill="white" opacity="0.32"/>
  <circle cx="186" cy="291" r="0.3" fill="white" opacity="0.13"/>
  <circle cx="20" cy="47" r="0.8" fill="white" opacity="0.27"/>
  <circle cx="464" cy="99" r="0.4" fill="white" opacity="0.15"/>
  <circle cx="382" cy="107" r="0.8" fill="white" opacity="0.22"/>
  <circle cx="446" cy="303" r="0.9" fill="white" opacity="0.48"/>
  <circle cx="196" cy="47" r="0.3" fill="white" opacity="0.17"/>
  <circle cx="118" cy="211" r="0.3" fill="white" opacity="0.50"/>
  <circle cx="304" cy="27" r="0.6" fill="white" opacity="0.12"/>
  <circle cx="322" cy="323" r="0.4" fill="white" opacity="0.52"/>
  <circle cx="78" cy="35" r="0.9" fill="white" opacity="0.52"/>
  <circle cx="430" cy="119" r="0.6" fill="white" opacity="0.40"/>
  <circle cx="484" cy="147" r="0.9" fill="white" opacity="0.16"/>
  <line x1="196.4" y1="179.7" x2="152.6" y2="216.7" stroke="#E8C170" stroke-width="1.2" opacity="0.55" stroke-linecap="round"/><line x1="152.6" y1="216.7" x2="146.5" y2="238.6" stroke="#E8C170" stroke-width="1.2" opacity="0.55" stroke-linecap="round"/><line x1="196.4" y1="179.7" x2="336.4" y2="122.9" stroke="#E8C170" stroke-width="1.2" opacity="0.55" stroke-linecap="round"/><line x1="336.4" y1="122.9" x2="416.5" y2="228.6" stroke="#E8C170" stroke-width="1.2" opacity="0.55" stroke-linecap="round"/>
  <circle cx="196.4" cy="179.7" r="12.6" fill="#E8C170" opacity="0.08"/><circle cx="196.4" cy="179.7" r="7.5" fill="#E8C170" opacity="0.18"/><circle cx="196.4" cy="179.7" r="5.7" fill="white" opacity="0.95"/><circle cx="196.4" cy="179.7" r="2.3" fill="#E8C170" opacity="0.9"/><text x="207.1" y="175.7" font-family="Georgia,serif" font-size="9" fill="#E8C170" opacity="0.6">Hamal</text><circle cx="152.6" cy="216.7" r="10.5" fill="#E8C170" opacity="0.08"/><circle cx="152.6" cy="216.7" r="6.2" fill="#E8C170" opacity="0.18"/><circle cx="152.6" cy="216.7" r="4.8" fill="white" opacity="0.95"/><circle cx="152.6" cy="216.7" r="1.9" fill="#E8C170" opacity="0.9"/><circle cx="146.5" cy="238.6" r="6.5" fill="#E8C170" opacity="0.08"/><circle cx="146.5" cy="238.6" r="3.8" fill="#E8C170" opacity="0.18"/><circle cx="146.5" cy="238.6" r="3.0" fill="white" opacity="0.95"/><circle cx="146.5" cy="238.6" r="1.2" fill="#E8C170" opacity="0.9"/><circle cx="336.4" cy="122.9" r="7.3" fill="#E8C170" opacity="0.08"/><circle cx="336.4" cy="122.9" r="4.3" fill="#E8C170" opacity="0.18"/><circle cx="336.4" cy="122.9" r="3.3" fill="white" opacity="0.95"/><circle cx="336.4" cy="122.9" r="1.3" fill="#E8C170" opacity="0.9"/><circle cx="416.5" cy="228.6" r="5.5" fill="#E8C170" opacity="0.08"/><circle cx="416.5" cy="228.6" r="3.2" fill="#E8C170" opacity="0.18"/><circle cx="416.5" cy="228.6" r="2.5" fill="white" opacity="0.95"/><circle cx="416.5" cy="228.6" r="1.0" fill="#E8C170" opacity="0.9"/>
  <text x="250" y="438" text-anchor="middle" font-family="Georgia,serif" font-size="24" fill="#E8C170" opacity="0.95" letter-spacing="4">ARIES</text>
  <text x="250" y="462" text-anchor="middle" font-family="Georgia,serif" font-size="12" fill="#aaaaaa" letter-spacing="2">21 Mar – 19 Apr</text>
  <text x="250" y="488" text-anchor="middle" font-family="Georgia,serif" font-size="18" fill="#E8C170" opacity="0.65">♈</text>
</svg>