<svg xmlns="http://www.w3.org/2000/svg" viewBox="0 0 500 500" width="500" height="500">
  <rect width="500" height="500" fill="#080f1a"/>
  <circle cx="142" cy="107" r="0.6" fill="white" opacity="0.53"/>
  <circle cx="34" cy="139" r="0.9" fill="white" opacity="0.15"/>
  <circle cx="10" cy="231" r="0.8" fill="white" opacity="0.55"/>
  <circle cx="100" cy="339" r="0.4" fill="white" opacity="0.24"/>
  <circle cx="424" cy="59" r="0.9" fill="white" opacity="0.12"/>
  <circle cx="94" cy="239" r="0.4" fill="white" opacity="0.19"/>
  <circle cx="24" cy="7" r="0.6" fill="white" opacity="0.45"/>
  <circle cx="244" cy="83" r="0.8" fill="white" opacity="0.14"/>
  <circle cx="384" cy="63" r="0.8" fill="white" opacity="0.47"/>
  <circle cx="412" cy="115" r="0.3" fill="white" opacity="0.54"/>
  <circle cx="20" cy="47" r="0.9" fill="white" opacity="0.35"/>
  <circle cx="94" cy="155" r="0.6" fill="white" opacity="0.49"/>
  <circle cx="264" cy="119" r="0.6" fill="white" opacity="0.37"/>
  <circle cx="132" cy="107" r="0.9" fill="white" opacity="0.44"/>
  <circle cx="122" cy="267" r="0.8" fill="white" opacity="0.39"/>
  <circle cx="264" cy="215" r="0.9" fill="white" opacity="0.39"/>
  <circle cx="312" cy="311" r="0.9" fill="white" opacity="0.27"/>
  <circle cx="476" cy="299" r="0.4" fill="white" opacity="0.48"/>
  <circle cx="206" cy="71" r="0.3" fill="white" opacity="0.29"/>
  <circle cx="264" cy="263" r="0.8" fill="white" opacity="0.43"/>
  <circle cx="280" cy="215" r="0.8" fill="white" opacity="0.31"/>
  <circle cx="222" cy="267" r="0.3" fill="white" opacity="0.38"/>
  <circle cx="396" cy="139" r="0.9" fill="white" opacity="0.19"/>
  <circle cx="460" cy="299" r="0.3" fill="white" opacity="0.33"/>
  <circle cx="292" cy="171" r="0.3" fill="white" opacity="0.21"/>
  <circle cx="350" cy="95" r="0.6" fill="white" opacity="0.28"/>
  <circle cx="78" cy="47" r="0.4" fill="white" opacity="0.23"/>
  <circle cx="120" cy="323" r="0.9" fill="white" opacity="0.23"/>
  <circle cx="472" cy="179" r="0.9" fill="white" opacity="0.56"/>
  <circle cx="122" cy="123" r="0.4" fill="white" opacity="0.32"/>
  <circle cx="356" cy="303" r="0.3" fill="white" opacity="0.13"/>
  <circle cx="466" cy="335" r="0.8" fill="white" opacity="0.27"/>
  <circle cx="82" cy="239" r="0.4" fill="white" opacity="0.15"/>
  <circle cx="276" cy="183" r="0.8" fill="white" opacity="0.22"/>
  <circle cx="126" cy="59" r="0.9" fill="white" opacity="0.48"/>
  <circle cx="152" cy="335" r="0.3" fill="white" opacity="0.17"/>
  <circle cx="350" cy="95" r="0.3" fill="white" opacity="0.50"/>
  <circle cx="198" cy="187" r="0.6" fill="white" opacity="0.12"/>
  <circle cx="492" cy="335" r="0.4" fill="white" opacity="0.52"/>
  <circle cx="34" cy="239" r="0.9" fill="white" opacity="0.52"/>
  <circle cx="48" cy="343" r="0.6" fill="white" opacity="0.40"/>
  <circle cx="12" cy="223" r="0.9" fill="white" opacity="0.16"/>
  <circle cx="474" cy="195" r="0.3" fill="white" opacity="0.42"/>
  <circle cx="360" cy="215" r="0.4" fill="white" opacity="0.56"/>
  <circle cx="404" cy="303" r="0.4" fill="white" opacity="0.44"/>
  <circle cx="450" cy="119" r="0.8" fill="white" opacity="0.51"/>
  <circle cx="314" cy="319" r="0.6" fill="white" opacity="0.32"/>
  <circle cx="392" cy="179" r="0.3" fill="white" opacity="0.46"/>
  <circle cx="190" cy="315" r="0.3" fill="white" opacity="0.34"/>
  <circle cx="290" cy="215" r="0.6" fill="white" opacity="0.41"/>
  <circle cx="384" cy="27" r="0.4" fill="white" opacity="0.36"/>
  <circle cx="254" cy="131" r="0.6" fill="white" opacity="0.36"/>
  <circle cx="144" cy="39" r="0.6" fill="white" opacity="0.24"/>
  <circle cx="22" cy="87" r="0.9" fill="white" opacity="0.31"/>
  <circle cx="436" cy="339" r="0.8" fill="white" opacity="0.26"/>
  <circle cx="436" cy="327" r="0.4" fill="white" opacity="0.40"/>
  <circle cx="18" cy="239" r="0.4" fill="white" opacity="0.28"/>
  <circle cx="378" cy="75" r="0.8" fill="white" opacity="0.35"/>
  <circle cx="470" cy="151" r="0.6" fill="white" opacity="0.16"/>
  <circle cx="324" cy="255" r="0.3" fill="white" opacity="0.30"/>
  <circle cx="60" cy="151" r="0.8" fill="white" opacity="0.18"/>
  <circle cx="136" cy="263" r="0.3" fill="white" opacity="0.25"/>
  <circle cx="120" cy="143" r="0.4" fill="white" opacity="0.20"/>
  <circle cx="42" cy="87" r="0.6" fill="white" opacity="0.20"/>
  <circle cx="146" cy="115" r="0.6" fill="white" opacity="0.53"/>
  <circle cx="152" cy="311" r="0.9" fill="white" opacity="0.15"/>
  <circle cx="366" cy="143" r="0.8" fill="white" opacity="0.55"/>
  <circle cx="80" cy="331" r="0.4" fill="white" opacity="0.24"/>
  <circle cx="152" cy="131" r="0.9" fill="white" opacity="0.12"/>
  <circle cx="426" cy="51" r="0.4" fill="white" opacity="0.19"/>
  <circle cx="104" cy="323" r="0.6" fill="white" opacity="0.45"/>
  <circle cx="438" cy="139" r="0.8" fill="white" opacity="0.14"/>
  <circle cx="326" cy="283" r="0.8" fill="white" opacity="0.47"/>
  <circle cx="102" cy="75" r="0.3" fill="white" opacity="0.54"/>
  <circle cx="314" cy="87" r="0.9" fill="white" opacity="0.35"/>
  <circle cx="136" cy="19" r="0.6" fill="white" opacity="0.49"/>
  <circle cx="54" cy="63" r="0.6" fill="white" opacity="0.37"/>
  <circle cx="402" cy="215" r="0.9" fill="white" opacity="0.44"/>
  <circle cx="140" cy="115" r="0.8" fill="white" opacity="0.39"/>
  <circle cx="30" cy="143" r="0.9" fill="white" opacity="0.39"/>
  <circle cx="192" cy="319" r="0.9" fill="white" opacity="0.27"/>
  <circle cx="104" cy="131" r="0.4" fill="white" opacity="0.48"/>
  <circle cx="72" cy="323" r="0.3" fill="white" opacity="0.29"/>
  <circle cx="244" cy="255" r="0.8" fill="white" opacity="0.43"/>
  <circle cx="8" cy="287" r="0.8" fill="white" opacity="0.31"/>
  <circle cx="188" cy="163" r="0.3" fill="white" opacity="0.38"/>
  <circle cx="476" cy="115" r="0.9" fill="white" opacity="0.19"/>
  <circle cx="288" cy="99" r="0.3" fill="white" opacity="0.33"/>
  <circle cx="358" cy="51" r="0.3" fill="white" opacity="0.21"/>
  <circle cx="406" cy="55" r="0.6" fill="white" opacity="0.28"/>
  <circle cx="372" cy="171" r="0.4" fill="white" opacity="0.23"/>
  <circle cx="38" cy="187" r="0.9" fill="white" opacity="0.23"/>
  <circle cx="138" cy="123" r="0.9" fill="white" opacity="0.56"/>
  <circle cx="26" cy="147" r="0.4" fill="white" opacity="0.32"/>
  <circle cx="374" cy="67" r="0.3" fill="white" opacity="0.13"/>
  <circle cx="232" cy="263" r="0.8" fill="white" opacity="0.27"/>
  <circle cx="86" cy="331" r="0.4" fill="white" opacity="0.15"/>
  <circle cx="394" cy="15" r="0.8" fill="white" opacity="0.22"/>
  <circle cx="482" cy="227" r="0.9" fill="white" opacity="0.48"/>
  <circle cx="132" cy="327" r="0.3" fill="white" opacity="0.17"/>
  <line x1="174.5" y1="201.0" x2="251.2" y2="118.5" stroke="#D8C8E8" stroke-width="1.2" opacity="0.55" stroke-linecap="round"/><line x1="174.5" y1="201.0" x2="215.1" y2="313.5" stroke="#D8C8E8" stroke-width="1.2" opacity="0.55" stroke-linecap="round"/><line x1="251.2" y1="118.5" x2="305.8" y2="185.2" stroke="#D8C8E8" stroke-width="1.2" opacity="0.55" stroke-linecap="round"/><line x1="174.5" y1="201.0" x2="305.8" y2="185.2" stroke="#D8C8E8" stroke-width="1.2" opacity="0.55" stroke-linecap="round"/>
  <circle cx="174.5" cy="201.0" r="10.6" fill="#D8C8E8" opacity="0.08"/><circle cx="174.5" cy="201.0" r="6.3" fill="#D8C8E8" opacity="0.18"/><circle cx="174.5" cy="201.0" r="4.8" fill="white" opacity="0.95"/><circle cx="174.5" cy="201.0" r="1.9" fill="#D8C8E8" opacity="0.9"/><circle cx="251.2" cy="118.5" r="10.6" fill="#D8C8E8" opacity="0.08"/><circle cx="251.2" cy="118.5" r="6.3" fill="#D8C8E8" opacity="0.18"/><circle cx="251.2" cy="118.5" r="4.8" fill="white" opacity="0.95"/><circle cx="251.2" cy="118.5" r="1.9" fill="#D8C8E8" opacity="0.9"/><circle cx="215.1" cy="313.5" r="8.4" fill="#D8C8E8" opacity="0.08"/><circle cx="215.1" cy="313.5" r="5.0" fill="#D8C8E8" opacity="0.18"/><circle cx="215.1" cy="313.5" r="3.8" fill="white" opacity="0.95"/><circle cx="215.1" cy="313.5" r="1.5" fill="#D8C8E8" opacity="0.9"/><circle cx="305.8" cy="185.2" r="6.3" fill="#D8C8E8" opacity="0.08"/><circle cx="305.8" cy="185.2" r="3.8" fill="#D8C8E8" opacity="0.18"/><circle cx="305.8" cy="185.2" r="2.9" fill="white" opacity="0.95"/><circle cx="305.8" cy="185.2" r="1.2" fill="#D8C8E8" opacity="0.9"/><circle cx="305.8" cy="185.2" r="6.3" fill="#D8C8E8" opacity="0.08"/><circle cx="305.8" cy="185.2" r="3.8" fill="#D8C8E8" opacity="0.18"/><circle cx="305.8" cy="185.2" r="2.9" fill="white" opacity="0.95"/><circle cx="305.8" cy="185.2" r="1.2" fill="#D8C8E8" opacity="0.9"/>
  <text x="250" y="438" text-anchor="middle" font-family="Georgia,serif" font-size="24" fill="#D8C8E8" opacity="0.95" letter-spacing="4">LIBRA</text>
  <text x="250" y="462" text-anchor="middle" font-family="Georgia,serif" font-size="12" fill="#aaaaaa" letter-spacing="2">23 Set – 22 Ott</text>
  <text x="250" y="488" text-anchor="middle" font-family="Georgia,serif" font-size="18" fill="#D8C8E8" opacity="0.65">♎</text>
</svg>