<svg xmlns="http://www.w3.org/2000/svg" viewBox="0 0 500 500" width="500" height="500">
  <rect width="500" height="500" fill="#080f1a"/>
  <circle cx="115" cy="108" r="0.2" fill="white" opacity="0.40"/>
  <circle cx="405" cy="332" r="0.4" fill="white" opacity="0.51"/>
  <circle cx="205" cy="180" r="0.5" fill="white" opacity="0.36"/>
  <circle cx="87" cy="240" r="0.8" fill="white" opacity="0.40"/>
  <circle cx="471" cy="60" r="0.4" fill="white" opacity="0.18"/>
  <circle cx="31" cy="16" r="0.2" fill="white" opacity="0.29"/>
  <circle cx="105" cy="208" r="0.7" fill="white" opacity="0.45"/>
  <circle cx="161" cy="288" r="0.7" fill="white" opacity="0.49"/>
  <circle cx="253" cy="144" r="0.5" fill="white" opacity="0.41"/>
  <circle cx="277" cy="236" r="0.4" fill="white" opacity="0.38"/>
  <circle cx="225" cy="240" r="0.8" fill="white" opacity="0.23"/>
  <circle cx="303" cy="148" r="0.8" fill="white" opacity="0.27"/>
  <circle cx="193" cy="104" r="0.7" fill="white" opacity="0.50"/>
  <circle cx="39" cy="56" r="0.5" fill="white" opacity="0.16"/>
  <circle cx="199" cy="276" r="0.2" fill="white" opacity="0.32"/>
  <circle cx="389" cy="332" r="0.2" fill="white" opacity="0.36"/>
  <circle cx="291" cy="280" r="0.5" fill="white" opacity="0.28"/>
  <circle cx="173" cy="72" r="0.7" fill="white" opacity="0.25"/>
  <circle cx="393" cy="232" r="0.4" fill="white" opacity="0.55"/>
  <circle cx="419" cy="328" r="0.4" fill="white" opacity="0.14"/>
  <circle cx="181" cy="248" r="0.7" fill="white" opacity="0.37"/>
  <circle cx="313" cy="112" r="0.8" fill="white" opacity="0.48"/>
  <circle cx="193" cy="276" r="0.5" fill="white" opacity="0.33"/>
  <circle cx="393" cy="52" r="0.5" fill="white" opacity="0.37"/>
  <circle cx="353" cy="92" r="0.8" fill="white" opacity="0.15"/>
  <circle cx="459" cy="8" r="0.2" fill="white" opacity="0.12"/>
  <circle cx="337" cy="324" r="0.4" fill="white" opacity="0.42"/>
  <circle cx="435" cy="268" r="0.4" fill="white" opacity="0.46"/>
  <circle cx="193" cy="68" r="0.2" fill="white" opacity="0.24"/>
  <circle cx="121" cy="184" r="0.8" fill="white" opacity="0.35"/>
  <circle cx="211" cy="36" r="0.5" fill="white" opacity="0.20"/>
  <circle cx="421" cy="128" r="0.5" fill="white" opacity="0.24"/>
  <circle cx="315" cy="260" r="0.4" fill="white" opacity="0.47"/>
  <circle cx="279" cy="300" r="0.2" fill="white" opacity="0.13"/>
  <circle cx="305" cy="92" r="0.7" fill="white" opacity="0.29"/>
  <circle cx="475" cy="140" r="0.7" fill="white" opacity="0.33"/>
  <circle cx="105" cy="244" r="0.2" fill="white" opacity="0.25"/>
  <circle cx="319" cy="272" r="0.4" fill="white" opacity="0.22"/>
  <circle cx="129" cy="68" r="0.8" fill="white" opacity="0.52"/>
  <circle cx="349" cy="304" r="0.8" fill="white" opacity="0.56"/>
  <circle cx="177" cy="104" r="0.4" fill="white" opacity="0.34"/>
  <circle cx="489" cy="184" r="0.5" fill="white" opacity="0.45"/>
  <circle cx="173" cy="132" r="0.2" fill="white" opacity="0.16"/>
  <circle cx="415" cy="112" r="0.2" fill="white" opacity="0.20"/>
  <circle cx="407" cy="96" r="0.5" fill="white" opacity="0.12"/>
  <circle cx="51" cy="36" r="0.7" fill="white" opacity="0.54"/>
  <circle cx="437" cy="200" r="0.8" fill="white" opacity="0.39"/>
  <circle cx="301" cy="72" r="0.4" fill="white" opacity="0.43"/>
  <circle cx="429" cy="304" r="0.7" fill="white" opacity="0.21"/>
  <circle cx="109" cy="168" r="0.5" fill="white" opacity="0.32"/>
  <circle cx="431" cy="272" r="0.2" fill="white" opacity="0.17"/>
  <circle cx="255" cy="100" r="0.2" fill="white" opacity="0.21"/>
  <circle cx="243" cy="304" r="0.8" fill="white" opacity="0.44"/>
  <circle cx="173" cy="240" r="0.7" fill="white" opacity="0.41"/>
  <circle cx="279" cy="8" r="0.4" fill="white" opacity="0.26"/>
  <circle cx="153" cy="196" r="0.4" fill="white" opacity="0.30"/>
  <circle cx="215" cy="180" r="0.7" fill="white" opacity="0.53"/>
  <circle cx="119" cy="168" r="0.8" fill="white" opacity="0.19"/>
  <circle cx="223" cy="88" r="0.5" fill="white" opacity="0.49"/>
  <circle cx="485" cy="104" r="0.5" fill="white" opacity="0.53"/>
  <circle cx="469" cy="188" r="0.8" fill="white" opacity="0.31"/>
  <circle cx="195" cy="36" r="0.2" fill="white" opacity="0.28"/>
  <circle cx="387" cy="172" r="0.7" fill="white" opacity="0.13"/>
  <circle cx="395" cy="80" r="0.7" fill="white" opacity="0.17"/>
  <circle cx="391" cy="72" r="0.2" fill="white" opacity="0.40"/>
  <circle cx="153" cy="184" r="0.4" fill="white" opacity="0.51"/>
  <circle cx="405" cy="260" r="0.5" fill="white" opacity="0.36"/>
  <circle cx="249" cy="124" r="0.8" fill="white" opacity="0.40"/>
  <circle cx="105" cy="88" r="0.4" fill="white" opacity="0.18"/>
  <circle cx="117" cy="272" r="0.2" fill="white" opacity="0.29"/>
  <circle cx="153" cy="12" r="0.7" fill="white" opacity="0.45"/>
  <circle cx="171" cy="236" r="0.7" fill="white" opacity="0.49"/>
  <circle cx="101" cy="320" r="0.5" fill="white" opacity="0.41"/>
  <circle cx="87" cy="216" r="0.4" fill="white" opacity="0.38"/>
  <circle cx="487" cy="108" r="0.8" fill="white" opacity="0.23"/>
  <circle cx="403" cy="160" r="0.8" fill="white" opacity="0.27"/>
  <circle cx="255" cy="344" r="0.7" fill="white" opacity="0.50"/>
  <circle cx="63" cy="100" r="0.5" fill="white" opacity="0.16"/>
  <circle cx="185" cy="208" r="0.2" fill="white" opacity="0.32"/>
  <circle cx="213" cy="152" r="0.2" fill="white" opacity="0.36"/>
  <circle cx="201" cy="244" r="0.5" fill="white" opacity="0.28"/>
  <circle cx="45" cy="264" r="0.7" fill="white" opacity="0.25"/>
  <circle cx="103" cy="312" r="0.4" fill="white" opacity="0.55"/>
  <circle cx="91" cy="212" r="0.4" fill="white" opacity="0.14"/>
  <circle cx="305" cy="20" r="0.7" fill="white" opacity="0.37"/>
  <circle cx="399" cy="28" r="0.8" fill="white" opacity="0.48"/>
  <circle cx="241" cy="80" r="0.5" fill="white" opacity="0.33"/>
  <circle cx="403" cy="340" r="0.5" fill="white" opacity="0.37"/>
  <circle cx="201" cy="184" r="0.8" fill="white" opacity="0.15"/>
  <circle cx="269" cy="328" r="0.2" fill="white" opacity="0.12"/>
  <circle cx="109" cy="192" r="0.4" fill="white" opacity="0.42"/>
  <circle cx="169" cy="280" r="0.4" fill="white" opacity="0.46"/>
  <circle cx="255" cy="308" r="0.2" fill="white" opacity="0.24"/>
  <circle cx="145" cy="228" r="0.8" fill="white" opacity="0.35"/>
  <circle cx="197" cy="308" r="0.5" fill="white" opacity="0.20"/>
  <circle cx="369" cy="288" r="0.5" fill="white" opacity="0.24"/>
  <circle cx="101" cy="224" r="0.4" fill="white" opacity="0.47"/>
  <circle cx="27" cy="68" r="0.2" fill="white" opacity="0.13"/>
  <circle cx="15" cy="88" r="0.7" fill="white" opacity="0.29"/>
  <circle cx="147" cy="24" r="0.7" fill="white" opacity="0.33"/>
  <line x1="236.7" y1="287.5" x2="237.4" y2="196.4" stroke="#B0C8E8" stroke-width="1.2" opacity="0.55" stroke-linecap="round"/><line x1="237.4" y1="196.4" x2="271.1" y2="260.0" stroke="#B0C8E8" stroke-width="1.2" opacity="0.55" stroke-linecap="round"/><line x1="237.4" y1="196.4" x2="234.3" y2="162.9" stroke="#B0C8E8" stroke-width="1.2" opacity="0.55" stroke-linecap="round"/><line x1="234.3" y1="162.9" x2="269.8" y2="92.5" stroke="#B0C8E8" stroke-width="1.2" opacity="0.55" stroke-linecap="round"/><line x1="271.1" y1="260.0" x2="269.8" y2="92.5" stroke="#B0C8E8" stroke-width="1.2" opacity="0.55" stroke-linecap="round"/>
  <circle cx="236.7" cy="287.5" r="7.6" fill="#B0C8E8" opacity="0.08"/><circle cx="236.7" cy="287.5" r="4.5" fill="#B0C8E8" opacity="0.18"/><circle cx="236.7" cy="287.5" r="3.5" fill="white" opacity="0.95"/><circle cx="236.7" cy="287.5" r="1.4" fill="#B0C8E8" opacity="0.9"/><circle cx="271.1" cy="260.0" r="5.5" fill="#B0C8E8" opacity="0.08"/><circle cx="271.1" cy="260.0" r="3.2" fill="#B0C8E8" opacity="0.18"/><circle cx="271.1" cy="260.0" r="2.5" fill="white" opacity="0.95"/><circle cx="271.1" cy="260.0" r="1.0" fill="#B0C8E8" opacity="0.9"/><circle cx="234.3" cy="162.9" r="5.5" fill="#B0C8E8" opacity="0.08"/><circle cx="234.3" cy="162.9" r="3.2" fill="#B0C8E8" opacity="0.18"/><circle cx="234.3" cy="162.9" r="2.5" fill="white" opacity="0.95"/><circle cx="234.3" cy="162.9" r="1.0" fill="#B0C8E8" opacity="0.9"/><circle cx="237.4" cy="196.4" r="6.2" fill="#B0C8E8" opacity="0.08"/><circle cx="237.4" cy="196.4" r="3.7" fill="#B0C8E8" opacity="0.18"/><circle cx="237.4" cy="196.4" r="2.8" fill="white" opacity="0.95"/><circle cx="237.4" cy="196.4" r="1.1" fill="#B0C8E8" opacity="0.9"/><circle cx="269.8" cy="92.5" r="5.5" fill="#B0C8E8" opacity="0.08"/><circle cx="269.8" cy="92.5" r="3.2" fill="#B0C8E8" opacity="0.18"/><circle cx="269.8" cy="92.5" r="2.5" fill="white" opacity="0.95"/><circle cx="269.8" cy="92.5" r="1.0" fill="#B0C8E8" opacity="0.9"/>
  <text x="250" y="438" text-anchor="middle" font-family="Georgia,serif" font-size="24" fill="#B0C8E8" opacity="0.95" letter-spacing="4">CANCER</text>
  <text x="250" y="462" text-anchor="middle" font-family="Georgia,serif" font-size="12" fill="#aaaaaa" letter-spacing="2">21 Giu – 22 Lug</text>
  <text x="250" y="488" text-anchor="middle" font-family="Georgia,serif" font-size="18" fill="#B0C8E8" opacity="0.65">♋</text>
</svg>