<svg xmlns="http://www.w3.org/2000/svg" viewBox="0 0 500 500" width="500" height="500">
  <rect width="500" height="500" fill="#080f1a"/>
  <circle cx="326" cy="223" r="0.3" fill="white" opacity="0.34"/>
  <circle cx="326" cy="139" r="0.6" fill="white" opacity="0.41"/>
  <circle cx="320" cy="307" r="0.4" fill="white" opacity="0.36"/>
  <circle cx="90" cy="87" r="0.6" fill="white" opacity="0.36"/>
  <circle cx="494" cy="95" r="0.6" fill="white" opacity="0.24"/>
  <circle cx="272" cy="75" r="0.9" fill="white" opacity="0.31"/>
  <circle cx="96" cy="343" r="0.8" fill="white" opacity="0.26"/>
  <circle cx="486" cy="91" r="0.4" fill="white" opacity="0.40"/>
  <circle cx="216" cy="19" r="0.4" fill="white" opacity="0.28"/>
  <circle cx="352" cy="211" r="0.8" fill="white" opacity="0.35"/>
  <circle cx="468" cy="219" r="0.6" fill="white" opacity="0.16"/>
  <circle cx="222" cy="339" r="0.3" fill="white" opacity="0.30"/>
  <circle cx="348" cy="335" r="0.8" fill="white" opacity="0.18"/>
  <circle cx="324" cy="123" r="0.3" fill="white" opacity="0.25"/>
  <circle cx="332" cy="19" r="0.4" fill="white" opacity="0.20"/>
  <circle cx="278" cy="319" r="0.6" fill="white" opacity="0.20"/>
  <circle cx="158" cy="23" r="0.6" fill="white" opacity="0.53"/>
  <circle cx="188" cy="235" r="0.9" fill="white" opacity="0.15"/>
  <circle cx="302" cy="83" r="0.8" fill="white" opacity="0.55"/>
  <circle cx="40" cy="287" r="0.4" fill="white" opacity="0.24"/>
  <circle cx="12" cy="103" r="0.9" fill="white" opacity="0.12"/>
  <circle cx="186" cy="123" r="0.4" fill="white" opacity="0.19"/>
  <circle cx="254" cy="71" r="0.6" fill="white" opacity="0.45"/>
  <circle cx="122" cy="243" r="0.8" fill="white" opacity="0.14"/>
  <circle cx="400" cy="319" r="0.8" fill="white" opacity="0.47"/>
  <circle cx="76" cy="127" r="0.3" fill="white" opacity="0.54"/>
  <circle cx="312" cy="239" r="0.9" fill="white" opacity="0.35"/>
  <circle cx="34" cy="103" r="0.6" fill="white" opacity="0.49"/>
  <circle cx="342" cy="247" r="0.6" fill="white" opacity="0.37"/>
  <circle cx="224" cy="331" r="0.9" fill="white" opacity="0.44"/>
  <circle cx="352" cy="331" r="0.8" fill="white" opacity="0.39"/>
  <circle cx="142" cy="35" r="0.9" fill="white" opacity="0.39"/>
  <circle cx="328" cy="227" r="0.9" fill="white" opacity="0.27"/>
  <circle cx="140" cy="55" r="0.4" fill="white" opacity="0.48"/>
  <circle cx="8" cy="263" r="0.3" fill="white" opacity="0.29"/>
  <circle cx="204" cy="211" r="0.8" fill="white" opacity="0.43"/>
  <circle cx="358" cy="259" r="0.8" fill="white" opacity="0.31"/>
  <circle cx="438" cy="235" r="0.3" fill="white" opacity="0.38"/>
  <circle cx="136" cy="203" r="0.9" fill="white" opacity="0.19"/>
  <circle cx="462" cy="119" r="0.3" fill="white" opacity="0.33"/>
  <circle cx="432" cy="87" r="0.3" fill="white" opacity="0.21"/>
  <circle cx="14" cy="191" r="0.6" fill="white" opacity="0.28"/>
  <circle cx="370" cy="239" r="0.4" fill="white" opacity="0.23"/>
  <circle cx="60" cy="271" r="0.9" fill="white" opacity="0.23"/>
  <circle cx="60" cy="307" r="0.9" fill="white" opacity="0.56"/>
  <circle cx="338" cy="7" r="0.4" fill="white" opacity="0.32"/>
  <circle cx="96" cy="283" r="0.3" fill="white" opacity="0.13"/>
  <circle cx="344" cy="155" r="0.8" fill="white" opacity="0.27"/>
  <circle cx="222" cy="239" r="0.4" fill="white" opacity="0.15"/>
  <circle cx="430" cy="279" r="0.8" fill="white" opacity="0.22"/>
  <circle cx="418" cy="251" r="0.9" fill="white" opacity="0.48"/>
  <circle cx="92" cy="283" r="0.3" fill="white" opacity="0.17"/>
  <circle cx="428" cy="223" r="0.3" fill="white" opacity="0.50"/>
  <circle cx="414" cy="71" r="0.6" fill="white" opacity="0.12"/>
  <circle cx="356" cy="59" r="0.4" fill="white" opacity="0.52"/>
  <circle cx="36" cy="59" r="0.9" fill="white" opacity="0.52"/>
  <circle cx="188" cy="259" r="0.6" fill="white" opacity="0.40"/>
  <circle cx="166" cy="319" r="0.9" fill="white" opacity="0.16"/>
  <circle cx="152" cy="47" r="0.3" fill="white" opacity="0.42"/>
  <circle cx="300" cy="247" r="0.4" fill="white" opacity="0.56"/>
  <circle cx="482" cy="91" r="0.4" fill="white" opacity="0.44"/>
  <circle cx="176" cy="87" r="0.8" fill="white" opacity="0.51"/>
  <circle cx="178" cy="43" r="0.6" fill="white" opacity="0.32"/>
  <circle cx="270" cy="339" r="0.3" fill="white" opacity="0.46"/>
  <circle cx="330" cy="231" r="0.3" fill="white" opacity="0.34"/>
  <circle cx="444" cy="311" r="0.6" fill="white" opacity="0.41"/>
  <circle cx="186" cy="219" r="0.4" fill="white" opacity="0.36"/>
  <circle cx="194" cy="79" r="0.6" fill="white" opacity="0.36"/>
  <circle cx="222" cy="167" r="0.6" fill="white" opacity="0.24"/>
  <circle cx="114" cy="311" r="0.9" fill="white" opacity="0.31"/>
  <circle cx="176" cy="319" r="0.8" fill="white" opacity="0.26"/>
  <circle cx="314" cy="147" r="0.4" fill="white" opacity="0.40"/>
  <circle cx="158" cy="155" r="0.4" fill="white" opacity="0.28"/>
  <circle cx="42" cy="171" r="0.8" fill="white" opacity="0.35"/>
  <circle cx="272" cy="343" r="0.6" fill="white" opacity="0.16"/>
  <circle cx="264" cy="203" r="0.3" fill="white" opacity="0.30"/>
  <circle cx="138" cy="279" r="0.8" fill="white" opacity="0.18"/>
  <circle cx="228" cy="147" r="0.3" fill="white" opacity="0.25"/>
  <circle cx="474" cy="207" r="0.4" fill="white" opacity="0.20"/>
  <circle cx="44" cy="247" r="0.6" fill="white" opacity="0.20"/>
  <circle cx="162" cy="31" r="0.6" fill="white" opacity="0.53"/>
  <circle cx="306" cy="323" r="0.9" fill="white" opacity="0.15"/>
  <circle cx="168" cy="335" r="0.8" fill="white" opacity="0.55"/>
  <circle cx="20" cy="279" r="0.4" fill="white" opacity="0.24"/>
  <circle cx="230" cy="259" r="0.9" fill="white" opacity="0.12"/>
  <circle cx="152" cy="19" r="0.4" fill="white" opacity="0.19"/>
  <circle cx="334" cy="47" r="0.6" fill="white" opacity="0.45"/>
  <circle cx="316" cy="299" r="0.8" fill="white" opacity="0.14"/>
  <circle cx="342" cy="199" r="0.8" fill="white" opacity="0.47"/>
  <circle cx="256" cy="87" r="0.3" fill="white" opacity="0.54"/>
  <circle cx="116" cy="279" r="0.9" fill="white" opacity="0.35"/>
  <circle cx="442" cy="307" r="0.6" fill="white" opacity="0.49"/>
  <circle cx="8" cy="191" r="0.6" fill="white" opacity="0.37"/>
  <circle cx="128" cy="99" r="0.9" fill="white" opacity="0.44"/>
  <circle cx="494" cy="95" r="0.8" fill="white" opacity="0.39"/>
  <circle cx="398" cy="303" r="0.9" fill="white" opacity="0.39"/>
  <circle cx="208" cy="319" r="0.9" fill="white" opacity="0.27"/>
  <circle cx="258" cy="143" r="0.4" fill="white" opacity="0.48"/>
  <circle cx="364" cy="175" r="0.3" fill="white" opacity="0.29"/>
  <circle cx="184" cy="287" r="0.8" fill="white" opacity="0.43"/>
  <line x1="114.8" y1="123.1" x2="126.2" y2="150.8" stroke="#90C0D8" stroke-width="1.2" opacity="0.55" stroke-linecap="round"/><line x1="126.2" y1="150.8" x2="205.2" y2="278.3" stroke="#90C0D8" stroke-width="1.2" opacity="0.55" stroke-linecap="round"/><line x1="205.2" y1="278.3" x2="221.5" y2="298.6" stroke="#90C0D8" stroke-width="1.2" opacity="0.55" stroke-linecap="round"/><line x1="221.5" y1="298.6" x2="320.4" y2="243.6" stroke="#90C0D8" stroke-width="1.2" opacity="0.55" stroke-linecap="round"/><line x1="320.4" y1="243.6" x2="384.8" y2="168.3" stroke="#90C0D8" stroke-width="1.2" opacity="0.55" stroke-linecap="round"/><line x1="384.8" y1="168.3" x2="363.2" y2="174.0" stroke="#90C0D8" stroke-width="1.2" opacity="0.55" stroke-linecap="round"/><line x1="363.2" y1="174.0" x2="261.4" y2="178.3" stroke="#90C0D8" stroke-width="1.2" opacity="0.55" stroke-linecap="round"/><line x1="261.4" y1="178.3" x2="126.2" y2="150.8" stroke="#90C0D8" stroke-width="1.2" opacity="0.55" stroke-linecap="round"/>
  <circle cx="384.8" cy="168.3" r="9.8" fill="#90C0D8" opacity="0.08"/><circle cx="384.8" cy="168.3" r="5.8" fill="#90C0D8" opacity="0.18"/><circle cx="384.8" cy="168.3" r="4.5" fill="white" opacity="0.95"/><circle cx="384.8" cy="168.3" r="1.8" fill="#90C0D8" opacity="0.9"/><circle cx="126.2" cy="150.8" r="9.2" fill="#90C0D8" opacity="0.08"/><circle cx="126.2" cy="150.8" r="5.4" fill="#90C0D8" opacity="0.18"/><circle cx="126.2" cy="150.8" r="4.2" fill="white" opacity="0.95"/><circle cx="126.2" cy="150.8" r="1.7" fill="#90C0D8" opacity="0.9"/><circle cx="363.2" cy="174.0" r="7.1" fill="#90C0D8" opacity="0.08"/><circle cx="363.2" cy="174.0" r="4.2" fill="#90C0D8" opacity="0.18"/><circle cx="363.2" cy="174.0" r="3.2" fill="white" opacity="0.95"/><circle cx="363.2" cy="174.0" r="1.3" fill="#90C0D8" opacity="0.9"/><circle cx="114.8" cy="123.1" r="7.5" fill="#90C0D8" opacity="0.08"/><circle cx="114.8" cy="123.1" r="4.4" fill="#90C0D8" opacity="0.18"/><circle cx="114.8" cy="123.1" r="3.4" fill="white" opacity="0.95"/><circle cx="114.8" cy="123.1" r="1.4" fill="#90C0D8" opacity="0.9"/><circle cx="221.5" cy="298.6" r="6.1" fill="#90C0D8" opacity="0.08"/><circle cx="221.5" cy="298.6" r="3.6" fill="#90C0D8" opacity="0.18"/><circle cx="221.5" cy="298.6" r="2.8" fill="white" opacity="0.95"/><circle cx="221.5" cy="298.6" r="1.1" fill="#90C0D8" opacity="0.9"/><circle cx="205.2" cy="278.3" r="5.6" fill="#90C0D8" opacity="0.08"/><circle cx="205.2" cy="278.3" r="3.3" fill="#90C0D8" opacity="0.18"/><circle cx="205.2" cy="278.3" r="2.5" fill="white" opacity="0.95"/><circle cx="205.2" cy="278.3" r="1.0" fill="#90C0D8" opacity="0.9"/><circle cx="320.4" cy="243.6" r="6.9" fill="#90C0D8" opacity="0.08"/><circle cx="320.4" cy="243.6" r="4.1" fill="#90C0D8" opacity="0.18"/><circle cx="320.4" cy="243.6" r="3.1" fill="white" opacity="0.95"/><circle cx="320.4" cy="243.6" r="1.3" fill="#90C0D8" opacity="0.9"/><circle cx="261.4" cy="178.3" r="5.8" fill="#90C0D8" opacity="0.08"/><circle cx="261.4" cy="178.3" r="3.4" fill="#90C0D8" opacity="0.18"/><circle cx="261.4" cy="178.3" r="2.6" fill="white" opacity="0.95"/><circle cx="261.4" cy="178.3" r="1.1" fill="#90C0D8" opacity="0.9"/>
  <text x="250" y="438" text-anchor="middle" font-family="Georgia,serif" font-size="24" fill="#90C0D8" opacity="0.95" letter-spacing="4">CAPRICORNUS</text>
  <text x="250" y="462" text-anchor="middle" font-family="Georgia,serif" font-size="12" fill="#aaaaaa" letter-spacing="2">22 Dic – 19 Gen</text>
  <text x="250" y="488" text-anchor="middle" font-family="Georgia,serif" font-size="18" fill="#90C0D8" opacity="0.65">♑</text>
</svg>