<svg xmlns="http://www.w3.org/2000/svg" viewBox="0 0 400 300">
<defs>
<radialGradient id="bg" cx="50%" cy="50%" r="70%"><stop offset="0%" stop-color="#0d1b35"/><stop offset="100%" stop-color="#020509"/></radialGradient>
<filter id="glow"><feGaussianBlur stdDeviation="2" result="blur"/><feMerge><feMergeNode in="blur"/><feMergeNode in="SourceGraphic"/></feMerge></filter>
</defs>
<rect width="400" height="300" fill="url(#bg)"/>
<circle cx="260.0" cy="127.4" r="0.8" fill="white" opacity="0.33"/>
<circle cx="108.2" cy="13.9" r="0.7" fill="white" opacity="0.33"/>
<circle cx="330.2" cy="296.8" r="0.4" fill="white" opacity="0.41"/>
<circle cx="6.4" cy="243.4" r="0.7" fill="white" opacity="0.55"/>
<circle cx="251.8" cy="21.7" r="0.6" fill="white" opacity="0.23"/>
<circle cx="81.8" cy="152.6" r="0.7" fill="white" opacity="0.52"/>
<circle cx="164.4" cy="223.2" r="0.6" fill="white" opacity="0.52"/>
<circle cx="164.3" cy="171.8" r="0.8" fill="white" opacity="0.28"/>
<circle cx="389.1" cy="13.7" r="0.6" fill="white" opacity="0.29"/>
<circle cx="192.9" cy="58.7" r="0.6" fill="white" opacity="0.42"/>
<circle cx="261.5" cy="57.0" r="0.7" fill="white" opacity="0.38"/>
<circle cx="87.0" cy="286.4" r="0.4" fill="white" opacity="0.22"/>
<circle cx="145.9" cy="144.5" r="0.4" fill="white" opacity="0.36"/>
<circle cx="306.4" cy="75.8" r="0.4" fill="white" opacity="0.37"/>
<circle cx="270.5" cy="283.8" r="0.7" fill="white" opacity="0.31"/>
<circle cx="200.0" cy="217.7" r="0.6" fill="white" opacity="0.6"/>
<circle cx="102.1" cy="170.7" r="0.7" fill="white" opacity="0.54"/>
<circle cx="185.8" cy="233.2" r="0.7" fill="white" opacity="0.48"/>
<circle cx="206.5" cy="14.2" r="0.5" fill="white" opacity="0.26"/>
<circle cx="260.3" cy="94.2" r="0.4" fill="white" opacity="0.39"/>
<circle cx="174.1" cy="45.5" r="0.7" fill="white" opacity="0.55"/>
<circle cx="157.7" cy="158.9" r="0.4" fill="white" opacity="0.45"/>
<circle cx="42.9" cy="59.5" r="0.5" fill="white" opacity="0.35"/>
<circle cx="328.9" cy="52.4" r="0.4" fill="white" opacity="0.25"/>
<circle cx="379.9" cy="37.7" r="0.6" fill="white" opacity="0.42"/>
<circle cx="66.9" cy="9.2" r="0.7" fill="white" opacity="0.5"/>
<circle cx="176.2" cy="285.1" r="0.6" fill="white" opacity="0.22"/>
<circle cx="214.7" cy="45.6" r="0.7" fill="white" opacity="0.27"/>
<circle cx="164.8" cy="187.6" r="0.5" fill="white" opacity="0.59"/>
<circle cx="168.0" cy="50.8" r="0.8" fill="white" opacity="0.31"/>
<circle cx="145.3" cy="36.1" r="0.5" fill="white" opacity="0.54"/>
<circle cx="324.5" cy="108.3" r="0.5" fill="white" opacity="0.55"/>
<circle cx="386.8" cy="270.1" r="0.6" fill="white" opacity="0.3"/>
<circle cx="180.2" cy="118.2" r="0.6" fill="white" opacity="0.28"/>
<circle cx="342.4" cy="252.1" r="0.6" fill="white" opacity="0.36"/>
<circle cx="110.6" cy="259.4" r="0.5" fill="white" opacity="0.31"/>
<circle cx="397.4" cy="110.8" r="0.4" fill="white" opacity="0.22"/>
<circle cx="63.2" cy="212.6" r="0.7" fill="white" opacity="0.5"/>
<circle cx="14.2" cy="142.9" r="0.5" fill="white" opacity="0.56"/>
<circle cx="325.8" cy="120.7" r="0.4" fill="white" opacity="0.36"/>
<circle cx="270.6" cy="277.4" r="0.5" fill="white" opacity="0.54"/>
<circle cx="128.9" cy="30.9" r="0.7" fill="white" opacity="0.23"/>
<circle cx="351.8" cy="101.7" r="0.3" fill="white" opacity="0.56"/>
<circle cx="289.3" cy="83.2" r="0.5" fill="white" opacity="0.4"/>
<circle cx="132.7" cy="49.4" r="0.8" fill="white" opacity="0.21"/>
<circle cx="343.1" cy="286.8" r="0.5" fill="white" opacity="0.59"/>
<circle cx="125.8" cy="214.1" r="0.6" fill="white" opacity="0.58"/>
<circle cx="7.4" cy="139.5" r="0.8" fill="white" opacity="0.34"/>
<circle cx="283.3" cy="286.0" r="0.7" fill="white" opacity="0.2"/>
<circle cx="339.0" cy="177.0" r="0.4" fill="white" opacity="0.37"/>
<circle cx="382.9" cy="292.0" r="0.4" fill="white" opacity="0.28"/>
<circle cx="60.2" cy="271.0" r="0.5" fill="white" opacity="0.55"/>
<circle cx="126.1" cy="152.7" r="0.4" fill="white" opacity="0.38"/>
<circle cx="317.2" cy="53.8" r="0.6" fill="white" opacity="0.4"/>
<circle cx="16.3" cy="78.3" r="0.4" fill="white" opacity="0.38"/>
<circle cx="67.6" cy="180.6" r="0.5" fill="white" opacity="0.22"/>
<circle cx="153.2" cy="199.9" r="0.5" fill="white" opacity="0.42"/>
<circle cx="169.2" cy="182.5" r="0.7" fill="white" opacity="0.43"/>
<circle cx="360.3" cy="119.3" r="0.8" fill="white" opacity="0.57"/>
<circle cx="30.9" cy="107.6" r="0.7" fill="white" opacity="0.42"/>
<line x1="88.0" y1="124.0" x2="136.0" y2="100.0" stroke="rgba(180,200,255,0.45)" stroke-width="1"/>
<line x1="136.0" y1="100.0" x2="200.0" y2="116.0" stroke="rgba(180,200,255,0.45)" stroke-width="1"/>
<line x1="200.0" y1="116.0" x2="257.6" y2="96.0" stroke="rgba(180,200,255,0.45)" stroke-width="1"/>
<line x1="257.6" y1="96.0" x2="302.4" y2="120.0" stroke="rgba(180,200,255,0.45)" stroke-width="1"/>
<circle cx="88.0" cy="124.0" r="4.5" fill="#e2e8f0" opacity="0.25" filter="url(#glow)"/>
<circle cx="88.0" cy="124.0" r="3.0" fill="#e2e8f0"/>
<circle cx="136.0" cy="100.0" r="5.0" fill="#e2e8f0" opacity="0.25" filter="url(#glow)"/>
<circle cx="136.0" cy="100.0" r="3.5" fill="#e2e8f0"/>
<circle cx="200.0" cy="116.0" r="5.5" fill="#fef3c7" opacity="0.25" filter="url(#glow)"/>
<circle cx="200.0" cy="116.0" r="4.0" fill="#fef3c7"/>
<circle cx="257.6" cy="96.0" r="4.5" fill="#e2e8f0" opacity="0.25" filter="url(#glow)"/>
<circle cx="257.6" cy="96.0" r="3.0" fill="#e2e8f0"/>
<circle cx="302.4" cy="120.0" r="4.5" fill="#e2e8f0" opacity="0.25" filter="url(#glow)"/>
<circle cx="302.4" cy="120.0" r="3.0" fill="#e2e8f0"/>
<text x="200" y="290" text-anchor="middle" font-family="sans-serif" font-size="13" fill="rgba(180,210,255,0.7)" letter-spacing="2">CASSIOPEA</text>
</svg>