<svg xmlns="http://www.w3.org/2000/svg" viewBox="0 0 400 300">
<defs>
<radialGradient id="bg" cx="50%" cy="50%" r="70%"><stop offset="0%" stop-color="#0d1b35"/><stop offset="100%" stop-color="#020509"/></radialGradient>
<filter id="glow"><feGaussianBlur stdDeviation="2" result="blur"/><feMerge><feMergeNode in="blur"/><feMergeNode in="SourceGraphic"/></feMerge></filter>
</defs>
<rect width="400" height="300" fill="url(#bg)"/>
<circle cx="338.1" cy="115.5" r="0.6" fill="white" opacity="0.34"/>
<circle cx="208.9" cy="240.5" r="0.6" fill="white" opacity="0.26"/>
<circle cx="226.7" cy="240.9" r="0.8" fill="white" opacity="0.22"/>
<circle cx="348.4" cy="224.9" r="0.4" fill="white" opacity="0.26"/>
<circle cx="74.8" cy="107.3" r="0.7" fill="white" opacity="0.35"/>
<circle cx="360.9" cy="245.4" r="0.7" fill="white" opacity="0.38"/>
<circle cx="12.2" cy="80.0" r="0.7" fill="white" opacity="0.31"/>
<circle cx="326.4" cy="32.2" r="0.5" fill="white" opacity="0.42"/>
<circle cx="40.3" cy="165.8" r="0.7" fill="white" opacity="0.5"/>
<circle cx="99.2" cy="222.0" r="0.7" fill="white" opacity="0.31"/>
<circle cx="351.5" cy="27.7" r="0.7" fill="white" opacity="0.2"/>
<circle cx="332.8" cy="61.0" r="0.4" fill="white" opacity="0.47"/>
<circle cx="155.9" cy="24.4" r="0.4" fill="white" opacity="0.44"/>
<circle cx="383.6" cy="177.4" r="0.4" fill="white" opacity="0.42"/>
<circle cx="313.6" cy="48.0" r="0.7" fill="white" opacity="0.56"/>
<circle cx="233.4" cy="74.1" r="0.4" fill="white" opacity="0.43"/>
<circle cx="146.8" cy="250.4" r="0.7" fill="white" opacity="0.58"/>
<circle cx="341.3" cy="127.2" r="0.4" fill="white" opacity="0.4"/>
<circle cx="175.6" cy="58.5" r="0.7" fill="white" opacity="0.29"/>
<circle cx="135.8" cy="93.4" r="0.7" fill="white" opacity="0.4"/>
<circle cx="75.1" cy="192.0" r="0.4" fill="white" opacity="0.37"/>
<circle cx="104.9" cy="99.5" r="0.6" fill="white" opacity="0.33"/>
<circle cx="29.0" cy="145.7" r="0.5" fill="white" opacity="0.58"/>
<circle cx="257.7" cy="22.1" r="0.4" fill="white" opacity="0.31"/>
<circle cx="220.0" cy="167.6" r="0.8" fill="white" opacity="0.21"/>
<circle cx="87.0" cy="211.7" r="0.7" fill="white" opacity="0.21"/>
<circle cx="92.8" cy="63.5" r="0.6" fill="white" opacity="0.33"/>
<circle cx="166.2" cy="119.6" r="0.7" fill="white" opacity="0.33"/>
<circle cx="280.1" cy="236.1" r="0.3" fill="white" opacity="0.53"/>
<circle cx="32.2" cy="31.0" r="0.7" fill="white" opacity="0.55"/>
<circle cx="285.0" cy="69.8" r="0.4" fill="white" opacity="0.55"/>
<circle cx="171.0" cy="2.8" r="0.7" fill="white" opacity="0.41"/>
<circle cx="318.2" cy="160.0" r="0.8" fill="white" opacity="0.56"/>
<circle cx="114.2" cy="239.0" r="0.3" fill="white" opacity="0.23"/>
<circle cx="336.2" cy="155.2" r="0.6" fill="white" opacity="0.38"/>
<circle cx="383.4" cy="123.6" r="0.3" fill="white" opacity="0.33"/>
<circle cx="99.9" cy="143.4" r="0.7" fill="white" opacity="0.59"/>
<circle cx="192.5" cy="64.5" r="0.5" fill="white" opacity="0.27"/>
<circle cx="295.4" cy="297.5" r="0.7" fill="white" opacity="0.5"/>
<circle cx="305.0" cy="53.9" r="0.4" fill="white" opacity="0.22"/>
<circle cx="3.4" cy="97.1" r="0.3" fill="white" opacity="0.53"/>
<circle cx="205.5" cy="0.1" r="0.6" fill="white" opacity="0.44"/>
<circle cx="268.8" cy="205.2" r="0.6" fill="white" opacity="0.41"/>
<circle cx="30.8" cy="137.3" r="0.6" fill="white" opacity="0.6"/>
<circle cx="109.4" cy="6.7" r="0.8" fill="white" opacity="0.39"/>
<circle cx="144.0" cy="26.1" r="0.4" fill="white" opacity="0.3"/>
<circle cx="257.8" cy="146.4" r="0.3" fill="white" opacity="0.58"/>
<circle cx="346.6" cy="130.8" r="0.3" fill="white" opacity="0.49"/>
<circle cx="59.6" cy="155.0" r="0.7" fill="white" opacity="0.44"/>
<circle cx="362.5" cy="220.7" r="0.5" fill="white" opacity="0.33"/>
<circle cx="5.0" cy="141.0" r="0.7" fill="white" opacity="0.4"/>
<circle cx="145.8" cy="28.5" r="0.7" fill="white" opacity="0.56"/>
<circle cx="235.4" cy="129.3" r="0.4" fill="white" opacity="0.53"/>
<circle cx="152.5" cy="130.4" r="0.7" fill="white" opacity="0.36"/>
<circle cx="236.4" cy="242.9" r="0.4" fill="white" opacity="0.38"/>
<circle cx="15.6" cy="15.5" r="0.7" fill="white" opacity="0.24"/>
<circle cx="66.5" cy="236.3" r="0.3" fill="white" opacity="0.33"/>
<circle cx="356.2" cy="278.1" r="0.6" fill="white" opacity="0.38"/>
<circle cx="277.5" cy="55.2" r="0.4" fill="white" opacity="0.56"/>
<circle cx="256.9" cy="59.2" r="0.7" fill="white" opacity="0.24"/>
<line x1="200.0" y1="80.0" x2="200.0" y2="200.0" stroke="rgba(180,200,255,0.45)" stroke-width="1"/>
<line x1="104.0" y1="140.0" x2="296.0" y2="140.0" stroke="rgba(180,200,255,0.45)" stroke-width="1"/>
<circle cx="200.0" cy="80.0" r="6.0" fill="#fef3c7" opacity="0.25" filter="url(#glow)"/>
<circle cx="200.0" cy="80.0" r="4.5" fill="#fef3c7"/>
<circle cx="200.0" cy="200.0" r="5.0" fill="#e2e8f0" opacity="0.25" filter="url(#glow)"/>
<circle cx="200.0" cy="200.0" r="3.5" fill="#e2e8f0"/>
<circle cx="104.0" cy="140.0" r="5.5" fill="#fef3c7" opacity="0.25" filter="url(#glow)"/>
<circle cx="104.0" cy="140.0" r="4.0" fill="#fef3c7"/>
<circle cx="296.0" cy="140.0" r="5.0" fill="#e2e8f0" opacity="0.25" filter="url(#glow)"/>
<circle cx="296.0" cy="140.0" r="3.5" fill="#e2e8f0"/>
<circle cx="238.4" cy="116.0" r="3.5" fill="white" opacity="0.25" filter="url(#glow)"/>
<circle cx="238.4" cy="116.0" r="2.0" fill="white"/>
<text x="200" y="290" text-anchor="middle" font-family="sans-serif" font-size="13" fill="rgba(180,210,255,0.7)" letter-spacing="2">CROCE DEL SUD</text>
</svg>