<svg xmlns="http://www.w3.org/2000/svg" viewBox="0 0 500 500" width="500" height="500">
  <rect width="500" height="500" fill="#080f1a"/>
  <circle cx="408" cy="101" r="0.9" fill="white" opacity="0.16"/>
  <circle cx="428" cy="341" r="0.9" fill="white" opacity="0.36"/>
  <circle cx="346" cy="289" r="0.8" fill="white" opacity="0.30"/>
  <circle cx="392" cy="293" r="0.9" fill="white" opacity="0.12"/>
  <circle cx="24" cy="257" r="0.6" fill="white" opacity="0.13"/>
  <circle cx="24" cy="149" r="0.6" fill="white" opacity="0.33"/>
  <circle cx="160" cy="253" r="0.4" fill="white" opacity="0.27"/>
  <circle cx="48" cy="153" r="0.6" fill="white" opacity="0.54"/>
  <circle cx="250" cy="93" r="0.3" fill="white" opacity="0.41"/>
  <circle cx="78" cy="125" r="0.3" fill="white" opacity="0.30"/>
  <circle cx="156" cy="109" r="0.9" fill="white" opacity="0.24"/>
  <circle cx="100" cy="225" r="0.3" fill="white" opacity="0.37"/>
  <circle cx="230" cy="289" r="0.8" fill="white" opacity="0.38"/>
  <circle cx="466" cy="185" r="0.8" fill="white" opacity="0.13"/>
  <circle cx="334" cy="113" r="0.6" fill="white" opacity="0.21"/>
  <circle cx="182" cy="337" r="0.8" fill="white" opacity="0.34"/>
  <circle cx="330" cy="165" r="0.4" fill="white" opacity="0.35"/>
  <circle cx="332" cy="329" r="0.4" fill="white" opacity="0.55"/>
  <circle cx="80" cy="265" r="0.3" fill="white" opacity="0.18"/>
  <circle cx="46" cy="321" r="0.4" fill="white" opacity="0.31"/>
  <circle cx="60" cy="61" r="0.9" fill="white" opacity="0.32"/>
  <circle cx="166" cy="301" r="0.9" fill="white" opacity="0.52"/>
  <circle cx="132" cy="53" r="0.8" fill="white" opacity="0.46"/>
  <circle cx="430" cy="261" r="0.9" fill="white" opacity="0.28"/>
  <circle cx="34" cy="61" r="0.6" fill="white" opacity="0.29"/>
  <circle cx="334" cy="273" r="0.6" fill="white" opacity="0.49"/>
  <circle cx="242" cy="245" r="0.4" fill="white" opacity="0.43"/>
  <circle cx="230" cy="157" r="0.6" fill="white" opacity="0.25"/>
  <circle cx="128" cy="337" r="0.3" fill="white" opacity="0.26"/>
  <circle cx="470" cy="157" r="0.6" fill="white" opacity="0.46"/>
  <circle cx="44" cy="73" r="0.9" fill="white" opacity="0.40"/>
  <circle cx="426" cy="9" r="0.3" fill="white" opacity="0.22"/>
  <circle cx="466" cy="293" r="0.8" fill="white" opacity="0.54"/>
  <circle cx="84" cy="41" r="0.3" fill="white" opacity="0.29"/>
  <circle cx="28" cy="49" r="0.6" fill="white" opacity="0.37"/>
  <circle cx="162" cy="157" r="0.8" fill="white" opacity="0.50"/>
  <circle cx="434" cy="13" r="0.4" fill="white" opacity="0.51"/>
  <circle cx="32" cy="93" r="0.8" fill="white" opacity="0.26"/>
  <circle cx="318" cy="173" r="0.3" fill="white" opacity="0.34"/>
  <circle cx="170" cy="177" r="0.4" fill="white" opacity="0.47"/>
  <circle cx="32" cy="93" r="0.9" fill="white" opacity="0.48"/>
  <circle cx="438" cy="229" r="0.4" fill="white" opacity="0.23"/>
  <circle cx="52" cy="189" r="0.8" fill="white" opacity="0.17"/>
  <circle cx="84" cy="153" r="0.9" fill="white" opacity="0.44"/>
  <circle cx="364" cy="193" r="0.6" fill="white" opacity="0.45"/>
  <circle cx="198" cy="193" r="0.9" fill="white" opacity="0.20"/>
  <circle cx="92" cy="97" r="0.4" fill="white" opacity="0.14"/>
  <circle cx="28" cy="85" r="0.6" fill="white" opacity="0.41"/>
  <circle cx="326" cy="229" r="0.3" fill="white" opacity="0.42"/>
  <circle cx="416" cy="241" r="0.6" fill="white" opacity="0.17"/>
  <circle cx="314" cy="153" r="0.4" fill="white" opacity="0.56"/>
  <circle cx="368" cy="313" r="0.3" fill="white" opacity="0.38"/>
  <circle cx="408" cy="29" r="0.3" fill="white" opacity="0.25"/>
  <circle cx="112" cy="33" r="0.3" fill="white" opacity="0.14"/>
  <circle cx="104" cy="101" r="0.9" fill="white" opacity="0.53"/>
  <circle cx="124" cy="157" r="0.8" fill="white" opacity="0.21"/>
  <circle cx="244" cy="189" r="0.8" fill="white" opacity="0.22"/>
  <circle cx="266" cy="249" r="0.8" fill="white" opacity="0.42"/>
  <circle cx="200" cy="197" r="0.6" fill="white" opacity="0.50"/>
  <circle cx="276" cy="297" r="0.8" fill="white" opacity="0.18"/>
  <circle cx="324" cy="29" r="0.4" fill="white" opacity="0.19"/>
  <circle cx="264" cy="293" r="0.4" fill="white" opacity="0.39"/>
  <circle cx="354" cy="185" r="0.3" fill="white" opacity="0.33"/>
  <circle cx="334" cy="309" r="0.4" fill="white" opacity="0.15"/>
  <circle cx="400" cy="229" r="0.9" fill="white" opacity="0.16"/>
  <circle cx="106" cy="165" r="0.9" fill="white" opacity="0.36"/>
  <circle cx="324" cy="65" r="0.8" fill="white" opacity="0.30"/>
  <circle cx="422" cy="277" r="0.9" fill="white" opacity="0.12"/>
  <circle cx="230" cy="193" r="0.6" fill="white" opacity="0.13"/>
  <circle cx="40" cy="37" r="0.6" fill="white" opacity="0.33"/>
  <circle cx="352" cy="93" r="0.4" fill="white" opacity="0.27"/>
  <circle cx="292" cy="201" r="0.6" fill="white" opacity="0.54"/>
  <circle cx="304" cy="93" r="0.3" fill="white" opacity="0.41"/>
  <circle cx="184" cy="77" r="0.3" fill="white" opacity="0.30"/>
  <circle cx="72" cy="13" r="0.9" fill="white" opacity="0.24"/>
  <circle cx="192" cy="81" r="0.3" fill="white" opacity="0.37"/>
  <circle cx="8" cy="13" r="0.8" fill="white" opacity="0.38"/>
  <circle cx="420" cy="201" r="0.8" fill="white" opacity="0.13"/>
  <circle cx="464" cy="81" r="0.6" fill="white" opacity="0.21"/>
  <circle cx="488" cy="257" r="0.8" fill="white" opacity="0.34"/>
  <circle cx="322" cy="37" r="0.4" fill="white" opacity="0.35"/>
  <circle cx="10" cy="153" r="0.4" fill="white" opacity="0.55"/>
  <circle cx="424" cy="41" r="0.3" fill="white" opacity="0.18"/>
  <circle cx="200" cy="49" r="0.4" fill="white" opacity="0.31"/>
  <circle cx="266" cy="337" r="0.9" fill="white" opacity="0.32"/>
  <circle cx="58" cy="105" r="0.9" fill="white" opacity="0.52"/>
  <circle cx="200" cy="149" r="0.8" fill="white" opacity="0.46"/>
  <circle cx="308" cy="53" r="0.9" fill="white" opacity="0.28"/>
  <circle cx="454" cy="61" r="0.6" fill="white" opacity="0.29"/>
  <circle cx="74" cy="309" r="0.6" fill="white" opacity="0.49"/>
  <circle cx="158" cy="149" r="0.4" fill="white" opacity="0.43"/>
  <circle cx="322" cy="13" r="0.6" fill="white" opacity="0.25"/>
  <circle cx="396" cy="145" r="0.3" fill="white" opacity="0.26"/>
  <circle cx="424" cy="173" r="0.6" fill="white" opacity="0.46"/>
  <circle cx="174" cy="41" r="0.9" fill="white" opacity="0.40"/>
  <circle cx="242" cy="269" r="0.3" fill="white" opacity="0.22"/>
  <circle cx="458" cy="165" r="0.8" fill="white" opacity="0.54"/>
  <circle cx="252" cy="205" r="0.3" fill="white" opacity="0.29"/>
  <circle cx="6" cy="81" r="0.6" fill="white" opacity="0.37"/>
  <circle cx="192" cy="141" r="0.8" fill="white" opacity="0.50"/>
  <line x1="320.9" y1="105.8" x2="209.0" y2="176.5" stroke="#C8E0C8" stroke-width="1.2" opacity="0.55" stroke-linecap="round"/><line x1="209.0" y1="176.5" x2="292.4" y2="208.2" stroke="#C8E0C8" stroke-width="1.2" opacity="0.55" stroke-linecap="round"/><line x1="292.4" y1="208.2" x2="347.4" y2="143.6" stroke="#C8E0C8" stroke-width="1.2" opacity="0.55" stroke-linecap="round"/><line x1="320.9" y1="105.8" x2="159.2" y2="200.6" stroke="#C8E0C8" stroke-width="1.2" opacity="0.55" stroke-linecap="round"/><line x1="159.2" y1="200.6" x2="191.1" y2="264.3" stroke="#C8E0C8" stroke-width="1.2" opacity="0.55" stroke-linecap="round"/><line x1="191.1" y1="264.3" x2="208.5" y2="300.8" stroke="#C8E0C8" stroke-width="1.2" opacity="0.55" stroke-linecap="round"/><line x1="209.0" y1="176.5" x2="158.8" y2="200.5" stroke="#C8E0C8" stroke-width="1.2" opacity="0.55" stroke-linecap="round"/><line x1="347.4" y1="143.6" x2="348.1" y2="180.8" stroke="#C8E0C8" stroke-width="1.2" opacity="0.55" stroke-linecap="round"/>
  <circle cx="347.4" cy="143.6" r="15.5" fill="#C8E0C8" opacity="0.08"/><circle cx="347.4" cy="143.6" r="9.1" fill="#C8E0C8" opacity="0.18"/><circle cx="347.4" cy="143.6" r="7.0" fill="white" opacity="0.95"/><circle cx="347.4" cy="143.6" r="2.8" fill="#C8E0C8" opacity="0.9"/><text x="359.5" y="139.6" font-family="Georgia,serif" font-size="9" fill="#C8E0C8" opacity="0.6">Pollux</text><circle cx="320.9" cy="105.8" r="14.0" fill="#C8E0C8" opacity="0.08"/><circle cx="320.9" cy="105.8" r="8.3" fill="#C8E0C8" opacity="0.18"/><circle cx="320.9" cy="105.8" r="6.4" fill="white" opacity="0.95"/><circle cx="320.9" cy="105.8" r="2.6" fill="#C8E0C8" opacity="0.9"/><text x="332.3" y="101.8" font-family="Georgia,serif" font-size="9" fill="#C8E0C8" opacity="0.6">Castor</text><circle cx="191.1" cy="264.3" r="12.9" fill="#C8E0C8" opacity="0.08"/><circle cx="191.1" cy="264.3" r="7.6" fill="#C8E0C8" opacity="0.18"/><circle cx="191.1" cy="264.3" r="5.9" fill="white" opacity="0.95"/><circle cx="191.1" cy="264.3" r="2.3" fill="#C8E0C8" opacity="0.9"/><text x="201.9" y="260.3" font-family="Georgia,serif" font-size="9" fill="#C8E0C8" opacity="0.6">Alhena</text><circle cx="292.4" cy="208.2" r="7.6" fill="#C8E0C8" opacity="0.08"/><circle cx="292.4" cy="208.2" r="4.5" fill="#C8E0C8" opacity="0.18"/><circle cx="292.4" cy="208.2" r="3.5" fill="white" opacity="0.95"/><circle cx="292.4" cy="208.2" r="1.4" fill="#C8E0C8" opacity="0.9"/><circle cx="209.0" cy="176.5" r="9.2" fill="#C8E0C8" opacity="0.08"/><circle cx="209.0" cy="176.5" r="5.4" fill="#C8E0C8" opacity="0.18"/><circle cx="209.0" cy="176.5" r="4.2" fill="white" opacity="0.95"/><circle cx="209.0" cy="176.5" r="1.7" fill="#C8E0C8" opacity="0.9"/><circle cx="159.2" cy="200.6" r="8.4" fill="#C8E0C8" opacity="0.08"/><circle cx="159.2" cy="200.6" r="5.0" fill="#C8E0C8" opacity="0.18"/><circle cx="159.2" cy="200.6" r="3.8" fill="white" opacity="0.95"/><circle cx="159.2" cy="200.6" r="1.5" fill="#C8E0C8" opacity="0.9"/><circle cx="158.8" cy="200.5" r="9.8" fill="#C8E0C8" opacity="0.08"/><circle cx="158.8" cy="200.5" r="5.8" fill="#C8E0C8" opacity="0.18"/><circle cx="158.8" cy="200.5" r="4.4" fill="white" opacity="0.95"/><circle cx="158.8" cy="200.5" r="1.8" fill="#C8E0C8" opacity="0.9"/><circle cx="208.5" cy="300.8" r="8.2" fill="#C8E0C8" opacity="0.08"/><circle cx="208.5" cy="300.8" r="4.8" fill="#C8E0C8" opacity="0.18"/><circle cx="208.5" cy="300.8" r="3.7" fill="white" opacity="0.95"/><circle cx="208.5" cy="300.8" r="1.5" fill="#C8E0C8" opacity="0.9"/><circle cx="348.1" cy="180.8" r="7.5" fill="#C8E0C8" opacity="0.08"/><circle cx="348.1" cy="180.8" r="4.4" fill="#C8E0C8" opacity="0.18"/><circle cx="348.1" cy="180.8" r="3.4" fill="white" opacity="0.95"/><circle cx="348.1" cy="180.8" r="1.4" fill="#C8E0C8" opacity="0.9"/>
  <text x="250" y="438" text-anchor="middle" font-family="Georgia,serif" font-size="24" fill="#C8E0C8" opacity="0.95" letter-spacing="4">GEMINI</text>
  <text x="250" y="462" text-anchor="middle" font-family="Georgia,serif" font-size="12" fill="#aaaaaa" letter-spacing="2">21 Mag – 20 Giu</text>
  <text x="250" y="488" text-anchor="middle" font-family="Georgia,serif" font-size="18" fill="#C8E0C8" opacity="0.65">♊</text>
</svg>