<svg xmlns="http://www.w3.org/2000/svg" viewBox="0 0 1440 900" preserveAspectRatio="xMidYMid slice">
  <defs>
    <radialGradient id="bg" cx="70%" cy="30%" r="80%">
      <stop offset="0%" stop-color="#0c1e40"/>
      <stop offset="100%" stop-color="#020509"/>
    </radialGradient>
    <radialGradient id="planet" cx="38%" cy="38%" r="60%">
      <stop offset="0%" stop-color="#3b82f6"/>
      <stop offset="50%" stop-color="#1d4ed8"/>
      <stop offset="100%" stop-color="#0f172a"/>
    </radialGradient>
    <radialGradient id="glow" cx="50%" cy="50%" r="50%">
      <stop offset="0%" stop-color="#3b82f6" stop-opacity="0.25"/>
      <stop offset="100%" stop-color="#3b82f6" stop-opacity="0"/>
    </radialGradient>
    <radialGradient id="nb" cx="50%" cy="50%" r="50%">
      <stop offset="0%" stop-color="#f59e0b" stop-opacity="0.08"/>
      <stop offset="100%" stop-color="#f59e0b" stop-opacity="0"/>
    </radialGradient>
  </defs>
  <rect width="1440" height="900" fill="url(#bg)"/>
  <ellipse cx="1100" cy="150" rx="400" ry="300" fill="url(#nb)"/>
  <circle cx="344.1" cy="112.4" r="0.7" fill="white" opacity="0.77"/><circle cx="1254.1" cy="865.8" r="0.4" fill="white" opacity="0.84"/><circle cx="1408.9" cy="32.0" r="0.7" fill="white" opacity="0.91"/><circle cx="27.6" cy="92.5" r="1.8" fill="white" opacity="0.72"/><circle cx="76.1" cy="590.7" r="0.9" fill="white" opacity="0.52"/><circle cx="366.7" cy="441.5" r="0.9" fill="white" opacity="0.40"/><circle cx="237.6" cy="31.0" r="0.8" fill="white" opacity="0.88"/><circle cx="251.3" cy="68.6" r="1.0" fill="white" opacity="0.51"/><circle cx="222.2" cy="410.7" r="1.0" fill="white" opacity="0.65"/><circle cx="1300.7" cy="31.9" r="0.5" fill="white" opacity="0.95"/><circle cx="467.4" cy="446.9" r="0.4" fill="white" opacity="0.97"/><circle cx="1121.2" cy="899.9" r="1.1" fill="white" opacity="0.35"/><circle cx="1064.0" cy="841.6" r="0.6" fill="white" opacity="0.55"/><circle cx="795.9" cy="466.7" r="0.4" fill="white" opacity="0.38"/><circle cx="546.6" cy="377.7" r="0.6" fill="white" opacity="0.47"/><circle cx="653.4" cy="12.9" r="0.9" fill="white" opacity="0.38"/><circle cx="160.7" cy="657.3" r="0.9" fill="white" opacity="0.54"/><circle cx="645.2" cy="820.2" r="1.1" fill="white" opacity="0.53"/><circle cx="376.2" cy="153.9" r="1.1" fill="white" opacity="0.45"/><circle cx="120.3" cy="333.2" r="1.0" fill="white" opacity="0.94"/><circle cx="373.7" cy="879.5" r="1.1" fill="white" opacity="0.69"/><circle cx="501.8" cy="594.1" r="0.6" fill="white" opacity="0.79"/><circle cx="723.4" cy="121.9" r="1.0" fill="white" opacity="0.89"/><circle cx="1435.8" cy="172.6" r="0.6" fill="white" opacity="0.67"/><circle cx="229.4" cy="500.8" r="1.4" fill="white" opacity="0.91"/><circle cx="106.1" cy="889.8" r="1.0" fill="white" opacity="0.65"/><circle cx="1396.7" cy="54.9" r="1.0" fill="white" opacity="0.44"/><circle cx="5.9" cy="753.7" r="0.7" fill="white" opacity="0.35"/><circle cx="1123.2" cy="372.6" r="0.9" fill="white" opacity="0.45"/><circle cx="1136.4" cy="790.7" r="1.0" fill="white" opacity="0.90"/><circle cx="757.6" cy="362.0" r="0.4" fill="white" opacity="0.69"/><circle cx="389.2" cy="870.7" r="1.0" fill="white" opacity="0.90"/><circle cx="34.8" cy="197.2" r="0.8" fill="white" opacity="0.48"/><circle cx="1351.7" cy="659.9" r="1.0" fill="white" opacity="0.73"/><circle cx="184.1" cy="473.2" r="0.6" fill="white" opacity="0.69"/><circle cx="112.7" cy="362.5" r="0.8" fill="white" opacity="0.78"/><circle cx="1233.9" cy="224.1" r="1.0" fill="white" opacity="0.97"/><circle cx="887.4" cy="198.8" r="0.9" fill="white" opacity="0.83"/><circle cx="26.3" cy="311.3" r="1.1" fill="white" opacity="0.54"/><circle cx="519.6" cy="774.4" r="1.0" fill="white" opacity="0.48"/><circle cx="325.5" cy="576.1" r="0.9" fill="white" opacity="0.88"/><circle cx="638.3" cy="0.7" r="0.4" fill="white" opacity="0.64"/><circle cx="46.8" cy="6.5" r="1.0" fill="white" opacity="0.90"/><circle cx="394.1" cy="606.3" r="2.0" fill="white" opacity="0.81"/><circle cx="842.6" cy="56.1" r="0.9" fill="white" opacity="0.93"/><circle cx="972.3" cy="59.8" r="0.7" fill="white" opacity="0.52"/><circle cx="15.6" cy="339.0" r="1.0" fill="white" opacity="0.40"/><circle cx="1193.6" cy="12.8" r="1.1" fill="white" opacity="0.99"/><circle cx="936.4" cy="245.7" r="0.7" fill="white" opacity="0.57"/><circle cx="786.2" cy="233.9" r="1.1" fill="white" opacity="0.64"/><circle cx="1385.7" cy="730.7" r="0.6" fill="white" opacity="0.41"/><circle cx="345.2" cy="698.7" r="1.1" fill="white" opacity="0.68"/><circle cx="893.5" cy="839.5" r="0.6" fill="white" opacity="0.46"/><circle cx="325.9" cy="647.6" r="0.8" fill="white" opacity="0.80"/><circle cx="51.5" cy="110.6" r="0.7" fill="white" opacity="0.58"/><circle cx="1088.8" cy="839.9" r="0.5" fill="white" opacity="0.89"/><circle cx="1122.4" cy="805.5" r="0.8" fill="white" opacity="0.46"/><circle cx="21.2" cy="52.4" r="0.8" fill="white" opacity="0.56"/><circle cx="364.8" cy="397.7" r="0.8" fill="white" opacity="0.53"/><circle cx="989.8" cy="33.8" r="1.1" fill="white" opacity="0.47"/><circle cx="52.6" cy="144.7" r="0.9" fill="white" opacity="0.86"/><circle cx="1107.7" cy="845.0" r="0.3" fill="white" opacity="0.73"/><circle cx="31.7" cy="385.9" r="0.3" fill="white" opacity="0.72"/><circle cx="797.2" cy="283.8" r="1.6" fill="white" opacity="0.39"/><circle cx="152.1" cy="132.3" r="0.6" fill="white" opacity="0.48"/><circle cx="1167.8" cy="74.4" r="1.0" fill="white" opacity="0.42"/><circle cx="889.1" cy="652.8" r="0.9" fill="white" opacity="0.70"/><circle cx="1148.6" cy="647.3" r="0.3" fill="white" opacity="0.90"/><circle cx="173.1" cy="203.5" r="0.7" fill="white" opacity="0.69"/><circle cx="166.6" cy="643.5" r="0.9" fill="white" opacity="0.37"/><circle cx="935.8" cy="177.7" r="0.9" fill="white" opacity="0.67"/><circle cx="702.2" cy="798.4" r="0.4" fill="white" opacity="0.77"/><circle cx="1157.6" cy="789.0" r="0.5" fill="white" opacity="0.75"/><circle cx="589.7" cy="686.1" r="0.7" fill="white" opacity="0.53"/><circle cx="805.2" cy="7.9" r="1.0" fill="white" opacity="0.39"/><circle cx="1356.2" cy="769.8" r="0.7" fill="white" opacity="0.58"/><circle cx="127.6" cy="56.5" r="0.6" fill="white" opacity="0.86"/><circle cx="413.3" cy="19.2" r="0.8" fill="white" opacity="0.42"/><circle cx="586.3" cy="213.0" r="1.0" fill="white" opacity="0.70"/><circle cx="101.8" cy="105.9" r="0.6" fill="white" opacity="0.75"/><circle cx="1059.6" cy="275.9" r="1.0" fill="white" opacity="0.44"/><circle cx="47.3" cy="17.3" r="1.8" fill="white" opacity="0.40"/><circle cx="237.5" cy="805.7" r="1.0" fill="white" opacity="0.43"/><circle cx="247.2" cy="199.3" r="1.0" fill="white" opacity="0.81"/><circle cx="418.7" cy="472.6" r="0.5" fill="white" opacity="0.94"/><circle cx="717.5" cy="802.6" r="0.8" fill="white" opacity="0.40"/><circle cx="787.2" cy="599.5" r="0.4" fill="white" opacity="0.95"/><circle cx="1159.7" cy="315.9" r="0.4" fill="white" opacity="0.86"/><circle cx="1278.5" cy="731.0" r="0.5" fill="white" opacity="0.86"/><circle cx="1026.5" cy="731.3" r="1.0" fill="white" opacity="0.84"/><circle cx="809.9" cy="399.2" r="0.4" fill="white" opacity="0.98"/><circle cx="1106.2" cy="493.8" r="1.1" fill="white" opacity="0.49"/><circle cx="561.0" cy="344.3" r="0.7" fill="white" opacity="0.96"/><circle cx="369.4" cy="6.4" r="0.9" fill="white" opacity="0.83"/><circle cx="1016.2" cy="243.0" r="0.4" fill="white" opacity="0.45"/><circle cx="595.8" cy="64.5" r="0.6" fill="white" opacity="0.66"/><circle cx="184.2" cy="866.6" r="0.7" fill="white" opacity="0.54"/><circle cx="90.6" cy="172.8" r="0.5" fill="white" opacity="0.45"/><circle cx="1130.9" cy="569.3" r="0.8" fill="white" opacity="0.85"/><circle cx="870.7" cy="266.7" r="0.7" fill="white" opacity="0.73"/><circle cx="379.2" cy="679.2" r="1.0" fill="white" opacity="0.96"/><circle cx="328.9" cy="6.5" r="0.9" fill="white" opacity="0.89"/><circle cx="1141.9" cy="759.5" r="0.4" fill="white" opacity="0.46"/><circle cx="182.9" cy="348.9" r="1.0" fill="white" opacity="0.47"/><circle cx="319.4" cy="890.0" r="0.5" fill="white" opacity="0.75"/><circle cx="884.1" cy="801.7" r="0.6" fill="white" opacity="0.64"/><circle cx="583.5" cy="468.0" r="0.4" fill="white" opacity="0.66"/><circle cx="1405.3" cy="45.6" r="0.8" fill="white" opacity="0.49"/><circle cx="520.1" cy="336.3" r="0.9" fill="white" opacity="0.79"/><circle cx="1024.9" cy="495.7" r="0.5" fill="white" opacity="0.96"/><circle cx="790.0" cy="182.7" r="0.5" fill="white" opacity="0.43"/><circle cx="944.6" cy="400.1" r="0.5" fill="white" opacity="0.49"/><circle cx="797.7" cy="157.8" r="0.6" fill="white" opacity="0.99"/><circle cx="1190.1" cy="64.9" r="0.4" fill="white" opacity="0.74"/><circle cx="1383.7" cy="795.1" r="0.6" fill="white" opacity="0.73"/><circle cx="1338.3" cy="535.7" r="0.3" fill="white" opacity="0.97"/><circle cx="93.8" cy="731.1" r="0.8" fill="white" opacity="0.66"/><circle cx="529.4" cy="777.7" r="1.0" fill="white" opacity="0.67"/><circle cx="512.3" cy="357.7" r="0.7" fill="white" opacity="0.49"/><circle cx="1111.0" cy="559.2" r="0.7" fill="white" opacity="0.59"/><circle cx="747.3" cy="859.1" r="0.5" fill="white" opacity="0.63"/><circle cx="155.9" cy="458.3" r="0.6" fill="white" opacity="0.51"/><circle cx="577.8" cy="315.0" r="1.0" fill="white" opacity="0.42"/><circle cx="865.6" cy="318.1" r="1.0" fill="white" opacity="0.68"/><circle cx="430.9" cy="9.0" r="0.8" fill="white" opacity="0.96"/><circle cx="511.7" cy="893.1" r="0.4" fill="white" opacity="0.68"/><circle cx="603.6" cy="764.5" r="0.4" fill="white" opacity="0.96"/><circle cx="596.0" cy="569.5" r="0.8" fill="white" opacity="0.78"/><circle cx="1437.8" cy="889.3" r="1.1" fill="white" opacity="0.67"/><circle cx="228.3" cy="879.7" r="1.0" fill="white" opacity="0.76"/><circle cx="1159.6" cy="40.2" r="0.6" fill="white" opacity="0.39"/><circle cx="494.5" cy="600.4" r="0.4" fill="white" opacity="0.42"/><circle cx="1153.3" cy="862.8" r="1.0" fill="white" opacity="0.63"/><circle cx="689.0" cy="41.8" r="1.1" fill="white" opacity="0.93"/><circle cx="1078.9" cy="494.7" r="0.6" fill="white" opacity="0.84"/><circle cx="856.7" cy="128.4" r="0.8" fill="white" opacity="0.82"/><circle cx="536.6" cy="639.7" r="0.7" fill="white" opacity="0.60"/><circle cx="508.7" cy="333.5" r="0.9" fill="white" opacity="0.55"/><circle cx="20.8" cy="774.4" r="0.4" fill="white" opacity="0.58"/><circle cx="12.2" cy="864.4" r="0.5" fill="white" opacity="0.91"/><circle cx="136.2" cy="240.2" r="0.3" fill="white" opacity="0.44"/><circle cx="977.3" cy="383.8" r="0.9" fill="white" opacity="0.58"/><circle cx="1341.2" cy="23.0" r="0.4" fill="white" opacity="0.67"/><circle cx="220.8" cy="650.9" r="1.4" fill="white" opacity="0.88"/><circle cx="227.6" cy="897.9" r="0.7" fill="white" opacity="0.57"/><circle cx="1057.1" cy="742.5" r="0.6" fill="white" opacity="0.93"/><circle cx="794.9" cy="431.8" r="0.8" fill="white" opacity="0.99"/><circle cx="272.3" cy="388.9" r="0.5" fill="white" opacity="0.98"/><circle cx="324.4" cy="265.5" r="0.5" fill="white" opacity="0.72"/><circle cx="649.0" cy="481.2" r="2.1" fill="white" opacity="0.73"/><circle cx="1189.0" cy="413.8" r="0.6" fill="white" opacity="0.91"/><circle cx="396.2" cy="93.1" r="0.7" fill="white" opacity="0.87"/><circle cx="595.2" cy="184.6" r="0.7" fill="white" opacity="0.60"/><circle cx="440.1" cy="409.0" r="0.9" fill="white" opacity="0.81"/><circle cx="16.2" cy="869.5" r="0.4" fill="white" opacity="0.84"/><circle cx="780.7" cy="135.2" r="0.9" fill="white" opacity="0.49"/><circle cx="964.4" cy="112.9" r="0.6" fill="white" opacity="0.69"/><circle cx="1053.6" cy="500.5" r="0.7" fill="white" opacity="0.43"/><circle cx="350.8" cy="687.9" r="0.5" fill="white" opacity="0.44"/><circle cx="1187.6" cy="394.9" r="0.8" fill="white" opacity="0.96"/><circle cx="170.6" cy="362.8" r="1.0" fill="white" opacity="0.63"/><circle cx="366.0" cy="603.6" r="0.9" fill="white" opacity="0.40"/><circle cx="983.0" cy="363.2" r="0.8" fill="white" opacity="0.78"/><circle cx="680.0" cy="122.6" r="0.7" fill="white" opacity="0.69"/><circle cx="70.1" cy="846.5" r="0.6" fill="white" opacity="1.00"/><circle cx="810.8" cy="183.6" r="1.1" fill="white" opacity="0.56"/><circle cx="1057.9" cy="58.7" r="1.1" fill="white" opacity="0.96"/><circle cx="1058.6" cy="512.8" r="0.8" fill="white" opacity="0.95"/><circle cx="1374.6" cy="717.2" r="0.9" fill="white" opacity="0.57"/><circle cx="484.4" cy="11.7" r="0.8" fill="white" opacity="0.50"/><circle cx="582.5" cy="84.8" r="0.9" fill="white" opacity="0.68"/><circle cx="57.0" cy="731.8" r="1.0" fill="white" opacity="0.74"/><circle cx="1172.3" cy="622.3" r="0.6" fill="white" opacity="0.90"/><circle cx="726.9" cy="858.5" r="0.9" fill="white" opacity="0.55"/><circle cx="793.7" cy="208.6" r="0.6" fill="white" opacity="0.85"/><circle cx="724.0" cy="284.0" r="0.9" fill="white" opacity="0.98"/><circle cx="1224.9" cy="279.5" r="0.4" fill="white" opacity="0.92"/><circle cx="877.7" cy="379.0" r="1.0" fill="white" opacity="0.49"/><circle cx="1076.7" cy="370.0" r="0.5" fill="white" opacity="0.48"/><circle cx="393.7" cy="476.4" r="0.5" fill="white" opacity="0.60"/><circle cx="865.0" cy="271.0" r="0.5" fill="white" opacity="0.44"/><circle cx="547.9" cy="530.8" r="0.6" fill="white" opacity="0.73"/><circle cx="870.2" cy="282.5" r="0.5" fill="white" opacity="0.72"/><circle cx="1376.3" cy="743.8" r="0.3" fill="white" opacity="0.93"/><circle cx="829.7" cy="317.5" r="0.6" fill="white" opacity="0.89"/><circle cx="1147.7" cy="459.0" r="1.5" fill="white" opacity="0.66"/><circle cx="821.2" cy="687.6" r="0.9" fill="white" opacity="0.77"/><circle cx="1051.9" cy="720.6" r="2.1" fill="white" opacity="0.61"/><circle cx="34.4" cy="150.1" r="0.5" fill="white" opacity="0.78"/><circle cx="959.5" cy="889.9" r="0.5" fill="white" opacity="0.88"/><circle cx="400.5" cy="363.3" r="1.0" fill="white" opacity="0.43"/><circle cx="884.2" cy="892.7" r="1.9" fill="white" opacity="0.73"/><circle cx="270.0" cy="667.2" r="1.5" fill="white" opacity="0.67"/><circle cx="615.7" cy="196.5" r="0.5" fill="white" opacity="0.97"/><circle cx="1364.1" cy="546.5" r="0.6" fill="white" opacity="0.95"/><circle cx="128.6" cy="592.6" r="0.8" fill="white" opacity="0.87"/><circle cx="1247.5" cy="138.3" r="0.6" fill="white" opacity="1.00"/><circle cx="111.0" cy="17.2" r="0.9" fill="white" opacity="0.88"/><circle cx="943.4" cy="596.7" r="0.8" fill="white" opacity="0.88"/><circle cx="61.4" cy="24.4" r="0.9" fill="white" opacity="0.63"/>
  <!-- glow alone around planet -->
  <ellipse cx="-60" cy="980" rx="520" ry="520" fill="url(#glow)"/>
  <!-- planet -->
  <circle cx="-60" cy="980" r="420" fill="url(#planet)"/>
  <!-- ring -->
  <ellipse cx="-60" cy="960" rx="560" ry="80" fill="none" stroke="#f59e0b" stroke-width="6" opacity="0.35"/>
  <ellipse cx="-60" cy="960" rx="500" ry="65" fill="none" stroke="#f59e0b" stroke-width="3" opacity="0.2"/>
  <!-- atmosphere rim -->
  <circle cx="-60" cy="980" r="420" fill="none" stroke="#60a5fa" stroke-width="18" opacity="0.15"/>
</svg>