<svg xmlns="http://www.w3.org/2000/svg" viewBox="0 0 1440 900" preserveAspectRatio="xMidYMid slice">
  <defs>
    <radialGradient id="bg" cx="30%" cy="70%" r="80%">
      <stop offset="0%" stop-color="#0a1a3c"/>
      <stop offset="60%" stop-color="#040d1e"/>
      <stop offset="100%" stop-color="#020509"/>
    </radialGradient>
    <radialGradient id="nb1" cx="50%" cy="50%" r="50%">
      <stop offset="0%" stop-color="#1d4ed8" stop-opacity="0.18"/>
      <stop offset="100%" stop-color="#1d4ed8" stop-opacity="0"/>
    </radialGradient>
    <radialGradient id="nb2" cx="50%" cy="50%" r="50%">
      <stop offset="0%" stop-color="#f59e0b" stop-opacity="0.09"/>
      <stop offset="100%" stop-color="#f59e0b" stop-opacity="0"/>
    </radialGradient>
  </defs>
  <rect width="1440" height="900" fill="url(#bg)"/>
  <ellipse cx="900" cy="700" rx="600" ry="350" fill="url(#nb1)"/>
  <ellipse cx="300" cy="200" rx="350" ry="250" fill="url(#nb2)"/>
  <circle cx="774.7" cy="287.5" r="1.9" fill="white" opacity="0.96"/><circle cx="1340.4" cy="289.5" r="0.5" fill="white" opacity="0.74"/><circle cx="742.6" cy="250.0" r="0.7" fill="white" opacity="0.87"/><circle cx="1300.8" cy="295.5" r="0.8" fill="white" opacity="0.60"/><circle cx="646.4" cy="570.7" r="0.8" fill="white" opacity="0.85"/><circle cx="146.3" cy="780.0" r="0.4" fill="white" opacity="0.46"/><circle cx="602.1" cy="760.4" r="0.7" fill="white" opacity="0.63"/><circle cx="883.5" cy="305.2" r="0.8" fill="white" opacity="0.89"/><circle cx="896.3" cy="636.9" r="0.5" fill="white" opacity="0.86"/><circle cx="1344.4" cy="443.7" r="0.6" fill="white" opacity="0.83"/><circle cx="1142.7" cy="88.8" r="1.0" fill="white" opacity="0.55"/><circle cx="672.0" cy="687.6" r="0.8" fill="white" opacity="0.77"/><circle cx="1159.7" cy="536.6" r="0.4" fill="white" opacity="0.86"/><circle cx="210.5" cy="285.8" r="0.6" fill="white" opacity="0.77"/><circle cx="352.6" cy="540.9" r="0.5" fill="white" opacity="0.91"/><circle cx="1423.8" cy="392.7" r="0.9" fill="white" opacity="0.78"/><circle cx="465.6" cy="611.3" r="1.0" fill="white" opacity="0.70"/><circle cx="151.2" cy="691.4" r="0.9" fill="white" opacity="0.89"/><circle cx="520.5" cy="83.6" r="0.4" fill="white" opacity="0.79"/><circle cx="1324.2" cy="524.4" r="0.7" fill="white" opacity="0.38"/><circle cx="544.4" cy="780.8" r="1.0" fill="white" opacity="0.73"/><circle cx="1348.7" cy="864.3" r="0.3" fill="white" opacity="0.53"/><circle cx="1273.1" cy="725.3" r="0.9" fill="white" opacity="0.50"/><circle cx="674.3" cy="899.5" r="0.6" fill="white" opacity="0.80"/><circle cx="1022.9" cy="71.6" r="0.7" fill="white" opacity="0.88"/><circle cx="352.3" cy="449.2" r="0.3" fill="white" opacity="0.40"/><circle cx="349.1" cy="85.6" r="1.1" fill="white" opacity="0.57"/><circle cx="705.9" cy="609.3" r="0.7" fill="white" opacity="0.42"/><circle cx="0.8" cy="868.8" r="0.5" fill="white" opacity="0.56"/><circle cx="1390.8" cy="93.6" r="0.5" fill="white" opacity="0.99"/><circle cx="1170.8" cy="172.4" r="1.1" fill="white" opacity="0.51"/><circle cx="550.0" cy="344.0" r="0.6" fill="white" opacity="0.93"/><circle cx="654.8" cy="442.9" r="0.8" fill="white" opacity="0.45"/><circle cx="339.2" cy="104.5" r="1.1" fill="white" opacity="0.44"/><circle cx="717.4" cy="777.2" r="0.7" fill="white" opacity="0.57"/><circle cx="506.1" cy="438.0" r="1.1" fill="white" opacity="0.94"/><circle cx="1369.5" cy="514.2" r="0.7" fill="white" opacity="0.93"/><circle cx="736.1" cy="727.3" r="0.6" fill="white" opacity="0.72"/><circle cx="1043.4" cy="555.1" r="1.1" fill="white" opacity="0.45"/><circle cx="1061.7" cy="780.5" r="0.8" fill="white" opacity="0.44"/><circle cx="344.7" cy="744.8" r="0.3" fill="white" opacity="0.65"/><circle cx="1286.7" cy="257.4" r="0.3" fill="white" opacity="0.93"/><circle cx="1291.4" cy="46.8" r="0.5" fill="white" opacity="0.70"/><circle cx="386.4" cy="91.5" r="0.8" fill="white" opacity="0.63"/><circle cx="419.1" cy="58.1" r="1.5" fill="white" opacity="0.63"/><circle cx="1120.8" cy="587.6" r="0.8" fill="white" opacity="0.83"/><circle cx="767.5" cy="883.6" r="2.2" fill="white" opacity="0.44"/><circle cx="1375.0" cy="626.4" r="0.8" fill="white" opacity="0.43"/><circle cx="1377.4" cy="569.2" r="0.7" fill="white" opacity="0.89"/><circle cx="256.9" cy="518.5" r="1.8" fill="white" opacity="0.60"/><circle cx="188.4" cy="291.9" r="0.8" fill="white" opacity="0.61"/><circle cx="627.2" cy="526.4" r="0.9" fill="white" opacity="0.98"/><circle cx="769.0" cy="667.2" r="0.7" fill="white" opacity="0.83"/><circle cx="1435.6" cy="327.7" r="0.4" fill="white" opacity="0.52"/><circle cx="307.5" cy="217.3" r="1.1" fill="white" opacity="0.45"/><circle cx="851.0" cy="539.0" r="0.3" fill="white" opacity="0.90"/><circle cx="1253.5" cy="427.2" r="0.8" fill="white" opacity="0.71"/><circle cx="411.2" cy="698.9" r="0.5" fill="white" opacity="0.71"/><circle cx="9.8" cy="363.4" r="0.8" fill="white" opacity="0.94"/><circle cx="964.1" cy="116.8" r="0.9" fill="white" opacity="0.50"/><circle cx="300.6" cy="168.4" r="0.5" fill="white" opacity="0.95"/><circle cx="1400.8" cy="886.5" r="1.5" fill="white" opacity="0.88"/><circle cx="676.3" cy="175.2" r="1.1" fill="white" opacity="0.91"/><circle cx="512.8" cy="733.4" r="1.0" fill="white" opacity="0.41"/><circle cx="389.9" cy="380.3" r="1.0" fill="white" opacity="0.51"/><circle cx="828.8" cy="8.7" r="0.5" fill="white" opacity="0.76"/><circle cx="619.6" cy="118.6" r="0.9" fill="white" opacity="0.46"/><circle cx="1416.3" cy="725.5" r="0.8" fill="white" opacity="0.68"/><circle cx="869.1" cy="484.0" r="0.9" fill="white" opacity="0.53"/><circle cx="1120.6" cy="512.2" r="0.8" fill="white" opacity="0.73"/><circle cx="857.9" cy="296.6" r="0.4" fill="white" opacity="0.66"/><circle cx="254.6" cy="115.7" r="0.5" fill="white" opacity="0.50"/><circle cx="1352.9" cy="90.6" r="0.6" fill="white" opacity="0.51"/><circle cx="955.8" cy="639.9" r="0.4" fill="white" opacity="0.89"/><circle cx="832.2" cy="383.1" r="0.8" fill="white" opacity="0.66"/><circle cx="187.7" cy="373.4" r="1.1" fill="white" opacity="0.77"/><circle cx="1423.5" cy="670.8" r="0.3" fill="white" opacity="0.43"/><circle cx="883.9" cy="428.2" r="0.6" fill="white" opacity="0.83"/><circle cx="664.9" cy="827.3" r="0.5" fill="white" opacity="0.63"/><circle cx="182.4" cy="444.6" r="0.9" fill="white" opacity="0.65"/><circle cx="19.2" cy="123.7" r="1.0" fill="white" opacity="0.94"/><circle cx="1111.8" cy="523.6" r="0.7" fill="white" opacity="0.42"/><circle cx="983.0" cy="762.3" r="0.9" fill="white" opacity="0.60"/><circle cx="405.2" cy="615.9" r="0.6" fill="white" opacity="0.64"/><circle cx="863.6" cy="454.4" r="0.6" fill="white" opacity="0.41"/><circle cx="495.7" cy="157.5" r="0.8" fill="white" opacity="0.85"/><circle cx="793.4" cy="753.9" r="0.7" fill="white" opacity="0.37"/><circle cx="969.0" cy="347.0" r="0.8" fill="white" opacity="0.96"/><circle cx="328.4" cy="708.4" r="0.7" fill="white" opacity="0.60"/><circle cx="360.6" cy="774.0" r="0.3" fill="white" opacity="0.42"/><circle cx="838.4" cy="305.6" r="0.9" fill="white" opacity="0.86"/><circle cx="1430.9" cy="551.3" r="0.9" fill="white" opacity="0.65"/><circle cx="9.7" cy="644.7" r="0.8" fill="white" opacity="0.86"/><circle cx="347.9" cy="592.7" r="0.9" fill="white" opacity="0.49"/><circle cx="441.8" cy="427.4" r="1.0" fill="white" opacity="0.87"/><circle cx="917.0" cy="401.5" r="0.5" fill="white" opacity="0.38"/><circle cx="1059.2" cy="432.2" r="0.6" fill="white" opacity="0.42"/><circle cx="938.8" cy="498.3" r="0.8" fill="white" opacity="0.42"/><circle cx="5.9" cy="443.4" r="0.8" fill="white" opacity="0.85"/><circle cx="382.8" cy="614.6" r="0.5" fill="white" opacity="0.80"/><circle cx="695.9" cy="352.0" r="0.5" fill="white" opacity="0.76"/><circle cx="658.2" cy="412.1" r="0.6" fill="white" opacity="0.56"/><circle cx="637.5" cy="770.7" r="0.4" fill="white" opacity="0.95"/><circle cx="278.2" cy="533.0" r="0.4" fill="white" opacity="0.79"/><circle cx="1340.9" cy="110.6" r="0.8" fill="white" opacity="0.50"/><circle cx="99.4" cy="286.8" r="0.6" fill="white" opacity="0.59"/><circle cx="1149.1" cy="430.0" r="0.3" fill="white" opacity="0.96"/><circle cx="370.3" cy="652.1" r="0.8" fill="white" opacity="0.84"/><circle cx="733.6" cy="628.4" r="0.7" fill="white" opacity="0.59"/><circle cx="636.6" cy="44.5" r="0.9" fill="white" opacity="0.92"/><circle cx="100.6" cy="886.1" r="1.5" fill="white" opacity="0.94"/><circle cx="851.2" cy="66.1" r="0.7" fill="white" opacity="0.88"/><circle cx="1406.2" cy="750.6" r="0.9" fill="white" opacity="0.45"/><circle cx="142.8" cy="879.2" r="1.6" fill="white" opacity="0.36"/><circle cx="1075.7" cy="798.4" r="0.7" fill="white" opacity="0.70"/><circle cx="675.1" cy="372.4" r="0.5" fill="white" opacity="0.91"/><circle cx="654.6" cy="633.4" r="0.4" fill="white" opacity="0.84"/><circle cx="1326.3" cy="676.8" r="0.4" fill="white" opacity="0.95"/><circle cx="161.4" cy="840.4" r="1.0" fill="white" opacity="0.60"/><circle cx="255.9" cy="402.4" r="1.0" fill="white" opacity="0.94"/><circle cx="161.3" cy="135.8" r="1.7" fill="white" opacity="0.59"/><circle cx="1223.8" cy="796.3" r="0.7" fill="white" opacity="0.39"/><circle cx="961.2" cy="629.6" r="1.0" fill="white" opacity="0.61"/><circle cx="89.7" cy="881.0" r="0.5" fill="white" opacity="0.80"/><circle cx="860.0" cy="715.4" r="0.6" fill="white" opacity="0.45"/><circle cx="1013.3" cy="332.7" r="0.8" fill="white" opacity="0.80"/><circle cx="1134.2" cy="309.7" r="0.4" fill="white" opacity="0.58"/><circle cx="452.0" cy="35.9" r="0.9" fill="white" opacity="0.97"/><circle cx="803.0" cy="724.4" r="0.7" fill="white" opacity="0.86"/><circle cx="163.3" cy="644.9" r="1.0" fill="white" opacity="0.40"/><circle cx="899.3" cy="168.3" r="0.6" fill="white" opacity="0.51"/><circle cx="801.4" cy="668.7" r="0.5" fill="white" opacity="0.72"/><circle cx="722.7" cy="500.3" r="1.1" fill="white" opacity="0.97"/><circle cx="403.2" cy="822.0" r="0.4" fill="white" opacity="0.65"/><circle cx="1105.0" cy="633.1" r="0.8" fill="white" opacity="0.76"/><circle cx="335.2" cy="365.0" r="0.3" fill="white" opacity="0.87"/><circle cx="735.0" cy="716.8" r="0.5" fill="white" opacity="0.36"/><circle cx="305.6" cy="431.2" r="1.8" fill="white" opacity="0.59"/><circle cx="1124.0" cy="741.6" r="0.7" fill="white" opacity="0.41"/><circle cx="740.9" cy="364.6" r="0.7" fill="white" opacity="0.79"/><circle cx="1201.5" cy="390.1" r="1.0" fill="white" opacity="0.56"/><circle cx="69.7" cy="892.1" r="0.6" fill="white" opacity="0.95"/><circle cx="849.8" cy="126.4" r="0.7" fill="white" opacity="0.59"/><circle cx="452.8" cy="364.9" r="1.1" fill="white" opacity="0.41"/><circle cx="506.1" cy="86.3" r="1.5" fill="white" opacity="0.53"/><circle cx="1235.6" cy="887.9" r="0.7" fill="white" opacity="0.44"/><circle cx="530.5" cy="813.7" r="0.5" fill="white" opacity="0.55"/><circle cx="1217.6" cy="396.4" r="0.9" fill="white" opacity="0.91"/><circle cx="273.3" cy="853.1" r="0.6" fill="white" opacity="0.75"/><circle cx="1429.5" cy="47.0" r="0.8" fill="white" opacity="0.44"/><circle cx="1250.2" cy="486.6" r="0.5" fill="white" opacity="0.88"/><circle cx="966.9" cy="131.5" r="0.8" fill="white" opacity="0.93"/><circle cx="1167.4" cy="27.1" r="0.5" fill="white" opacity="0.67"/><circle cx="1155.2" cy="389.7" r="1.0" fill="white" opacity="0.94"/><circle cx="684.7" cy="124.3" r="0.9" fill="white" opacity="0.86"/><circle cx="265.7" cy="96.7" r="0.5" fill="white" opacity="0.40"/><circle cx="182.8" cy="483.4" r="1.6" fill="white" opacity="0.61"/><circle cx="751.7" cy="21.5" r="0.3" fill="white" opacity="0.58"/><circle cx="1411.4" cy="250.2" r="2.0" fill="white" opacity="0.73"/><circle cx="67.5" cy="475.6" r="0.8" fill="white" opacity="0.42"/><circle cx="729.7" cy="548.6" r="0.3" fill="white" opacity="0.77"/><circle cx="161.7" cy="664.8" r="0.9" fill="white" opacity="0.53"/><circle cx="1210.9" cy="604.5" r="0.7" fill="white" opacity="0.78"/><circle cx="1139.7" cy="805.4" r="0.5" fill="white" opacity="0.65"/><circle cx="366.3" cy="694.6" r="0.4" fill="white" opacity="0.75"/><circle cx="243.1" cy="406.9" r="0.9" fill="white" opacity="0.47"/><circle cx="308.7" cy="889.3" r="1.9" fill="white" opacity="0.69"/><circle cx="1177.9" cy="786.8" r="0.7" fill="white" opacity="0.38"/><circle cx="1104.8" cy="258.1" r="0.5" fill="white" opacity="0.63"/><circle cx="380.6" cy="120.2" r="0.8" fill="white" opacity="0.47"/><circle cx="234.5" cy="764.7" r="1.0" fill="white" opacity="0.58"/><circle cx="815.4" cy="700.8" r="0.7" fill="white" opacity="0.81"/><circle cx="613.5" cy="532.1" r="0.6" fill="white" opacity="0.44"/><circle cx="1175.7" cy="217.2" r="1.1" fill="white" opacity="0.79"/><circle cx="570.2" cy="790.0" r="0.8" fill="white" opacity="0.52"/><circle cx="1012.8" cy="511.0" r="0.8" fill="white" opacity="0.58"/><circle cx="918.0" cy="674.1" r="0.9" fill="white" opacity="0.62"/><circle cx="493.4" cy="133.5" r="1.0" fill="white" opacity="0.65"/><circle cx="1172.3" cy="15.3" r="0.8" fill="white" opacity="0.50"/><circle cx="584.0" cy="111.3" r="0.9" fill="white" opacity="0.35"/><circle cx="458.9" cy="721.6" r="0.8" fill="white" opacity="0.66"/><circle cx="1294.5" cy="595.3" r="0.4" fill="white" opacity="0.58"/><circle cx="504.7" cy="410.8" r="0.4" fill="white" opacity="0.80"/><circle cx="501.4" cy="387.4" r="1.1" fill="white" opacity="0.75"/><circle cx="966.7" cy="207.1" r="0.3" fill="white" opacity="0.59"/><circle cx="160.7" cy="785.8" r="0.3" fill="white" opacity="0.45"/><circle cx="1384.6" cy="391.5" r="0.7" fill="white" opacity="0.86"/><circle cx="358.4" cy="8.2" r="0.8" fill="white" opacity="0.94"/><circle cx="651.2" cy="382.7" r="0.4" fill="white" opacity="0.77"/><circle cx="12.6" cy="248.5" r="0.8" fill="white" opacity="0.63"/><circle cx="889.3" cy="20.5" r="1.0" fill="white" opacity="0.93"/><circle cx="665.6" cy="349.8" r="0.8" fill="white" opacity="0.87"/><circle cx="881.7" cy="121.8" r="0.7" fill="white" opacity="0.40"/><circle cx="1230.6" cy="826.2" r="1.0" fill="white" opacity="0.55"/><circle cx="502.3" cy="142.0" r="1.0" fill="white" opacity="0.64"/><circle cx="1356.5" cy="616.3" r="0.4" fill="white" opacity="0.54"/><circle cx="1078.7" cy="408.1" r="0.3" fill="white" opacity="0.37"/><circle cx="1354.0" cy="421.1" r="0.7" fill="white" opacity="0.88"/><circle cx="303.0" cy="173.0" r="0.5" fill="white" opacity="0.52"/><circle cx="1262.0" cy="878.8" r="0.6" fill="white" opacity="0.68"/><circle cx="659.9" cy="521.2" r="0.6" fill="white" opacity="0.58"/><circle cx="260.8" cy="528.5" r="0.8" fill="white" opacity="0.43"/><circle cx="962.7" cy="898.5" r="0.7" fill="white" opacity="0.86"/><circle cx="604.2" cy="737.2" r="0.8" fill="white" opacity="0.56"/><circle cx="567.2" cy="485.5" r="0.5" fill="white" opacity="0.49"/><circle cx="988.2" cy="713.7" r="0.7" fill="white" opacity="0.52"/><circle cx="399.8" cy="234.4" r="0.9" fill="white" opacity="0.69"/><circle cx="2.1" cy="90.5" r="0.4" fill="white" opacity="0.68"/><circle cx="425.8" cy="177.9" r="0.5" fill="white" opacity="0.50"/><circle cx="358.1" cy="448.5" r="0.7" fill="white" opacity="0.73"/><circle cx="1024.1" cy="458.0" r="0.7" fill="white" opacity="0.76"/><circle cx="830.6" cy="405.2" r="0.4" fill="white" opacity="0.65"/><circle cx="529.5" cy="792.8" r="0.8" fill="white" opacity="0.45"/><circle cx="874.5" cy="410.1" r="0.7" fill="white" opacity="0.49"/><circle cx="1252.5" cy="209.6" r="0.6" fill="white" opacity="0.84"/><circle cx="1201.2" cy="622.3" r="1.1" fill="white" opacity="0.98"/><circle cx="943.5" cy="748.0" r="0.9" fill="white" opacity="0.72"/><circle cx="307.0" cy="554.2" r="0.4" fill="white" opacity="1.00"/><circle cx="390.3" cy="889.8" r="0.7" fill="white" opacity="0.70"/><circle cx="1374.3" cy="125.8" r="0.7" fill="white" opacity="0.86"/>
</svg>