<svg xmlns="http://www.w3.org/2000/svg" viewBox="0 0 1440 900" preserveAspectRatio="xMidYMid slice">
  <defs>
    <radialGradient id="bg" cx="50%" cy="50%" r="70%">
      <stop offset="0%" stop-color="#050a1a"/>
      <stop offset="100%" stop-color="#010306"/>
    </radialGradient>
    <linearGradient id="mw" x1="0%" y1="0%" x2="100%" y2="100%">
      <stop offset="0%" stop-color="#1d4ed8" stop-opacity="0"/>
      <stop offset="35%" stop-color="#1d4ed8" stop-opacity="0.12"/>
      <stop offset="50%" stop-color="#fffbe6" stop-opacity="0.06"/>
      <stop offset="65%" stop-color="#1d4ed8" stop-opacity="0.10"/>
      <stop offset="100%" stop-color="#1d4ed8" stop-opacity="0"/>
    </linearGradient>
  </defs>
  <rect width="1440" height="900" fill="url(#bg)"/>
  <rect width="1440" height="900" fill="url(#mw)"/>
  <circle cx="446.1" cy="566.8" r="0.7" fill="white" opacity="0.87"/><circle cx="416.9" cy="246.4" r="0.5" fill="white" opacity="0.38"/><circle cx="1180.6" cy="399.8" r="0.5" fill="white" opacity="0.70"/><circle cx="1195.1" cy="683.2" r="1.0" fill="white" opacity="0.49"/><circle cx="465.5" cy="134.1" r="0.6" fill="white" opacity="0.53"/><circle cx="1406.8" cy="718.9" r="0.9" fill="white" opacity="0.47"/><circle cx="28.1" cy="362.6" r="0.7" fill="white" opacity="0.84"/><circle cx="1115.2" cy="707.1" r="1.0" fill="white" opacity="0.53"/><circle cx="1004.3" cy="206.1" r="1.0" fill="white" opacity="0.45"/><circle cx="944.4" cy="631.5" r="0.5" fill="white" opacity="0.89"/><circle cx="147.9" cy="307.9" r="1.0" fill="white" opacity="0.97"/><circle cx="1058.4" cy="169.9" r="0.6" fill="white" opacity="0.89"/><circle cx="307.8" cy="215.3" r="0.8" fill="white" opacity="0.61"/><circle cx="372.5" cy="159.8" r="0.8" fill="white" opacity="0.38"/><circle cx="1109.5" cy="373.3" r="0.8" fill="white" opacity="0.89"/><circle cx="878.7" cy="274.0" r="0.8" fill="white" opacity="0.61"/><circle cx="704.3" cy="138.3" r="1.0" fill="white" opacity="1.00"/><circle cx="1287.2" cy="413.3" r="1.1" fill="white" opacity="0.73"/><circle cx="479.2" cy="821.9" r="0.5" fill="white" opacity="0.69"/><circle cx="1001.3" cy="772.1" r="0.8" fill="white" opacity="0.55"/><circle cx="356.0" cy="558.7" r="0.3" fill="white" opacity="0.86"/><circle cx="1144.6" cy="274.5" r="1.1" fill="white" opacity="0.68"/><circle cx="745.2" cy="458.0" r="0.7" fill="white" opacity="0.45"/><circle cx="845.0" cy="503.2" r="1.0" fill="white" opacity="0.43"/><circle cx="658.8" cy="256.8" r="0.6" fill="white" opacity="0.95"/><circle cx="1331.5" cy="614.4" r="1.0" fill="white" opacity="0.37"/><circle cx="350.8" cy="256.0" r="0.5" fill="white" opacity="0.53"/><circle cx="292.1" cy="336.3" r="0.9" fill="white" opacity="0.43"/><circle cx="886.8" cy="157.0" r="1.0" fill="white" opacity="0.64"/><circle cx="731.4" cy="862.4" r="0.6" fill="white" opacity="0.50"/><circle cx="554.7" cy="233.9" r="0.6" fill="white" opacity="0.49"/><circle cx="751.4" cy="608.4" r="1.0" fill="white" opacity="0.49"/><circle cx="389.7" cy="532.9" r="0.4" fill="white" opacity="0.79"/><circle cx="275.1" cy="214.5" r="0.9" fill="white" opacity="0.78"/><circle cx="1384.7" cy="232.8" r="1.0" fill="white" opacity="1.00"/><circle cx="1067.4" cy="561.8" r="0.5" fill="white" opacity="0.38"/><circle cx="335.7" cy="3.0" r="0.5" fill="white" opacity="0.70"/><circle cx="559.7" cy="137.9" r="0.4" fill="white" opacity="0.56"/><circle cx="1195.8" cy="390.8" r="1.0" fill="white" opacity="0.94"/><circle cx="92.5" cy="30.4" r="0.3" fill="white" opacity="0.80"/><circle cx="531.6" cy="605.5" r="0.8" fill="white" opacity="0.97"/><circle cx="1113.8" cy="43.0" r="0.4" fill="white" opacity="0.98"/><circle cx="138.3" cy="629.2" r="0.9" fill="white" opacity="0.64"/><circle cx="410.5" cy="623.2" r="0.4" fill="white" opacity="0.57"/><circle cx="149.7" cy="326.1" r="0.9" fill="white" opacity="0.48"/><circle cx="918.7" cy="164.4" r="0.8" fill="white" opacity="0.38"/><circle cx="283.2" cy="658.5" r="0.7" fill="white" opacity="0.88"/><circle cx="678.3" cy="80.1" r="0.5" fill="white" opacity="0.37"/><circle cx="547.8" cy="518.4" r="0.6" fill="white" opacity="0.95"/><circle cx="1119.8" cy="649.2" r="0.7" fill="white" opacity="0.53"/><circle cx="505.7" cy="866.0" r="0.7" fill="white" opacity="0.89"/><circle cx="1327.3" cy="32.7" r="0.8" fill="white" opacity="0.95"/><circle cx="108.7" cy="716.1" r="0.5" fill="white" opacity="0.65"/><circle cx="583.6" cy="833.1" r="0.5" fill="white" opacity="0.50"/><circle cx="1332.5" cy="206.8" r="0.6" fill="white" opacity="0.92"/><circle cx="479.0" cy="507.1" r="0.6" fill="white" opacity="0.46"/><circle cx="364.6" cy="529.5" r="0.7" fill="white" opacity="0.44"/><circle cx="356.6" cy="324.3" r="0.8" fill="white" opacity="0.52"/><circle cx="1432.3" cy="855.3" r="0.8" fill="white" opacity="0.66"/><circle cx="1306.0" cy="883.7" r="1.1" fill="white" opacity="0.96"/><circle cx="11.8" cy="398.6" r="0.7" fill="white" opacity="0.35"/><circle cx="863.6" cy="572.6" r="0.7" fill="white" opacity="0.94"/><circle cx="598.3" cy="758.5" r="1.1" fill="white" opacity="0.97"/><circle cx="56.7" cy="363.6" r="0.8" fill="white" opacity="0.85"/><circle cx="383.7" cy="360.3" r="0.9" fill="white" opacity="0.41"/><circle cx="1166.2" cy="587.6" r="0.3" fill="white" opacity="1.00"/><circle cx="933.0" cy="828.9" r="0.5" fill="white" opacity="0.99"/><circle cx="101.9" cy="484.7" r="2.1" fill="white" opacity="0.50"/><circle cx="645.7" cy="105.8" r="0.3" fill="white" opacity="0.67"/><circle cx="1074.6" cy="546.4" r="0.4" fill="white" opacity="0.85"/><circle cx="1437.7" cy="256.7" r="0.4" fill="white" opacity="0.59"/><circle cx="580.9" cy="93.0" r="0.6" fill="white" opacity="0.77"/><circle cx="1031.9" cy="285.2" r="0.9" fill="white" opacity="0.62"/><circle cx="1362.2" cy="119.9" r="0.5" fill="white" opacity="0.83"/><circle cx="1245.7" cy="112.0" r="0.9" fill="white" opacity="0.51"/><circle cx="534.9" cy="701.2" r="1.0" fill="white" opacity="0.40"/><circle cx="1014.0" cy="760.3" r="0.4" fill="white" opacity="0.72"/><circle cx="569.2" cy="478.5" r="0.5" fill="white" opacity="0.95"/><circle cx="1185.1" cy="519.6" r="0.3" fill="white" opacity="0.95"/><circle cx="49.4" cy="508.8" r="0.6" fill="white" opacity="0.74"/><circle cx="1058.2" cy="525.1" r="0.3" fill="white" opacity="0.64"/><circle cx="683.5" cy="565.6" r="0.7" fill="white" opacity="0.74"/><circle cx="269.5" cy="402.3" r="0.4" fill="white" opacity="0.55"/><circle cx="172.2" cy="71.6" r="0.5" fill="white" opacity="0.76"/><circle cx="758.8" cy="367.6" r="0.7" fill="white" opacity="0.59"/><circle cx="453.2" cy="660.6" r="0.7" fill="white" opacity="0.90"/><circle cx="1164.2" cy="562.0" r="1.1" fill="white" opacity="0.96"/><circle cx="396.1" cy="311.5" r="0.9" fill="white" opacity="0.85"/><circle cx="470.6" cy="689.3" r="1.0" fill="white" opacity="0.94"/><circle cx="512.1" cy="660.7" r="0.8" fill="white" opacity="0.98"/><circle cx="237.9" cy="39.6" r="0.7" fill="white" opacity="0.78"/><circle cx="517.1" cy="625.2" r="1.6" fill="white" opacity="0.61"/><circle cx="75.3" cy="401.2" r="0.9" fill="white" opacity="0.38"/><circle cx="479.9" cy="335.5" r="0.5" fill="white" opacity="0.46"/><circle cx="1227.1" cy="122.0" r="1.7" fill="white" opacity="0.95"/><circle cx="1153.4" cy="799.6" r="0.5" fill="white" opacity="0.73"/><circle cx="1142.1" cy="313.1" r="0.9" fill="white" opacity="0.48"/><circle cx="872.9" cy="860.5" r="0.9" fill="white" opacity="0.39"/><circle cx="916.6" cy="755.6" r="0.6" fill="white" opacity="0.64"/><circle cx="211.5" cy="268.4" r="0.6" fill="white" opacity="0.72"/><circle cx="1204.4" cy="366.1" r="0.5" fill="white" opacity="0.85"/><circle cx="809.2" cy="340.2" r="0.5" fill="white" opacity="0.91"/><circle cx="677.9" cy="468.1" r="0.8" fill="white" opacity="0.40"/><circle cx="424.5" cy="375.1" r="0.6" fill="white" opacity="0.44"/><circle cx="664.0" cy="510.6" r="0.5" fill="white" opacity="0.65"/><circle cx="1379.4" cy="510.4" r="0.8" fill="white" opacity="0.61"/><circle cx="577.4" cy="660.9" r="0.3" fill="white" opacity="0.68"/><circle cx="1153.9" cy="290.3" r="0.6" fill="white" opacity="0.96"/><circle cx="1047.3" cy="323.5" r="0.7" fill="white" opacity="0.76"/><circle cx="905.5" cy="361.3" r="0.7" fill="white" opacity="0.49"/><circle cx="747.1" cy="67.2" r="0.9" fill="white" opacity="0.54"/><circle cx="1029.7" cy="128.4" r="0.9" fill="white" opacity="0.67"/><circle cx="604.2" cy="841.9" r="0.7" fill="white" opacity="0.68"/><circle cx="346.4" cy="766.4" r="0.5" fill="white" opacity="0.60"/><circle cx="1189.3" cy="336.3" r="0.6" fill="white" opacity="0.67"/><circle cx="1054.0" cy="26.1" r="1.0" fill="white" opacity="0.87"/><circle cx="699.6" cy="572.1" r="1.0" fill="white" opacity="0.68"/><circle cx="1186.8" cy="655.9" r="0.9" fill="white" opacity="0.51"/><circle cx="1409.2" cy="27.4" r="0.8" fill="white" opacity="0.93"/><circle cx="233.3" cy="517.3" r="1.1" fill="white" opacity="0.76"/><circle cx="28.2" cy="379.4" r="0.8" fill="white" opacity="0.72"/><circle cx="1405.9" cy="98.0" r="0.6" fill="white" opacity="0.45"/><circle cx="1048.4" cy="317.1" r="0.6" fill="white" opacity="0.71"/><circle cx="676.6" cy="669.0" r="1.7" fill="white" opacity="0.35"/><circle cx="315.9" cy="366.3" r="1.0" fill="white" opacity="0.51"/><circle cx="1265.6" cy="759.3" r="0.9" fill="white" opacity="0.55"/><circle cx="231.5" cy="468.6" r="0.3" fill="white" opacity="0.49"/><circle cx="135.5" cy="263.9" r="0.7" fill="white" opacity="0.49"/><circle cx="1231.5" cy="767.2" r="1.0" fill="white" opacity="0.71"/><circle cx="1209.3" cy="163.9" r="0.8" fill="white" opacity="0.79"/><circle cx="764.6" cy="502.8" r="0.4" fill="white" opacity="0.40"/><circle cx="647.0" cy="663.0" r="0.5" fill="white" opacity="0.98"/><circle cx="226.3" cy="897.5" r="0.5" fill="white" opacity="0.64"/><circle cx="2.3" cy="365.9" r="2.0" fill="white" opacity="0.60"/><circle cx="568.6" cy="843.6" r="1.7" fill="white" opacity="0.46"/><circle cx="156.5" cy="407.8" r="1.0" fill="white" opacity="0.75"/><circle cx="1074.4" cy="332.1" r="0.4" fill="white" opacity="0.45"/><circle cx="1273.6" cy="209.6" r="0.8" fill="white" opacity="0.99"/><circle cx="792.1" cy="225.5" r="0.5" fill="white" opacity="0.46"/><circle cx="499.7" cy="520.8" r="0.8" fill="white" opacity="0.83"/><circle cx="44.8" cy="257.3" r="0.8" fill="white" opacity="0.48"/><circle cx="44.6" cy="67.7" r="0.3" fill="white" opacity="0.70"/><circle cx="1202.3" cy="315.6" r="0.7" fill="white" opacity="0.45"/><circle cx="974.7" cy="119.1" r="1.0" fill="white" opacity="0.42"/><circle cx="706.2" cy="205.6" r="0.9" fill="white" opacity="0.77"/><circle cx="37.1" cy="246.2" r="0.4" fill="white" opacity="0.66"/><circle cx="159.4" cy="458.4" r="0.5" fill="white" opacity="0.74"/><circle cx="879.3" cy="126.4" r="0.7" fill="white" opacity="0.94"/><circle cx="1426.7" cy="864.4" r="0.6" fill="white" opacity="0.59"/><circle cx="1046.1" cy="619.1" r="0.6" fill="white" opacity="0.86"/><circle cx="453.3" cy="311.6" r="0.9" fill="white" opacity="0.87"/><circle cx="446.3" cy="136.3" r="1.5" fill="white" opacity="0.92"/><circle cx="163.8" cy="163.9" r="0.8" fill="white" opacity="0.38"/><circle cx="809.1" cy="159.7" r="0.5" fill="white" opacity="0.72"/><circle cx="1285.3" cy="799.9" r="0.9" fill="white" opacity="0.51"/><circle cx="215.4" cy="31.9" r="0.7" fill="white" opacity="0.40"/><circle cx="105.8" cy="597.9" r="0.9" fill="white" opacity="0.73"/><circle cx="1367.6" cy="286.5" r="0.5" fill="white" opacity="0.98"/><circle cx="21.5" cy="643.5" r="0.4" fill="white" opacity="0.75"/><circle cx="1030.0" cy="204.4" r="0.3" fill="white" opacity="0.60"/><circle cx="62.0" cy="539.3" r="0.6" fill="white" opacity="0.48"/><circle cx="640.4" cy="128.0" r="0.8" fill="white" opacity="0.72"/><circle cx="446.7" cy="93.7" r="0.8" fill="white" opacity="0.94"/><circle cx="1281.4" cy="522.7" r="0.4" fill="white" opacity="0.41"/><circle cx="968.0" cy="881.2" r="0.7" fill="white" opacity="0.70"/><circle cx="315.9" cy="621.7" r="0.7" fill="white" opacity="0.88"/><circle cx="1226.7" cy="390.9" r="0.4" fill="white" opacity="0.69"/><circle cx="889.4" cy="52.5" r="0.9" fill="white" opacity="0.77"/><circle cx="733.0" cy="342.6" r="0.4" fill="white" opacity="0.93"/><circle cx="986.6" cy="700.3" r="1.0" fill="white" opacity="0.80"/><circle cx="764.8" cy="195.5" r="2.0" fill="white" opacity="0.73"/><circle cx="1019.1" cy="41.5" r="1.0" fill="white" opacity="0.42"/><circle cx="1054.6" cy="603.8" r="1.0" fill="white" opacity="0.75"/><circle cx="266.4" cy="115.3" r="0.4" fill="white" opacity="0.75"/><circle cx="111.3" cy="171.5" r="0.4" fill="white" opacity="0.42"/><circle cx="730.8" cy="655.0" r="0.7" fill="white" opacity="0.42"/><circle cx="339.8" cy="733.7" r="0.7" fill="white" opacity="0.37"/><circle cx="1025.6" cy="833.8" r="0.4" fill="white" opacity="0.47"/><circle cx="223.6" cy="567.8" r="0.7" fill="white" opacity="0.42"/><circle cx="121.3" cy="324.0" r="0.9" fill="white" opacity="0.73"/><circle cx="112.9" cy="225.9" r="2.0" fill="white" opacity="0.57"/><circle cx="1347.7" cy="635.3" r="0.3" fill="white" opacity="0.49"/><circle cx="275.6" cy="429.7" r="1.0" fill="white" opacity="0.74"/><circle cx="625.8" cy="412.7" r="0.5" fill="white" opacity="0.81"/><circle cx="762.3" cy="585.1" r="0.4" fill="white" opacity="0.59"/><circle cx="1183.7" cy="651.0" r="0.4" fill="white" opacity="0.42"/><circle cx="33.1" cy="306.8" r="1.0" fill="white" opacity="0.60"/><circle cx="1158.2" cy="525.2" r="0.6" fill="white" opacity="0.69"/><circle cx="244.2" cy="739.5" r="0.7" fill="white" opacity="0.47"/><circle cx="45.9" cy="852.6" r="1.0" fill="white" opacity="0.96"/><circle cx="1174.0" cy="695.6" r="0.7" fill="white" opacity="0.69"/><circle cx="499.7" cy="517.1" r="0.5" fill="white" opacity="0.54"/><circle cx="545.7" cy="868.4" r="0.5" fill="white" opacity="0.74"/><circle cx="853.8" cy="616.8" r="0.3" fill="white" opacity="0.91"/><circle cx="370.1" cy="480.2" r="0.5" fill="white" opacity="0.46"/><circle cx="1039.4" cy="640.2" r="0.3" fill="white" opacity="0.51"/><circle cx="264.1" cy="861.3" r="0.6" fill="white" opacity="0.63"/><circle cx="640.8" cy="745.7" r="1.0" fill="white" opacity="0.85"/><circle cx="293.2" cy="56.1" r="0.6" fill="white" opacity="0.99"/><circle cx="370.3" cy="809.9" r="0.6" fill="white" opacity="0.46"/><circle cx="100.2" cy="843.0" r="0.4" fill="white" opacity="0.48"/><circle cx="1218.2" cy="49.3" r="0.4" fill="white" opacity="0.86"/><circle cx="624.5" cy="465.4" r="0.9" fill="white" opacity="0.93"/><circle cx="1148.9" cy="684.0" r="0.3" fill="white" opacity="0.97"/><circle cx="244.1" cy="603.8" r="0.9" fill="white" opacity="0.87"/><circle cx="840.0" cy="712.7" r="0.6" fill="white" opacity="0.66"/><circle cx="101.9" cy="398.4" r="1.1" fill="white" opacity="0.45"/><circle cx="1430.4" cy="497.5" r="0.3" fill="white" opacity="0.62"/><circle cx="197.3" cy="390.1" r="0.7" fill="white" opacity="0.41"/><circle cx="1016.8" cy="253.9" r="0.7" fill="white" opacity="0.45"/><circle cx="1326.9" cy="332.9" r="1.0" fill="white" opacity="0.37"/><circle cx="707.1" cy="202.0" r="1.0" fill="white" opacity="0.62"/><circle cx="1175.8" cy="743.9" r="0.3" fill="white" opacity="0.64"/><circle cx="3.6" cy="126.8" r="0.4" fill="white" opacity="0.69"/><circle cx="775.4" cy="87.1" r="0.9" fill="white" opacity="1.00"/><circle cx="98.6" cy="869.6" r="0.3" fill="white" opacity="0.69"/><circle cx="126.9" cy="610.5" r="0.9" fill="white" opacity="0.78"/><circle cx="1070.9" cy="346.6" r="0.5" fill="white" opacity="0.87"/><circle cx="265.0" cy="869.7" r="0.8" fill="white" opacity="0.80"/><circle cx="702.3" cy="36.1" r="0.5" fill="white" opacity="0.95"/><circle cx="980.0" cy="254.5" r="0.5" fill="white" opacity="0.98"/><circle cx="600.5" cy="831.7" r="0.9" fill="white" opacity="0.97"/><circle cx="972.2" cy="76.5" r="0.9" fill="white" opacity="0.56"/><circle cx="1082.1" cy="625.9" r="0.7" fill="white" opacity="0.49"/><circle cx="792.8" cy="223.2" r="0.6" fill="white" opacity="0.58"/><circle cx="149.6" cy="614.6" r="1.1" fill="white" opacity="0.89"/><circle cx="173.4" cy="264.6" r="0.9" fill="white" opacity="0.99"/><circle cx="944.3" cy="527.7" r="1.0" fill="white" opacity="0.81"/><circle cx="998.1" cy="80.9" r="0.7" fill="white" opacity="0.54"/><circle cx="1310.2" cy="83.0" r="0.7" fill="white" opacity="0.48"/><circle cx="422.1" cy="821.3" r="0.4" fill="white" opacity="0.92"/><circle cx="1430.4" cy="774.3" r="0.7" fill="white" opacity="0.53"/><circle cx="827.1" cy="280.7" r="0.7" fill="white" opacity="0.48"/><circle cx="260.5" cy="8.4" r="1.5" fill="white" opacity="0.76"/><circle cx="740.1" cy="556.9" r="1.0" fill="white" opacity="0.65"/><circle cx="1091.1" cy="598.5" r="0.9" fill="white" opacity="0.75"/><circle cx="1252.0" cy="289.3" r="0.4" fill="white" opacity="0.40"/><circle cx="642.8" cy="54.3" r="1.0" fill="white" opacity="0.41"/><circle cx="752.2" cy="305.7" r="0.7" fill="white" opacity="0.36"/><circle cx="1100.8" cy="645.1" r="0.8" fill="white" opacity="0.54"/><circle cx="310.2" cy="700.7" r="0.4" fill="white" opacity="0.79"/><circle cx="255.4" cy="289.6" r="1.0" fill="white" opacity="0.72"/><circle cx="221.4" cy="569.6" r="0.8" fill="white" opacity="0.73"/><circle cx="774.5" cy="769.3" r="1.0" fill="white" opacity="0.57"/><circle cx="442.9" cy="579.0" r="1.1" fill="white" opacity="0.82"/><circle cx="898.9" cy="14.1" r="0.8" fill="white" opacity="0.78"/><circle cx="562.0" cy="813.0" r="0.3" fill="white" opacity="0.88"/><circle cx="1178.8" cy="354.3" r="0.4" fill="white" opacity="0.77"/><circle cx="570.9" cy="745.0" r="0.3" fill="white" opacity="0.96"/><circle cx="973.7" cy="14.9" r="0.3" fill="white" opacity="0.99"/><circle cx="329.0" cy="171.2" r="1.0" fill="white" opacity="0.45"/><circle cx="179.9" cy="823.1" r="0.4" fill="white" opacity="0.54"/><circle cx="857.9" cy="259.2" r="1.0" fill="white" opacity="0.44"/><circle cx="933.5" cy="658.7" r="1.0" fill="white" opacity="0.36"/><circle cx="277.7" cy="69.9" r="0.7" fill="white" opacity="0.88"/><circle cx="355.2" cy="0.1" r="0.8" fill="white" opacity="0.50"/><circle cx="1149.3" cy="605.7" r="0.4" fill="white" opacity="0.98"/><circle cx="226.7" cy="132.0" r="0.5" fill="white" opacity="0.59"/><circle cx="1071.4" cy="29.0" r="0.7" fill="white" opacity="0.40"/><circle cx="213.7" cy="852.9" r="0.7" fill="white" opacity="0.66"/><circle cx="878.2" cy="610.1" r="0.4" fill="white" opacity="1.00"/><circle cx="906.7" cy="373.5" r="0.9" fill="white" opacity="0.62"/><circle cx="1242.3" cy="238.5" r="0.7" fill="white" opacity="0.64"/><circle cx="217.8" cy="133.6" r="0.6" fill="white" opacity="0.96"/><circle cx="1244.0" cy="463.5" r="1.0" fill="white" opacity="0.47"/><circle cx="194.8" cy="663.7" r="0.7" fill="white" opacity="0.52"/><circle cx="1328.3" cy="516.0" r="0.9" fill="white" opacity="0.62"/><circle cx="597.8" cy="828.5" r="0.5" fill="white" opacity="0.62"/><circle cx="853.0" cy="485.9" r="0.7" fill="white" opacity="0.47"/><circle cx="192.6" cy="139.3" r="1.0" fill="white" opacity="0.39"/><circle cx="1012.3" cy="5.3" r="0.7" fill="white" opacity="0.73"/><circle cx="942.4" cy="388.6" r="0.6" fill="white" opacity="0.60"/><circle cx="922.1" cy="329.7" r="0.8" fill="white" opacity="0.62"/><circle cx="992.0" cy="389.4" r="0.3" fill="white" opacity="0.81"/><circle cx="93.8" cy="147.0" r="1.0" fill="white" opacity="0.51"/><circle cx="512.0" cy="891.2" r="0.5" fill="white" opacity="0.83"/><circle cx="1333.5" cy="115.6" r="1.0" fill="white" opacity="0.86"/><circle cx="1114.5" cy="531.8" r="0.3" fill="white" opacity="0.69"/><circle cx="219.1" cy="62.4" r="1.1" fill="white" opacity="0.42"/><circle cx="513.6" cy="713.0" r="1.0" fill="white" opacity="0.72"/><circle cx="945.3" cy="459.7" r="1.5" fill="white" opacity="0.73"/><circle cx="782.8" cy="651.5" r="0.9" fill="white" opacity="0.93"/><circle cx="297.1" cy="611.1" r="1.0" fill="white" opacity="1.00"/><circle cx="629.9" cy="633.3" r="1.8" fill="white" opacity="0.90"/><circle cx="684.1" cy="76.0" r="0.8" fill="white" opacity="0.53"/><circle cx="9.0" cy="207.3" r="0.9" fill="white" opacity="0.56"/><circle cx="85.4" cy="197.1" r="1.0" fill="white" opacity="0.37"/><circle cx="651.5" cy="359.2" r="0.3" fill="white" opacity="0.93"/><circle cx="1170.0" cy="699.8" r="0.3" fill="white" opacity="0.90"/><circle cx="1398.2" cy="456.5" r="0.8" fill="white" opacity="0.91"/><circle cx="78.2" cy="297.8" r="1.1" fill="white" opacity="0.95"/><circle cx="587.3" cy="1.0" r="1.6" fill="white" opacity="0.70"/><circle cx="356.5" cy="839.0" r="0.4" fill="white" opacity="0.88"/><circle cx="1081.8" cy="80.5" r="0.7" fill="white" opacity="0.70"/><circle cx="877.0" cy="125.8" r="1.0" fill="white" opacity="0.47"/><circle cx="377.1" cy="595.4" r="0.6" fill="white" opacity="0.90"/><circle cx="1289.2" cy="30.4" r="0.7" fill="white" opacity="0.81"/><circle cx="55.6" cy="311.4" r="0.6" fill="white" opacity="0.55"/><circle cx="1005.6" cy="681.0" r="0.6" fill="white" opacity="0.47"/><circle cx="1141.8" cy="164.7" r="0.4" fill="white" opacity="0.53"/><circle cx="868.7" cy="406.1" r="0.6" fill="white" opacity="0.74"/><circle cx="694.7" cy="112.5" r="0.3" fill="white" opacity="0.62"/><circle cx="964.4" cy="295.8" r="0.5" fill="white" opacity="0.71"/><circle cx="66.6" cy="14.8" r="0.7" fill="white" opacity="0.92"/><circle cx="636.9" cy="345.7" r="0.4" fill="white" opacity="0.61"/><circle cx="819.2" cy="317.0" r="1.0" fill="white" opacity="0.96"/><circle cx="731.0" cy="522.3" r="1.0" fill="white" opacity="0.70"/><circle cx="768.9" cy="251.3" r="0.4" fill="white" opacity="0.83"/><circle cx="315.7" cy="85.4" r="0.8" fill="white" opacity="0.64"/><circle cx="103.6" cy="246.3" r="0.7" fill="white" opacity="0.76"/><circle cx="702.9" cy="339.9" r="1.0" fill="white" opacity="0.45"/><circle cx="135.4" cy="55.8" r="0.4" fill="white" opacity="0.61"/><circle cx="1025.0" cy="522.0" r="0.6" fill="white" opacity="0.47"/><circle cx="559.8" cy="385.9" r="1.1" fill="white" opacity="0.50"/><circle cx="754.9" cy="191.1" r="0.9" fill="white" opacity="0.84"/><circle cx="892.9" cy="95.6" r="0.4" fill="white" opacity="0.94"/><circle cx="522.0" cy="291.8" r="1.0" fill="white" opacity="0.72"/><circle cx="312.7" cy="887.6" r="1.0" fill="white" opacity="0.63"/><circle cx="119.3" cy="383.4" r="0.5" fill="white" opacity="0.99"/><circle cx="676.6" cy="21.8" r="1.0" fill="white" opacity="0.36"/>
</svg>