<?xml version="1.0" encoding="utf-8"?>
<!-- Generator: Adobe Illustrator 28.2.0, SVG Export Plug-In . SVG Version: 6.00 Build 0)  -->
<svg version="1.1" id="Livello_1" xmlns="http://www.w3.org/2000/svg" xmlns:xlink="http://www.w3.org/1999/xlink" x="0px" y="0px"
	 viewBox="0 0 102.05 102.05" style="enable-background:new 0 0 102.05 102.05;" xml:space="preserve">
<style type="text/css">
	.st0{fill:#EEA22B;}
	.st1{fill:#4D509E;}
	.st2{fill:#7E928D;}
</style>
<g>
	<g>
		<g>
			<path class="st0" d="M36.89,36.76c2.14-5.99,4.3-11.97,6.42-17.97c1.43-4.04,2.83-8.1,4.25-12.15c0.66-1.65,1.33-3.3,2.67-6.64
				c4.68,13.21,8.9,25.09,13.11,36.97c0.22,0.78,0.44,1.57,0.65,2.36c2.31,6.58,4.61,13.16,6.92,19.74
				c-0.01,0.1-0.02,0.21-0.04,0.31c-0.61,0.39-1.22,0.77-1.83,1.16c-2.52-7.21-5.04-14.43-7.42-21.27c-7.9,0-15.43,0-23.1,0
				c-2.33,6.64-4.66,13.27-6.98,19.9c-0.45-0.1-0.9-0.2-1.35-0.3c-0.26-0.33-0.51-0.66-0.77-0.98c0.81-2.42,1.62-4.84,2.43-7.26
				c0.07,0.05,0.14,0.1,0.21,0.16c1.32-3.92,2.64-7.83,3.96-11.74c0.14-0.43,0.28-0.85,0.42-1.28c0.03,0.02,0.05,0.03,0.08,0.05
				C36.63,37.46,36.76,37.11,36.89,36.76z M39.53,36.71c7.21,0,13.98,0,20.99,0c-0.45-1.58-0.85-2.96-1.29-4.48
				c-0.26,0.1-0.52,0.19-0.17,0.06c-0.97-2.9-1.95-5.81-2.93-8.72c-0.03,0.01-0.06,0.02-0.09,0.03c-1.86-5.5-3.73-11.01-5.85-17.27
				C46.49,16.9,43.07,26.61,39.53,36.71z"/>
			<path class="st1" d="M30.18,58.87c0.45,0.1,0.9,0.2,1.35,0.3c0.37,0.41,0.69,0.9,1.11,1.22C40.31,66.16,48,71.9,55.68,77.66
				c8.3,6.21,16.6,12.43,25.22,18.88c-4.04-12.27-7.95-24.13-11.86-36c0.61-0.39,1.22-0.77,1.83-1.16c0.2,0.52,0.4,1.04,0.6,1.56
				c4.09,12.32,8.17,24.64,12.27,36.95c0.31,0.93,0.7,1.79-0.54,3.13C65.86,88.04,48.42,74.98,30.75,61.74
				c-4.28,13.19-8.53,26.3-13.08,40.3c-0.88-1.48-1.13-1.9-1.47-2.46c4.04-12.37,8.12-24.88,12.17-37.41
				c0.21-0.64,0.1-1.41,0.14-2.13c0.24-0.35,0.47-0.71,0.75-1.13C29.5,58.91,29.84,58.89,30.18,58.87z"/>
			<path class="st2" d="M71.46,60.93c-0.2-0.52-0.4-1.04-0.6-1.56c0.01-0.1,0.02-0.21,0.04-0.31c0.31-0.29,0.6-0.62,0.93-0.86
				c8.37-6.13,16.74-12.25,25.81-18.88c-11.72,0-22.69,0-33.65,0c-0.22-0.78-0.44-1.57-0.65-2.36c12.77,0,25.55,0,38.32,0
				c0.13,0.57,0.26,1.15,0.4,1.72c-2.88,2.17-5.75,4.38-8.65,6.51c-7.01,5.16-14.04,10.29-21.07,15.41
				C72.08,60.79,71.75,60.83,71.46,60.93z"/>
			<path class="st2" d="M30.18,58.87c-0.34,0.02-0.67,0.04-0.92,0.05c-0.28,0.43-0.52,0.78-0.75,1.13
				C20.37,54.07,12.2,48.13,4.09,42.08C2.51,40.89-0.08,40.48,0,36.76c12.52,0,24.7,0,36.88,0c-0.13,0.35-0.25,0.7-0.38,1.06
				c-0.03-0.02-0.05-0.03-0.08-0.05c-0.14,0.43-0.28,0.85-0.42,1.28c-10.56,0-21.12,0-32.63,0c9.24,6.69,17.64,12.77,26.04,18.84
				C29.67,58.21,29.92,58.54,30.18,58.87z"/>
		</g>
	</g>
</g>
</svg>
