<svg xmlns="http://www.w3.org/2000/svg" viewBox="0 0 500 500" width="500" height="500">
  <rect width="500" height="500" fill="#080f1a"/>
  <circle cx="348" cy="175" r="0.4" fill="white" opacity="0.28"/>
  <circle cx="270" cy="303" r="0.8" fill="white" opacity="0.35"/>
  <circle cx="48" cy="247" r="0.6" fill="white" opacity="0.16"/>
  <circle cx="78" cy="303" r="0.3" fill="white" opacity="0.30"/>
  <circle cx="480" cy="151" r="0.8" fill="white" opacity="0.18"/>
  <circle cx="242" cy="215" r="0.3" fill="white" opacity="0.25"/>
  <circle cx="36" cy="47" r="0.4" fill="white" opacity="0.20"/>
  <circle cx="134" cy="283" r="0.6" fill="white" opacity="0.20"/>
  <circle cx="290" cy="263" r="0.6" fill="white" opacity="0.53"/>
  <circle cx="106" cy="327" r="0.9" fill="white" opacity="0.15"/>
  <circle cx="372" cy="111" r="0.8" fill="white" opacity="0.55"/>
  <circle cx="386" cy="251" r="0.4" fill="white" opacity="0.24"/>
  <circle cx="144" cy="343" r="0.9" fill="white" opacity="0.12"/>
  <circle cx="104" cy="215" r="0.4" fill="white" opacity="0.19"/>
  <circle cx="448" cy="99" r="0.6" fill="white" opacity="0.45"/>
  <circle cx="468" cy="207" r="0.8" fill="white" opacity="0.14"/>
  <circle cx="42" cy="219" r="0.8" fill="white" opacity="0.47"/>
  <circle cx="484" cy="303" r="0.3" fill="white" opacity="0.54"/>
  <circle cx="382" cy="267" r="0.9" fill="white" opacity="0.35"/>
  <circle cx="380" cy="67" r="0.6" fill="white" opacity="0.49"/>
  <circle cx="474" cy="147" r="0.6" fill="white" opacity="0.37"/>
  <circle cx="142" cy="167" r="0.9" fill="white" opacity="0.44"/>
  <circle cx="56" cy="19" r="0.8" fill="white" opacity="0.39"/>
  <circle cx="122" cy="339" r="0.9" fill="white" opacity="0.39"/>
  <circle cx="460" cy="127" r="0.9" fill="white" opacity="0.27"/>
  <circle cx="58" cy="147" r="0.4" fill="white" opacity="0.48"/>
  <circle cx="78" cy="291" r="0.3" fill="white" opacity="0.29"/>
  <circle cx="60" cy="175" r="0.8" fill="white" opacity="0.43"/>
  <circle cx="490" cy="159" r="0.8" fill="white" opacity="0.31"/>
  <circle cx="356" cy="327" r="0.3" fill="white" opacity="0.38"/>
  <circle cx="330" cy="231" r="0.9" fill="white" opacity="0.19"/>
  <circle cx="318" cy="83" r="0.3" fill="white" opacity="0.33"/>
  <circle cx="74" cy="327" r="0.3" fill="white" opacity="0.21"/>
  <circle cx="422" cy="283" r="0.6" fill="white" opacity="0.28"/>
  <circle cx="74" cy="11" r="0.4" fill="white" opacity="0.23"/>
  <circle cx="406" cy="235" r="0.9" fill="white" opacity="0.23"/>
  <circle cx="192" cy="123" r="0.9" fill="white" opacity="0.56"/>
  <circle cx="256" cy="99" r="0.4" fill="white" opacity="0.32"/>
  <circle cx="290" cy="311" r="0.3" fill="white" opacity="0.13"/>
  <circle cx="200" cy="119" r="0.8" fill="white" opacity="0.27"/>
  <circle cx="354" cy="55" r="0.4" fill="white" opacity="0.15"/>
  <circle cx="348" cy="31" r="0.8" fill="white" opacity="0.22"/>
  <circle cx="122" cy="279" r="0.9" fill="white" opacity="0.48"/>
  <circle cx="438" cy="247" r="0.3" fill="white" opacity="0.17"/>
  <circle cx="70" cy="39" r="0.3" fill="white" opacity="0.50"/>
  <circle cx="332" cy="163" r="0.6" fill="white" opacity="0.12"/>
  <circle cx="426" cy="87" r="0.4" fill="white" opacity="0.52"/>
  <circle cx="382" cy="23" r="0.9" fill="white" opacity="0.52"/>
  <circle cx="320" cy="159" r="0.6" fill="white" opacity="0.40"/>
  <circle cx="84" cy="71" r="0.9" fill="white" opacity="0.16"/>
  <circle cx="346" cy="159" r="0.3" fill="white" opacity="0.42"/>
  <circle cx="156" cy="211" r="0.4" fill="white" opacity="0.56"/>
  <circle cx="124" cy="247" r="0.4" fill="white" opacity="0.44"/>
  <circle cx="94" cy="179" r="0.8" fill="white" opacity="0.51"/>
  <circle cx="248" cy="71" r="0.6" fill="white" opacity="0.32"/>
  <circle cx="250" cy="303" r="0.3" fill="white" opacity="0.46"/>
  <circle cx="462" cy="131" r="0.3" fill="white" opacity="0.34"/>
  <circle cx="362" cy="63" r="0.6" fill="white" opacity="0.41"/>
  <circle cx="256" cy="247" r="0.4" fill="white" opacity="0.36"/>
  <circle cx="50" cy="43" r="0.6" fill="white" opacity="0.36"/>
  <circle cx="354" cy="67" r="0.6" fill="white" opacity="0.24"/>
  <circle cx="32" cy="63" r="0.9" fill="white" opacity="0.31"/>
  <circle cx="370" cy="7" r="0.8" fill="white" opacity="0.26"/>
  <circle cx="170" cy="111" r="0.4" fill="white" opacity="0.40"/>
  <circle cx="290" cy="55" r="0.4" fill="white" opacity="0.28"/>
  <circle cx="450" cy="263" r="0.8" fill="white" opacity="0.35"/>
  <circle cx="466" cy="31" r="0.6" fill="white" opacity="0.16"/>
  <circle cx="120" cy="167" r="0.3" fill="white" opacity="0.30"/>
  <circle cx="270" cy="95" r="0.8" fill="white" opacity="0.18"/>
  <circle cx="146" cy="323" r="0.3" fill="white" opacity="0.25"/>
  <circle cx="54" cy="235" r="0.4" fill="white" opacity="0.20"/>
  <circle cx="390" cy="211" r="0.6" fill="white" opacity="0.20"/>
  <circle cx="294" cy="271" r="0.6" fill="white" opacity="0.53"/>
  <circle cx="224" cy="159" r="0.9" fill="white" opacity="0.15"/>
  <circle cx="238" cy="23" r="0.8" fill="white" opacity="0.55"/>
  <circle cx="366" cy="243" r="0.4" fill="white" opacity="0.24"/>
  <circle cx="362" cy="159" r="0.9" fill="white" opacity="0.12"/>
  <circle cx="436" cy="111" r="0.4" fill="white" opacity="0.19"/>
  <circle cx="38" cy="75" r="0.6" fill="white" opacity="0.45"/>
  <circle cx="296" cy="263" r="0.8" fill="white" opacity="0.14"/>
  <circle cx="474" cy="99" r="0.8" fill="white" opacity="0.47"/>
  <circle cx="50" cy="263" r="0.3" fill="white" opacity="0.54"/>
  <circle cx="310" cy="307" r="0.9" fill="white" opacity="0.35"/>
  <circle cx="422" cy="271" r="0.6" fill="white" opacity="0.49"/>
  <circle cx="140" cy="91" r="0.6" fill="white" opacity="0.37"/>
  <circle cx="46" cy="191" r="0.9" fill="white" opacity="0.44"/>
  <circle cx="74" cy="123" r="0.8" fill="white" opacity="0.39"/>
  <circle cx="378" cy="267" r="0.9" fill="white" opacity="0.39"/>
  <circle cx="340" cy="135" r="0.9" fill="white" opacity="0.27"/>
  <circle cx="176" cy="319" r="0.4" fill="white" opacity="0.48"/>
  <circle cx="434" cy="203" r="0.3" fill="white" opacity="0.29"/>
  <circle cx="40" cy="251" r="0.8" fill="white" opacity="0.43"/>
  <circle cx="218" cy="315" r="0.8" fill="white" opacity="0.31"/>
  <circle cx="198" cy="223" r="0.3" fill="white" opacity="0.38"/>
  <circle cx="410" cy="207" r="0.9" fill="white" opacity="0.19"/>
  <circle cx="22" cy="139" r="0.3" fill="white" opacity="0.33"/>
  <circle cx="16" cy="123" r="0.3" fill="white" opacity="0.21"/>
  <circle cx="478" cy="327" r="0.6" fill="white" opacity="0.28"/>
  <circle cx="368" cy="51" r="0.4" fill="white" opacity="0.23"/>
  <circle cx="448" cy="99" r="0.9" fill="white" opacity="0.23"/>
  <line x1="182.1" y1="262.7" x2="181.5" y2="216.0" stroke="#E8D070" stroke-width="1.2" opacity="0.55" stroke-linecap="round"/><line x1="181.5" y1="216.0" x2="211.6" y2="187.3" stroke="#E8D070" stroke-width="1.2" opacity="0.55" stroke-linecap="round"/><line x1="211.6" y1="187.3" x2="190.1" y2="151.9" stroke="#E8D070" stroke-width="1.2" opacity="0.55" stroke-linecap="round"/><line x1="190.1" y1="151.9" x2="152.9" y2="124.1" stroke="#E8D070" stroke-width="1.2" opacity="0.55" stroke-linecap="round"/><line x1="152.9" y1="124.1" x2="334.2" y2="178.8" stroke="#E8D070" stroke-width="1.2" opacity="0.55" stroke-linecap="round"/><line x1="211.6" y1="187.3" x2="334.2" y2="178.8" stroke="#E8D070" stroke-width="1.2" opacity="0.55" stroke-linecap="round"/><line x1="334.2" y1="178.8" x2="336.7" y2="228.2" stroke="#E8D070" stroke-width="1.2" opacity="0.55" stroke-linecap="round"/><line x1="336.7" y1="228.2" x2="422.9" y2="231.5" stroke="#E8D070" stroke-width="1.2" opacity="0.55" stroke-linecap="round"/>
  <circle cx="182.1" cy="262.7" r="14.8" fill="#E8D070" opacity="0.08"/><circle cx="182.1" cy="262.7" r="8.7" fill="#E8D070" opacity="0.18"/><circle cx="182.1" cy="262.7" r="6.7" fill="white" opacity="0.95"/><circle cx="182.1" cy="262.7" r="2.7" fill="#E8D070" opacity="0.9"/><text x="193.8" y="258.7" font-family="Georgia,serif" font-size="9" fill="#E8D070" opacity="0.6">Regulus</text><circle cx="422.9" cy="231.5" r="12.2" fill="#E8D070" opacity="0.08"/><circle cx="422.9" cy="231.5" r="7.2" fill="#E8D070" opacity="0.18"/><circle cx="422.9" cy="231.5" r="5.5" fill="white" opacity="0.95"/><circle cx="422.9" cy="231.5" r="2.2" fill="#E8D070" opacity="0.9"/><text x="433.4" y="227.5" font-family="Georgia,serif" font-size="9" fill="#E8D070" opacity="0.6">Denebola</text><circle cx="211.6" cy="187.3" r="12.4" fill="#E8D070" opacity="0.08"/><circle cx="211.6" cy="187.3" r="7.3" fill="#E8D070" opacity="0.18"/><circle cx="211.6" cy="187.3" r="5.6" fill="white" opacity="0.95"/><circle cx="211.6" cy="187.3" r="2.3" fill="#E8D070" opacity="0.9"/><text x="222.2" y="183.3" font-family="Georgia,serif" font-size="9" fill="#E8D070" opacity="0.6">Algieba</text><circle cx="334.2" cy="178.8" r="10.8" fill="#E8D070" opacity="0.08"/><circle cx="334.2" cy="178.8" r="6.4" fill="#E8D070" opacity="0.18"/><circle cx="334.2" cy="178.8" r="4.9" fill="white" opacity="0.95"/><circle cx="334.2" cy="178.8" r="2.0" fill="#E8D070" opacity="0.9"/><circle cx="336.7" cy="228.2" r="8.3" fill="#E8D070" opacity="0.08"/><circle cx="336.7" cy="228.2" r="4.9" fill="#E8D070" opacity="0.18"/><circle cx="336.7" cy="228.2" r="3.8" fill="white" opacity="0.95"/><circle cx="336.7" cy="228.2" r="1.5" fill="#E8D070" opacity="0.9"/><circle cx="190.1" cy="151.9" r="7.9" fill="#E8D070" opacity="0.08"/><circle cx="190.1" cy="151.9" r="4.7" fill="#E8D070" opacity="0.18"/><circle cx="190.1" cy="151.9" r="3.6" fill="white" opacity="0.95"/><circle cx="190.1" cy="151.9" r="1.4" fill="#E8D070" opacity="0.9"/><circle cx="152.9" cy="124.1" r="6.4" fill="#E8D070" opacity="0.08"/><circle cx="152.9" cy="124.1" r="3.8" fill="#E8D070" opacity="0.18"/><circle cx="152.9" cy="124.1" r="2.9" fill="white" opacity="0.95"/><circle cx="152.9" cy="124.1" r="1.2" fill="#E8D070" opacity="0.9"/><circle cx="181.5" cy="216.0" r="7.7" fill="#E8D070" opacity="0.08"/><circle cx="181.5" cy="216.0" r="4.6" fill="#E8D070" opacity="0.18"/><circle cx="181.5" cy="216.0" r="3.5" fill="white" opacity="0.95"/><circle cx="181.5" cy="216.0" r="1.4" fill="#E8D070" opacity="0.9"/>
  <text x="250" y="438" text-anchor="middle" font-family="Georgia,serif" font-size="24" fill="#E8D070" opacity="0.95" letter-spacing="4">LEO</text>
  <text x="250" y="462" text-anchor="middle" font-family="Georgia,serif" font-size="12" fill="#aaaaaa" letter-spacing="2">23 Lug – 22 Ago</text>
  <text x="250" y="488" text-anchor="middle" font-family="Georgia,serif" font-size="18" fill="#E8D070" opacity="0.65">♌</text>
</svg>