<svg xmlns="http://www.w3.org/2000/svg" viewBox="0 0 64 32" width="64" height="32">
  <!-- corpo + punta come unica forma -->
  <path d="M8 16 C8 10, 22 8, 36 8 C50 8, 63 12, 63 16 C63 20, 50 24, 36 24 C22 24, 8 22, 8 16 Z" fill="#d0d8f0"/>
  <!-- alette -->
  <path d="M12 16 L4 6 L18 13 Z" fill="#8892b8"/>
  <path d="M12 16 L4 26 L18 19 Z" fill="#8892b8"/>
  <!-- finestrino -->
  <circle cx="38" cy="16" r="4" fill="#7ecfff" opacity="0.85"/>
  <circle cx="38" cy="16" r="2.5" fill="#b8eaff" opacity="0.6"/>
  <!-- fiamma -->
  <path d="M8 16 L0 12 L2 16 L0 20 Z" fill="#ff8c00" opacity="0.9"/>
  <path d="M8 16 L3 14 L4 16 L3 18 Z" fill="#ffe066" opacity="0.95"/>
</svg>
