<svg xmlns="http://www.w3.org/2000/svg" viewBox="0 0 400 300">
<defs>
<radialGradient id="bg" cx="50%" cy="50%" r="70%"><stop offset="0%" stop-color="#0d1b35"/><stop offset="100%" stop-color="#020509"/></radialGradient>
<filter id="glow"><feGaussianBlur stdDeviation="2" result="blur"/><feMerge><feMergeNode in="blur"/><feMergeNode in="SourceGraphic"/></feMerge></filter>
</defs>
<rect width="400" height="300" fill="url(#bg)"/>
<circle cx="364.4" cy="51.6" r="0.6" fill="white" opacity="0.53"/>
<circle cx="81.9" cy="221.5" r="0.7" fill="white" opacity="0.4"/>
<circle cx="286.3" cy="80.9" r="0.4" fill="white" opacity="0.49"/>
<circle cx="158.5" cy="260.5" r="0.7" fill="white" opacity="0.46"/>
<circle cx="286.2" cy="185.3" r="0.4" fill="white" opacity="0.53"/>
<circle cx="40.7" cy="261.0" r="0.3" fill="white" opacity="0.34"/>
<circle cx="136.7" cy="253.9" r="0.7" fill="white" opacity="0.47"/>
<circle cx="77.7" cy="211.2" r="0.6" fill="white" opacity="0.22"/>
<circle cx="281.7" cy="101.3" r="0.7" fill="white" opacity="0.23"/>
<circle cx="37.5" cy="176.7" r="0.5" fill="white" opacity="0.28"/>
<circle cx="227.4" cy="267.1" r="0.6" fill="white" opacity="0.58"/>
<circle cx="221.1" cy="120.6" r="0.6" fill="white" opacity="0.47"/>
<circle cx="147.9" cy="243.8" r="0.5" fill="white" opacity="0.51"/>
<circle cx="358.4" cy="70.9" r="0.7" fill="white" opacity="0.29"/>
<circle cx="364.9" cy="4.9" r="0.7" fill="white" opacity="0.49"/>
<circle cx="87.9" cy="263.4" r="0.3" fill="white" opacity="0.26"/>
<circle cx="369.9" cy="209.0" r="0.7" fill="white" opacity="0.46"/>
<circle cx="188.8" cy="13.5" r="0.3" fill="white" opacity="0.45"/>
<circle cx="332.8" cy="14.6" r="0.7" fill="white" opacity="0.22"/>
<circle cx="319.7" cy="243.7" r="0.7" fill="white" opacity="0.57"/>
<circle cx="38.5" cy="267.8" r="0.7" fill="white" opacity="0.44"/>
<circle cx="9.9" cy="178.5" r="0.5" fill="white" opacity="0.4"/>
<circle cx="122.2" cy="27.2" r="0.8" fill="white" opacity="0.25"/>
<circle cx="289.4" cy="66.4" r="0.7" fill="white" opacity="0.57"/>
<circle cx="17.5" cy="83.4" r="0.8" fill="white" opacity="0.55"/>
<circle cx="340.0" cy="203.5" r="0.7" fill="white" opacity="0.51"/>
<circle cx="43.4" cy="218.5" r="0.7" fill="white" opacity="0.27"/>
<circle cx="247.9" cy="271.2" r="0.4" fill="white" opacity="0.42"/>
<circle cx="304.4" cy="254.6" r="0.8" fill="white" opacity="0.6"/>
<circle cx="35.6" cy="79.4" r="0.7" fill="white" opacity="0.42"/>
<circle cx="208.6" cy="166.8" r="0.7" fill="white" opacity="0.5"/>
<circle cx="154.5" cy="17.0" r="0.7" fill="white" opacity="0.43"/>
<circle cx="298.4" cy="62.4" r="0.8" fill="white" opacity="0.29"/>
<circle cx="330.5" cy="107.2" r="0.5" fill="white" opacity="0.24"/>
<circle cx="294.2" cy="143.6" r="0.6" fill="white" opacity="0.56"/>
<circle cx="332.2" cy="102.7" r="0.7" fill="white" opacity="0.47"/>
<circle cx="5.8" cy="54.0" r="0.8" fill="white" opacity="0.24"/>
<circle cx="18.2" cy="70.9" r="0.4" fill="white" opacity="0.4"/>
<circle cx="330.2" cy="238.4" r="0.8" fill="white" opacity="0.53"/>
<circle cx="191.4" cy="33.7" r="0.8" fill="white" opacity="0.29"/>
<circle cx="133.2" cy="187.0" r="0.7" fill="white" opacity="0.31"/>
<circle cx="14.9" cy="297.2" r="0.4" fill="white" opacity="0.45"/>
<circle cx="299.5" cy="71.4" r="0.7" fill="white" opacity="0.25"/>
<circle cx="313.6" cy="276.2" r="0.4" fill="white" opacity="0.27"/>
<circle cx="68.4" cy="13.4" r="0.8" fill="white" opacity="0.29"/>
<circle cx="116.6" cy="198.3" r="0.5" fill="white" opacity="0.4"/>
<circle cx="116.5" cy="43.9" r="0.7" fill="white" opacity="0.29"/>
<circle cx="367.3" cy="115.3" r="0.7" fill="white" opacity="0.54"/>
<circle cx="23.5" cy="184.5" r="0.7" fill="white" opacity="0.44"/>
<circle cx="313.5" cy="264.7" r="0.7" fill="white" opacity="0.4"/>
<circle cx="278.1" cy="89.3" r="0.7" fill="white" opacity="0.59"/>
<circle cx="145.1" cy="261.5" r="0.3" fill="white" opacity="0.31"/>
<circle cx="399.9" cy="204.3" r="0.7" fill="white" opacity="0.51"/>
<circle cx="337.4" cy="91.8" r="0.5" fill="white" opacity="0.58"/>
<circle cx="275.9" cy="179.4" r="0.6" fill="white" opacity="0.39"/>
<circle cx="22.5" cy="192.3" r="0.6" fill="white" opacity="0.37"/>
<circle cx="216.4" cy="108.4" r="0.5" fill="white" opacity="0.21"/>
<circle cx="240.3" cy="104.5" r="0.8" fill="white" opacity="0.38"/>
<circle cx="378.9" cy="289.7" r="0.5" fill="white" opacity="0.49"/>
<circle cx="395.2" cy="38.8" r="0.4" fill="white" opacity="0.35"/>
<line x1="152.0" y1="84.0" x2="129.6" y2="120.0" stroke="rgba(180,200,255,0.45)" stroke-width="1"/>
<line x1="152.0" y1="84.0" x2="152.0" y2="144.0" stroke="rgba(180,200,255,0.45)" stroke-width="1"/>
<line x1="152.0" y1="84.0" x2="200.0" y2="144.0" stroke="rgba(180,200,255,0.45)" stroke-width="1"/>
<line x1="248.0" y1="96.0" x2="270.4" y2="116.0" stroke="rgba(180,200,255,0.45)" stroke-width="1"/>
<line x1="248.0" y1="96.0" x2="200.0" y2="144.0" stroke="rgba(180,200,255,0.45)" stroke-width="1"/>
<line x1="129.6" y1="120.0" x2="152.0" y2="144.0" stroke="rgba(180,200,255,0.45)" stroke-width="1"/>
<line x1="270.4" y1="116.0" x2="248.0" y2="144.0" stroke="rgba(180,200,255,0.45)" stroke-width="1"/>
<line x1="152.0" y1="144.0" x2="200.0" y2="144.0" stroke="rgba(180,200,255,0.45)" stroke-width="1"/>
<line x1="200.0" y1="144.0" x2="248.0" y2="144.0" stroke="rgba(180,200,255,0.45)" stroke-width="1"/>
<line x1="152.0" y1="144.0" x2="161.6" y2="180.0" stroke="rgba(180,200,255,0.45)" stroke-width="1"/>
<line x1="248.0" y1="144.0" x2="238.4" y2="176.0" stroke="rgba(180,200,255,0.45)" stroke-width="1"/>
<circle cx="152.0" cy="84.0" r="6.5" fill="#fef3c7" opacity="0.25" filter="url(#glow)"/>
<circle cx="152.0" cy="84.0" r="5.0" fill="#fef3c7"/>
<circle cx="248.0" cy="96.0" r="5.5" fill="#fef3c7" opacity="0.25" filter="url(#glow)"/>
<circle cx="248.0" cy="96.0" r="4.0" fill="#fef3c7"/>
<circle cx="129.6" cy="120.0" r="4.5" fill="#e2e8f0" opacity="0.25" filter="url(#glow)"/>
<circle cx="129.6" cy="120.0" r="3.0" fill="#e2e8f0"/>
<circle cx="270.4" cy="116.0" r="4.5" fill="#e2e8f0" opacity="0.25" filter="url(#glow)"/>
<circle cx="270.4" cy="116.0" r="3.0" fill="#e2e8f0"/>
<circle cx="152.0" cy="144.0" r="5.5" fill="#fef3c7" opacity="0.25" filter="url(#glow)"/>
<circle cx="152.0" cy="144.0" r="4.0" fill="#fef3c7"/>
<circle cx="200.0" cy="144.0" r="5.0" fill="#e2e8f0" opacity="0.25" filter="url(#glow)"/>
<circle cx="200.0" cy="144.0" r="3.5" fill="#e2e8f0"/>
<circle cx="248.0" cy="144.0" r="5.5" fill="#fef3c7" opacity="0.25" filter="url(#glow)"/>
<circle cx="248.0" cy="144.0" r="4.0" fill="#fef3c7"/>
<circle cx="161.6" cy="180.0" r="5.0" fill="#e2e8f0" opacity="0.25" filter="url(#glow)"/>
<circle cx="161.6" cy="180.0" r="3.5" fill="#e2e8f0"/>
<circle cx="238.4" cy="176.0" r="4.5" fill="#e2e8f0" opacity="0.25" filter="url(#glow)"/>
<circle cx="238.4" cy="176.0" r="3.0" fill="#e2e8f0"/>
<text x="200" y="290" text-anchor="middle" font-family="sans-serif" font-size="13" fill="rgba(180,210,255,0.7)" letter-spacing="2">ORIONE</text>
</svg>