<svg xmlns="http://www.w3.org/2000/svg" viewBox="0 0 500 500" width="500" height="500">
  <rect width="500" height="500" fill="#080f1a"/>
  <circle cx="212" cy="95" r="0.8" fill="white" opacity="0.22"/>
  <circle cx="490" cy="99" r="0.9" fill="white" opacity="0.48"/>
  <circle cx="454" cy="163" r="0.3" fill="white" opacity="0.17"/>
  <circle cx="224" cy="135" r="0.3" fill="white" opacity="0.50"/>
  <circle cx="134" cy="15" r="0.6" fill="white" opacity="0.12"/>
  <circle cx="366" cy="35" r="0.4" fill="white" opacity="0.52"/>
  <circle cx="460" cy="151" r="0.9" fill="white" opacity="0.52"/>
  <circle cx="412" cy="43" r="0.6" fill="white" opacity="0.40"/>
  <circle cx="314" cy="135" r="0.9" fill="white" opacity="0.16"/>
  <circle cx="224" cy="319" r="0.3" fill="white" opacity="0.42"/>
  <circle cx="172" cy="127" r="0.4" fill="white" opacity="0.56"/>
  <circle cx="278" cy="343" r="0.4" fill="white" opacity="0.44"/>
  <circle cx="386" cy="31" r="0.8" fill="white" opacity="0.51"/>
  <circle cx="188" cy="103" r="0.6" fill="white" opacity="0.32"/>
  <circle cx="204" cy="91" r="0.3" fill="white" opacity="0.46"/>
  <circle cx="64" cy="15" r="0.3" fill="white" opacity="0.34"/>
  <circle cx="226" cy="127" r="0.6" fill="white" opacity="0.41"/>
  <circle cx="258" cy="67" r="0.4" fill="white" opacity="0.36"/>
  <circle cx="66" cy="299" r="0.6" fill="white" opacity="0.36"/>
  <circle cx="18" cy="163" r="0.6" fill="white" opacity="0.24"/>
  <circle cx="324" cy="339" r="0.9" fill="white" opacity="0.31"/>
  <circle cx="310" cy="39" r="0.8" fill="white" opacity="0.26"/>
  <circle cx="248" cy="239" r="0.4" fill="white" opacity="0.40"/>
  <circle cx="382" cy="279" r="0.4" fill="white" opacity="0.28"/>
  <circle cx="190" cy="327" r="0.8" fill="white" opacity="0.35"/>
  <circle cx="344" cy="191" r="0.6" fill="white" opacity="0.16"/>
  <circle cx="136" cy="83" r="0.3" fill="white" opacity="0.30"/>
  <circle cx="424" cy="191" r="0.8" fill="white" opacity="0.18"/>
  <circle cx="438" cy="175" r="0.3" fill="white" opacity="0.25"/>
  <circle cx="484" cy="267" r="0.4" fill="white" opacity="0.20"/>
  <circle cx="468" cy="339" r="0.6" fill="white" opacity="0.20"/>
  <circle cx="386" cy="155" r="0.6" fill="white" opacity="0.53"/>
  <circle cx="454" cy="139" r="0.9" fill="white" opacity="0.15"/>
  <circle cx="116" cy="183" r="0.8" fill="white" opacity="0.55"/>
  <circle cx="16" cy="159" r="0.4" fill="white" opacity="0.24"/>
  <circle cx="26" cy="171" r="0.9" fill="white" opacity="0.12"/>
  <circle cx="238" cy="303" r="0.4" fill="white" opacity="0.19"/>
  <circle cx="344" cy="23" r="0.6" fill="white" opacity="0.45"/>
  <circle cx="250" cy="51" r="0.8" fill="white" opacity="0.14"/>
  <circle cx="200" cy="323" r="0.8" fill="white" opacity="0.47"/>
  <circle cx="404" cy="243" r="0.3" fill="white" opacity="0.54"/>
  <circle cx="188" cy="127" r="0.9" fill="white" opacity="0.35"/>
  <circle cx="438" cy="187" r="0.6" fill="white" opacity="0.49"/>
  <circle cx="294" cy="103" r="0.6" fill="white" opacity="0.37"/>
  <circle cx="338" cy="43" r="0.9" fill="white" opacity="0.44"/>
  <circle cx="14" cy="155" r="0.8" fill="white" opacity="0.39"/>
  <circle cx="332" cy="55" r="0.9" fill="white" opacity="0.39"/>
  <circle cx="66" cy="19" r="0.9" fill="white" opacity="0.27"/>
  <circle cx="40" cy="299" r="0.4" fill="white" opacity="0.48"/>
  <circle cx="312" cy="23" r="0.3" fill="white" opacity="0.29"/>
  <circle cx="56" cy="167" r="0.8" fill="white" opacity="0.43"/>
  <circle cx="372" cy="327" r="0.8" fill="white" opacity="0.31"/>
  <circle cx="490" cy="75" r="0.3" fill="white" opacity="0.38"/>
  <circle cx="350" cy="155" r="0.9" fill="white" opacity="0.19"/>
  <circle cx="100" cy="267" r="0.3" fill="white" opacity="0.33"/>
  <circle cx="108" cy="91" r="0.3" fill="white" opacity="0.21"/>
  <circle cx="342" cy="307" r="0.6" fill="white" opacity="0.28"/>
  <circle cx="246" cy="211" r="0.4" fill="white" opacity="0.23"/>
  <circle cx="464" cy="15" r="0.9" fill="white" opacity="0.23"/>
  <circle cx="12" cy="163" r="0.9" fill="white" opacity="0.56"/>
  <circle cx="452" cy="59" r="0.4" fill="white" opacity="0.32"/>
  <circle cx="248" cy="107" r="0.3" fill="white" opacity="0.13"/>
  <circle cx="44" cy="175" r="0.8" fill="white" opacity="0.27"/>
  <circle cx="450" cy="31" r="0.4" fill="white" opacity="0.15"/>
  <circle cx="330" cy="267" r="0.8" fill="white" opacity="0.22"/>
  <circle cx="356" cy="11" r="0.9" fill="white" opacity="0.48"/>
  <circle cx="434" cy="239" r="0.3" fill="white" opacity="0.17"/>
  <circle cx="318" cy="291" r="0.3" fill="white" opacity="0.50"/>
  <circle cx="466" cy="251" r="0.6" fill="white" opacity="0.12"/>
  <circle cx="446" cy="11" r="0.4" fill="white" opacity="0.52"/>
  <circle cx="164" cy="291" r="0.9" fill="white" opacity="0.52"/>
  <circle cx="354" cy="263" r="0.6" fill="white" opacity="0.40"/>
  <circle cx="494" cy="95" r="0.9" fill="white" opacity="0.16"/>
  <circle cx="152" cy="19" r="0.3" fill="white" opacity="0.42"/>
  <circle cx="214" cy="331" r="0.4" fill="white" opacity="0.56"/>
  <circle cx="434" cy="287" r="0.4" fill="white" opacity="0.44"/>
  <circle cx="290" cy="55" r="0.8" fill="white" opacity="0.51"/>
  <circle cx="330" cy="207" r="0.6" fill="white" opacity="0.32"/>
  <circle cx="460" cy="19" r="0.3" fill="white" opacity="0.46"/>
  <circle cx="68" cy="107" r="0.3" fill="white" opacity="0.34"/>
  <circle cx="344" cy="215" r="0.6" fill="white" opacity="0.41"/>
  <circle cx="490" cy="319" r="0.4" fill="white" opacity="0.36"/>
  <circle cx="46" cy="35" r="0.6" fill="white" opacity="0.36"/>
  <circle cx="236" cy="235" r="0.6" fill="white" opacity="0.24"/>
  <circle cx="166" cy="151" r="0.9" fill="white" opacity="0.31"/>
  <circle cx="266" cy="15" r="0.8" fill="white" opacity="0.26"/>
  <circle cx="442" cy="295" r="0.4" fill="white" opacity="0.40"/>
  <circle cx="324" cy="159" r="0.4" fill="white" opacity="0.28"/>
  <circle cx="370" cy="287" r="0.8" fill="white" opacity="0.35"/>
  <circle cx="148" cy="231" r="0.6" fill="white" opacity="0.16"/>
  <circle cx="178" cy="287" r="0.3" fill="white" opacity="0.30"/>
  <circle cx="90" cy="135" r="0.8" fill="white" opacity="0.18"/>
  <circle cx="342" cy="199" r="0.3" fill="white" opacity="0.25"/>
  <circle cx="12" cy="31" r="0.4" fill="white" opacity="0.20"/>
  <circle cx="234" cy="267" r="0.6" fill="white" opacity="0.20"/>
  <circle cx="390" cy="163" r="0.6" fill="white" opacity="0.53"/>
  <circle cx="82" cy="311" r="0.9" fill="white" opacity="0.15"/>
  <circle cx="472" cy="95" r="0.8" fill="white" opacity="0.55"/>
  <circle cx="486" cy="235" r="0.4" fill="white" opacity="0.24"/>
  <circle cx="244" cy="327" r="0.9" fill="white" opacity="0.12"/>
  <line x1="282.1" y1="198.4" x2="322.7" y2="198.6" stroke="#90D8C8" stroke-width="1.2" opacity="0.55" stroke-linecap="round"/><line x1="322.7" y1="198.6" x2="321.3" y2="195.8" stroke="#90D8C8" stroke-width="1.2" opacity="0.55" stroke-linecap="round"/><line x1="321.3" y1="195.8" x2="315.9" y2="192.8" stroke="#90D8C8" stroke-width="1.2" opacity="0.55" stroke-linecap="round"/><line x1="315.9" y1="192.8" x2="52.7" y2="219.8" stroke="#90D8C8" stroke-width="1.2" opacity="0.55" stroke-linecap="round"/><line x1="52.7" y1="219.8" x2="158.5" y2="203.1" stroke="#90D8C8" stroke-width="1.2" opacity="0.55" stroke-linecap="round"/><line x1="158.5" y1="203.1" x2="222.6" y2="203.6" stroke="#90D8C8" stroke-width="1.2" opacity="0.55" stroke-linecap="round"/><line x1="222.6" y1="203.6" x2="224.2" y2="201.7" stroke="#90D8C8" stroke-width="1.2" opacity="0.55" stroke-linecap="round"/><line x1="282.1" y1="198.4" x2="158.5" y2="203.1" stroke="#90D8C8" stroke-width="1.2" opacity="0.55" stroke-linecap="round"/><line x1="246.4" y1="200.5" x2="241.8" y2="201.5" stroke="#90D8C8" stroke-width="1.2" opacity="0.55" stroke-linecap="round"/><line x1="246.4" y1="200.5" x2="245.0" y2="201.8" stroke="#90D8C8" stroke-width="1.2" opacity="0.55" stroke-linecap="round"/><line x1="245.0" y1="201.8" x2="241.8" y2="201.5" stroke="#90D8C8" stroke-width="1.2" opacity="0.55" stroke-linecap="round"/>
  <circle cx="245.0" cy="201.8" r="7.3" fill="#90D8C8" opacity="0.08"/><circle cx="245.0" cy="201.8" r="4.3" fill="#90D8C8" opacity="0.18"/><circle cx="245.0" cy="201.8" r="3.3" fill="white" opacity="0.95"/><circle cx="245.0" cy="201.8" r="1.3" fill="#90D8C8" opacity="0.9"/><circle cx="282.1" cy="198.4" r="7.1" fill="#90D8C8" opacity="0.08"/><circle cx="282.1" cy="198.4" r="4.2" fill="#90D8C8" opacity="0.18"/><circle cx="282.1" cy="198.4" r="3.2" fill="white" opacity="0.95"/><circle cx="282.1" cy="198.4" r="1.3" fill="#90D8C8" opacity="0.9"/><circle cx="222.6" cy="203.6" r="6.0" fill="#90D8C8" opacity="0.08"/><circle cx="222.6" cy="203.6" r="3.5" fill="#90D8C8" opacity="0.18"/><circle cx="222.6" cy="203.6" r="2.7" fill="white" opacity="0.95"/><circle cx="222.6" cy="203.6" r="1.1" fill="#90D8C8" opacity="0.9"/><circle cx="52.7" cy="219.8" r="5.6" fill="#90D8C8" opacity="0.08"/><circle cx="52.7" cy="219.8" r="3.3" fill="#90D8C8" opacity="0.18"/><circle cx="52.7" cy="219.8" r="2.6" fill="white" opacity="0.95"/><circle cx="52.7" cy="219.8" r="1.0" fill="#90D8C8" opacity="0.9"/><circle cx="315.9" cy="192.8" r="5.5" fill="#90D8C8" opacity="0.08"/><circle cx="315.9" cy="192.8" r="3.2" fill="#90D8C8" opacity="0.18"/><circle cx="315.9" cy="192.8" r="2.5" fill="white" opacity="0.95"/><circle cx="315.9" cy="192.8" r="1.0" fill="#90D8C8" opacity="0.9"/><circle cx="158.5" cy="203.1" r="5.5" fill="#90D8C8" opacity="0.08"/><circle cx="158.5" cy="203.1" r="3.2" fill="#90D8C8" opacity="0.18"/><circle cx="158.5" cy="203.1" r="2.5" fill="white" opacity="0.95"/><circle cx="158.5" cy="203.1" r="1.0" fill="#90D8C8" opacity="0.9"/><circle cx="322.7" cy="198.6" r="5.5" fill="#90D8C8" opacity="0.08"/><circle cx="322.7" cy="198.6" r="3.2" fill="#90D8C8" opacity="0.18"/><circle cx="322.7" cy="198.6" r="2.5" fill="white" opacity="0.95"/><circle cx="322.7" cy="198.6" r="1.0" fill="#90D8C8" opacity="0.9"/><circle cx="321.3" cy="195.8" r="5.5" fill="#90D8C8" opacity="0.08"/><circle cx="321.3" cy="195.8" r="3.2" fill="#90D8C8" opacity="0.18"/><circle cx="321.3" cy="195.8" r="2.5" fill="white" opacity="0.95"/><circle cx="321.3" cy="195.8" r="1.0" fill="#90D8C8" opacity="0.9"/><circle cx="224.2" cy="201.7" r="5.5" fill="#90D8C8" opacity="0.08"/><circle cx="224.2" cy="201.7" r="3.2" fill="#90D8C8" opacity="0.18"/><circle cx="224.2" cy="201.7" r="2.5" fill="white" opacity="0.95"/><circle cx="224.2" cy="201.7" r="1.0" fill="#90D8C8" opacity="0.9"/><circle cx="246.4" cy="200.5" r="6.6" fill="#90D8C8" opacity="0.08"/><circle cx="246.4" cy="200.5" r="3.9" fill="#90D8C8" opacity="0.18"/><circle cx="246.4" cy="200.5" r="3.0" fill="white" opacity="0.95"/><circle cx="246.4" cy="200.5" r="1.2" fill="#90D8C8" opacity="0.9"/><circle cx="241.8" cy="201.5" r="5.5" fill="#90D8C8" opacity="0.08"/><circle cx="241.8" cy="201.5" r="3.2" fill="#90D8C8" opacity="0.18"/><circle cx="241.8" cy="201.5" r="2.5" fill="white" opacity="0.95"/><circle cx="241.8" cy="201.5" r="1.0" fill="#90D8C8" opacity="0.9"/>
  <text x="250" y="438" text-anchor="middle" font-family="Georgia,serif" font-size="24" fill="#90D8C8" opacity="0.95" letter-spacing="4">PISCES</text>
  <text x="250" y="462" text-anchor="middle" font-family="Georgia,serif" font-size="12" fill="#aaaaaa" letter-spacing="2">19 Feb – 20 Mar</text>
  <text x="250" y="488" text-anchor="middle" font-family="Georgia,serif" font-size="18" fill="#90D8C8" opacity="0.65">♓</text>
</svg>