<svg xmlns="http://www.w3.org/2000/svg" viewBox="0 0 400 300">
<defs>
<radialGradient id="bg" cx="50%" cy="50%" r="70%"><stop offset="0%" stop-color="#0d1b35"/><stop offset="100%" stop-color="#020509"/></radialGradient>
<filter id="glow"><feGaussianBlur stdDeviation="2" result="blur"/><feMerge><feMergeNode in="blur"/><feMergeNode in="SourceGraphic"/></feMerge></filter>
</defs>
<rect width="400" height="300" fill="url(#bg)"/>
<circle cx="182.3" cy="280.2" r="0.8" fill="white" opacity="0.46"/>
<circle cx="205.5" cy="272.1" r="0.7" fill="white" opacity="0.3"/>
<circle cx="104.2" cy="215.9" r="0.8" fill="white" opacity="0.36"/>
<circle cx="398.4" cy="261.2" r="0.3" fill="white" opacity="0.42"/>
<circle cx="226.8" cy="121.7" r="0.7" fill="white" opacity="0.57"/>
<circle cx="108.8" cy="41.7" r="0.7" fill="white" opacity="0.35"/>
<circle cx="295.6" cy="58.4" r="0.4" fill="white" opacity="0.2"/>
<circle cx="135.4" cy="281.1" r="0.5" fill="white" opacity="0.44"/>
<circle cx="21.4" cy="125.9" r="0.4" fill="white" opacity="0.25"/>
<circle cx="376.0" cy="74.0" r="0.4" fill="white" opacity="0.56"/>
<circle cx="236.1" cy="279.0" r="0.3" fill="white" opacity="0.55"/>
<circle cx="354.8" cy="19.0" r="0.7" fill="white" opacity="0.39"/>
<circle cx="117.6" cy="86.9" r="0.4" fill="white" opacity="0.55"/>
<circle cx="158.3" cy="179.6" r="0.5" fill="white" opacity="0.38"/>
<circle cx="74.8" cy="33.1" r="0.5" fill="white" opacity="0.51"/>
<circle cx="299.1" cy="114.6" r="0.6" fill="white" opacity="0.22"/>
<circle cx="140.4" cy="64.9" r="0.8" fill="white" opacity="0.44"/>
<circle cx="262.9" cy="216.0" r="0.4" fill="white" opacity="0.36"/>
<circle cx="129.9" cy="89.0" r="0.5" fill="white" opacity="0.32"/>
<circle cx="10.0" cy="163.5" r="0.6" fill="white" opacity="0.52"/>
<circle cx="29.7" cy="266.8" r="0.4" fill="white" opacity="0.51"/>
<circle cx="251.9" cy="252.1" r="0.6" fill="white" opacity="0.33"/>
<circle cx="331.3" cy="139.0" r="0.4" fill="white" opacity="0.5"/>
<circle cx="193.9" cy="242.1" r="0.7" fill="white" opacity="0.39"/>
<circle cx="53.1" cy="87.3" r="0.5" fill="white" opacity="0.47"/>
<circle cx="69.2" cy="203.3" r="0.6" fill="white" opacity="0.4"/>
<circle cx="167.4" cy="42.5" r="0.6" fill="white" opacity="0.53"/>
<circle cx="383.3" cy="78.2" r="0.6" fill="white" opacity="0.32"/>
<circle cx="225.1" cy="253.2" r="0.5" fill="white" opacity="0.36"/>
<circle cx="72.8" cy="225.6" r="0.4" fill="white" opacity="0.26"/>
<circle cx="143.9" cy="132.7" r="0.8" fill="white" opacity="0.38"/>
<circle cx="265.0" cy="91.3" r="0.6" fill="white" opacity="0.41"/>
<circle cx="328.5" cy="263.3" r="0.6" fill="white" opacity="0.38"/>
<circle cx="282.9" cy="189.5" r="0.6" fill="white" opacity="0.47"/>
<circle cx="63.7" cy="244.7" r="0.4" fill="white" opacity="0.4"/>
<circle cx="94.8" cy="172.7" r="0.5" fill="white" opacity="0.49"/>
<circle cx="170.8" cy="112.0" r="0.5" fill="white" opacity="0.36"/>
<circle cx="247.2" cy="246.5" r="0.6" fill="white" opacity="0.36"/>
<circle cx="124.4" cy="293.0" r="0.4" fill="white" opacity="0.52"/>
<circle cx="51.8" cy="74.2" r="0.6" fill="white" opacity="0.22"/>
<circle cx="131.6" cy="60.7" r="0.6" fill="white" opacity="0.38"/>
<circle cx="299.0" cy="238.5" r="0.4" fill="white" opacity="0.45"/>
<circle cx="1.6" cy="259.8" r="0.7" fill="white" opacity="0.5"/>
<circle cx="19.0" cy="103.1" r="0.3" fill="white" opacity="0.24"/>
<circle cx="178.8" cy="176.1" r="0.7" fill="white" opacity="0.49"/>
<circle cx="143.4" cy="6.4" r="0.7" fill="white" opacity="0.23"/>
<circle cx="204.6" cy="134.7" r="0.5" fill="white" opacity="0.35"/>
<circle cx="385.0" cy="256.6" r="0.6" fill="white" opacity="0.59"/>
<circle cx="79.1" cy="181.9" r="0.5" fill="white" opacity="0.32"/>
<circle cx="113.3" cy="66.4" r="0.3" fill="white" opacity="0.28"/>
<circle cx="184.2" cy="13.1" r="0.5" fill="white" opacity="0.31"/>
<circle cx="285.5" cy="65.6" r="0.5" fill="white" opacity="0.24"/>
<circle cx="70.1" cy="117.5" r="0.7" fill="white" opacity="0.48"/>
<circle cx="176.6" cy="220.2" r="0.5" fill="white" opacity="0.55"/>
<circle cx="39.8" cy="82.7" r="0.3" fill="white" opacity="0.22"/>
<circle cx="302.3" cy="294.7" r="0.5" fill="white" opacity="0.33"/>
<circle cx="339.5" cy="62.0" r="0.7" fill="white" opacity="0.33"/>
<circle cx="139.1" cy="82.8" r="0.5" fill="white" opacity="0.22"/>
<circle cx="247.1" cy="237.0" r="0.4" fill="white" opacity="0.22"/>
<circle cx="207.1" cy="23.4" r="0.7" fill="white" opacity="0.3"/>
<line x1="216.0" y1="100.0" x2="168.0" y2="110.0" stroke="rgba(180,200,255,0.45)" stroke-width="1"/>
<line x1="168.0" y1="110.0" x2="136.0" y2="130.0" stroke="rgba(180,200,255,0.45)" stroke-width="1"/>
<line x1="136.0" y1="130.0" x2="161.6" y2="144.0" stroke="rgba(180,200,255,0.45)" stroke-width="1"/>
<line x1="161.6" y1="144.0" x2="200.0" y2="156.0" stroke="rgba(180,200,255,0.45)" stroke-width="1"/>
<line x1="200.0" y1="156.0" x2="232.0" y2="140.0" stroke="rgba(180,200,255,0.45)" stroke-width="1"/>
<line x1="232.0" y1="140.0" x2="248.0" y2="120.0" stroke="rgba(180,200,255,0.45)" stroke-width="1"/>
<line x1="248.0" y1="120.0" x2="216.0" y2="100.0" stroke="rgba(180,200,255,0.45)" stroke-width="1"/>
<line x1="161.6" y1="144.0" x2="248.0" y2="120.0" stroke="rgba(180,200,255,0.45)" stroke-width="1"/>
<line x1="200.0" y1="156.0" x2="184.0" y2="176.0" stroke="rgba(180,200,255,0.45)" stroke-width="1"/>
<line x1="161.6" y1="144.0" x2="232.0" y2="140.0" stroke="rgba(180,200,255,0.45)" stroke-width="1"/>
<circle cx="216.0" cy="100.0" r="4.5" fill="#e2e8f0" opacity="0.25" filter="url(#glow)"/>
<circle cx="216.0" cy="100.0" r="3.0" fill="#e2e8f0"/>
<circle cx="168.0" cy="110.0" r="4.0" fill="white" opacity="0.25" filter="url(#glow)"/>
<circle cx="168.0" cy="110.0" r="2.5" fill="white"/>
<circle cx="136.0" cy="130.0" r="3.5" fill="white" opacity="0.25" filter="url(#glow)"/>
<circle cx="136.0" cy="130.0" r="2.0" fill="white"/>
<circle cx="161.6" cy="144.0" r="5.5" fill="#fef3c7" opacity="0.25" filter="url(#glow)"/>
<circle cx="161.6" cy="144.0" r="4.0" fill="#fef3c7"/>
<circle cx="200.0" cy="156.0" r="4.5" fill="#e2e8f0" opacity="0.25" filter="url(#glow)"/>
<circle cx="200.0" cy="156.0" r="3.0" fill="#e2e8f0"/>
<circle cx="232.0" cy="140.0" r="3.5" fill="white" opacity="0.25" filter="url(#glow)"/>
<circle cx="232.0" cy="140.0" r="2.0" fill="white"/>
<circle cx="248.0" cy="120.0" r="4.0" fill="white" opacity="0.25" filter="url(#glow)"/>
<circle cx="248.0" cy="120.0" r="2.5" fill="white"/>
<circle cx="270.4" cy="150.0" r="3.5" fill="white" opacity="0.25" filter="url(#glow)"/>
<circle cx="270.4" cy="150.0" r="2.0" fill="white"/>
<circle cx="184.0" cy="176.0" r="3.5" fill="white" opacity="0.25" filter="url(#glow)"/>
<circle cx="184.0" cy="176.0" r="2.0" fill="white"/>
<text x="200" y="290" text-anchor="middle" font-family="sans-serif" font-size="13" fill="rgba(180,210,255,0.7)" letter-spacing="2">SAGITTARIO</text>
</svg>