<svg xmlns="http://www.w3.org/2000/svg" viewBox="0 0 500 500" width="500" height="500">
  <rect width="500" height="500" fill="#080f1a"/>
  <circle cx="164" cy="59" r="0.3" fill="white" opacity="0.25"/>
  <circle cx="224" cy="247" r="0.4" fill="white" opacity="0.20"/>
  <circle cx="346" cy="159" r="0.6" fill="white" opacity="0.20"/>
  <circle cx="36" cy="71" r="0.6" fill="white" opacity="0.53"/>
  <circle cx="118" cy="235" r="0.9" fill="white" opacity="0.15"/>
  <circle cx="408" cy="35" r="0.8" fill="white" opacity="0.55"/>
  <circle cx="322" cy="191" r="0.4" fill="white" opacity="0.24"/>
  <circle cx="104" cy="299" r="0.9" fill="white" opacity="0.12"/>
  <circle cx="454" cy="187" r="0.4" fill="white" opacity="0.19"/>
  <circle cx="208" cy="87" r="0.6" fill="white" opacity="0.45"/>
  <circle cx="252" cy="211" r="0.8" fill="white" opacity="0.14"/>
  <circle cx="216" cy="239" r="0.8" fill="white" opacity="0.47"/>
  <circle cx="68" cy="339" r="0.3" fill="white" opacity="0.54"/>
  <circle cx="480" cy="319" r="0.9" fill="white" opacity="0.35"/>
  <circle cx="378" cy="219" r="0.6" fill="white" opacity="0.49"/>
  <circle cx="372" cy="231" r="0.6" fill="white" opacity="0.37"/>
  <circle cx="430" cy="267" r="0.9" fill="white" opacity="0.44"/>
  <circle cx="244" cy="219" r="0.8" fill="white" opacity="0.39"/>
  <circle cx="334" cy="215" r="0.9" fill="white" opacity="0.39"/>
  <circle cx="82" cy="19" r="0.9" fill="white" opacity="0.27"/>
  <circle cx="194" cy="55" r="0.4" fill="white" opacity="0.48"/>
  <circle cx="114" cy="215" r="0.3" fill="white" opacity="0.29"/>
  <circle cx="486" cy="115" r="0.8" fill="white" opacity="0.43"/>
  <circle cx="326" cy="115" r="0.8" fill="white" opacity="0.31"/>
  <circle cx="216" cy="299" r="0.3" fill="white" opacity="0.38"/>
  <circle cx="90" cy="219" r="0.9" fill="white" opacity="0.19"/>
  <circle cx="468" cy="87" r="0.3" fill="white" opacity="0.33"/>
  <circle cx="124" cy="7" r="0.3" fill="white" opacity="0.21"/>
  <circle cx="6" cy="63" r="0.6" fill="white" opacity="0.28"/>
  <circle cx="48" cy="63" r="0.4" fill="white" opacity="0.23"/>
  <circle cx="404" cy="47" r="0.9" fill="white" opacity="0.23"/>
  <circle cx="90" cy="291" r="0.9" fill="white" opacity="0.56"/>
  <circle cx="54" cy="283" r="0.4" fill="white" opacity="0.32"/>
  <circle cx="112" cy="171" r="0.3" fill="white" opacity="0.13"/>
  <circle cx="412" cy="251" r="0.8" fill="white" opacity="0.27"/>
  <circle cx="466" cy="287" r="0.4" fill="white" opacity="0.15"/>
  <circle cx="484" cy="279" r="0.8" fill="white" opacity="0.22"/>
  <circle cx="158" cy="203" r="0.9" fill="white" opacity="0.48"/>
  <circle cx="374" cy="187" r="0.3" fill="white" opacity="0.17"/>
  <circle cx="396" cy="79" r="0.3" fill="white" opacity="0.50"/>
  <circle cx="192" cy="135" r="0.6" fill="white" opacity="0.12"/>
  <circle cx="186" cy="75" r="0.4" fill="white" opacity="0.52"/>
  <circle cx="42" cy="111" r="0.9" fill="white" opacity="0.52"/>
  <circle cx="370" cy="179" r="0.6" fill="white" opacity="0.40"/>
  <circle cx="158" cy="191" r="0.9" fill="white" opacity="0.16"/>
  <circle cx="320" cy="211" r="0.3" fill="white" opacity="0.42"/>
  <circle cx="154" cy="279" r="0.4" fill="white" opacity="0.56"/>
  <circle cx="22" cy="75" r="0.4" fill="white" opacity="0.44"/>
  <circle cx="382" cy="23" r="0.8" fill="white" opacity="0.51"/>
  <circle cx="70" cy="271" r="0.6" fill="white" opacity="0.32"/>
  <circle cx="462" cy="179" r="0.3" fill="white" opacity="0.46"/>
  <circle cx="84" cy="23" r="0.3" fill="white" opacity="0.34"/>
  <circle cx="8" cy="311" r="0.6" fill="white" opacity="0.41"/>
  <circle cx="292" cy="171" r="0.4" fill="white" opacity="0.36"/>
  <circle cx="476" cy="323" r="0.6" fill="white" opacity="0.36"/>
  <circle cx="190" cy="23" r="0.6" fill="white" opacity="0.24"/>
  <circle cx="382" cy="119" r="0.9" fill="white" opacity="0.31"/>
  <circle cx="130" cy="79" r="0.8" fill="white" opacity="0.26"/>
  <circle cx="444" cy="115" r="0.4" fill="white" opacity="0.40"/>
  <circle cx="464" cy="75" r="0.4" fill="white" opacity="0.28"/>
  <circle cx="34" cy="43" r="0.8" fill="white" opacity="0.35"/>
  <circle cx="440" cy="83" r="0.6" fill="white" opacity="0.16"/>
  <circle cx="118" cy="319" r="0.3" fill="white" opacity="0.30"/>
  <circle cx="168" cy="263" r="0.8" fill="white" opacity="0.18"/>
  <circle cx="68" cy="167" r="0.3" fill="white" opacity="0.25"/>
  <circle cx="366" cy="95" r="0.4" fill="white" opacity="0.20"/>
  <circle cx="112" cy="87" r="0.6" fill="white" opacity="0.20"/>
  <circle cx="406" cy="163" r="0.6" fill="white" opacity="0.53"/>
  <circle cx="236" cy="67" r="0.9" fill="white" opacity="0.15"/>
  <circle cx="274" cy="287" r="0.8" fill="white" opacity="0.55"/>
  <circle cx="426" cy="183" r="0.4" fill="white" opacity="0.24"/>
  <circle cx="322" cy="115" r="0.9" fill="white" opacity="0.12"/>
  <circle cx="296" cy="83" r="0.4" fill="white" opacity="0.19"/>
  <circle cx="288" cy="63" r="0.6" fill="white" opacity="0.45"/>
  <circle cx="446" cy="267" r="0.8" fill="white" opacity="0.14"/>
  <circle cx="158" cy="119" r="0.8" fill="white" opacity="0.47"/>
  <circle cx="248" cy="299" r="0.3" fill="white" opacity="0.54"/>
  <circle cx="284" cy="103" r="0.9" fill="white" opacity="0.35"/>
  <circle cx="296" cy="83" r="0.6" fill="white" opacity="0.49"/>
  <circle cx="38" cy="175" r="0.6" fill="white" opacity="0.37"/>
  <circle cx="334" cy="35" r="0.9" fill="white" opacity="0.44"/>
  <circle cx="386" cy="323" r="0.8" fill="white" opacity="0.39"/>
  <circle cx="100" cy="143" r="0.9" fill="white" opacity="0.39"/>
  <circle cx="86" cy="27" r="0.9" fill="white" opacity="0.27"/>
  <circle cx="312" cy="227" r="0.4" fill="white" opacity="0.48"/>
  <circle cx="470" cy="127" r="0.3" fill="white" opacity="0.29"/>
  <circle cx="466" cy="191" r="0.8" fill="white" opacity="0.43"/>
  <circle cx="54" cy="271" r="0.8" fill="white" opacity="0.31"/>
  <circle cx="58" cy="195" r="0.3" fill="white" opacity="0.38"/>
  <circle cx="170" cy="195" r="0.9" fill="white" opacity="0.19"/>
  <circle cx="296" cy="227" r="0.3" fill="white" opacity="0.33"/>
  <circle cx="190" cy="227" r="0.3" fill="white" opacity="0.21"/>
  <circle cx="62" cy="23" r="0.6" fill="white" opacity="0.28"/>
  <circle cx="342" cy="187" r="0.4" fill="white" opacity="0.23"/>
  <circle cx="322" cy="251" r="0.9" fill="white" opacity="0.23"/>
  <circle cx="246" cy="235" r="0.9" fill="white" opacity="0.56"/>
  <circle cx="448" cy="307" r="0.4" fill="white" opacity="0.32"/>
  <circle cx="130" cy="19" r="0.3" fill="white" opacity="0.13"/>
  <circle cx="178" cy="263" r="0.8" fill="white" opacity="0.27"/>
  <circle cx="346" cy="295" r="0.4" fill="white" opacity="0.15"/>
  <line x1="111.6" y1="127.7" x2="109.9" y2="91.8" stroke="#E87070" stroke-width="1.2" opacity="0.55" stroke-linecap="round"/><line x1="109.9" y1="91.8" x2="180.8" y2="124.5" stroke="#E87070" stroke-width="1.2" opacity="0.55" stroke-linecap="round"/><line x1="180.8" y1="124.5" x2="232.6" y2="235.2" stroke="#E87070" stroke-width="1.2" opacity="0.55" stroke-linecap="round"/><line x1="232.6" y1="235.2" x2="313.0" y2="228.6" stroke="#E87070" stroke-width="1.2" opacity="0.55" stroke-linecap="round"/><line x1="313.0" y1="228.6" x2="313.0" y2="228.6" stroke="#E87070" stroke-width="1.2" opacity="0.55" stroke-linecap="round"/><line x1="313.0" y1="228.6" x2="328.4" y2="249.0" stroke="#E87070" stroke-width="1.2" opacity="0.55" stroke-linecap="round"/><line x1="328.4" y1="249.0" x2="336.7" y2="260.9" stroke="#E87070" stroke-width="1.2" opacity="0.55" stroke-linecap="round"/><line x1="336.7" y1="260.9" x2="315.0" y2="286.8" stroke="#E87070" stroke-width="1.2" opacity="0.55" stroke-linecap="round"/>
  <circle cx="180.8" cy="124.5" r="15.8" fill="#E87070" opacity="0.08"/><circle cx="180.8" cy="124.5" r="9.3" fill="#E87070" opacity="0.18"/><circle cx="180.8" cy="124.5" r="7.2" fill="white" opacity="0.95"/><circle cx="180.8" cy="124.5" r="2.9" fill="#E87070" opacity="0.9"/><text x="193.0" y="120.5" font-family="Georgia,serif" font-size="9" fill="#E87070" opacity="0.6">Antares</text><circle cx="313.0" cy="228.6" r="13.9" fill="#E87070" opacity="0.08"/><circle cx="313.0" cy="228.6" r="8.2" fill="#E87070" opacity="0.18"/><circle cx="313.0" cy="228.6" r="6.3" fill="white" opacity="0.95"/><circle cx="313.0" cy="228.6" r="2.5" fill="#E87070" opacity="0.9"/><text x="324.3" y="224.6" font-family="Georgia,serif" font-size="9" fill="#E87070" opacity="0.6">Shaula</text><circle cx="315.0" cy="286.8" r="13.1" fill="#E87070" opacity="0.08"/><circle cx="315.0" cy="286.8" r="7.7" fill="#E87070" opacity="0.18"/><circle cx="315.0" cy="286.8" r="6.0" fill="white" opacity="0.95"/><circle cx="315.0" cy="286.8" r="2.4" fill="#E87070" opacity="0.9"/><text x="326.0" y="282.8" font-family="Georgia,serif" font-size="9" fill="#E87070" opacity="0.6">Sargas</text><circle cx="109.9" cy="91.8" r="11.7" fill="#E87070" opacity="0.08"/><circle cx="109.9" cy="91.8" r="6.9" fill="#E87070" opacity="0.18"/><circle cx="109.9" cy="91.8" r="5.3" fill="white" opacity="0.95"/><circle cx="109.9" cy="91.8" r="2.1" fill="#E87070" opacity="0.9"/><text x="120.2" y="87.8" font-family="Georgia,serif" font-size="9" fill="#E87070" opacity="0.6">Dschubba</text><circle cx="111.6" cy="127.7" r="10.6" fill="#E87070" opacity="0.08"/><circle cx="111.6" cy="127.7" r="6.3" fill="#E87070" opacity="0.18"/><circle cx="111.6" cy="127.7" r="4.8" fill="white" opacity="0.95"/><circle cx="111.6" cy="127.7" r="1.9" fill="#E87070" opacity="0.9"/><circle cx="111.9" cy="127.7" r="9.7" fill="#E87070" opacity="0.08"/><circle cx="111.9" cy="127.7" r="5.7" fill="#E87070" opacity="0.18"/><circle cx="111.9" cy="127.7" r="4.4" fill="white" opacity="0.95"/><circle cx="111.9" cy="127.7" r="1.8" fill="#E87070" opacity="0.9"/><circle cx="313.0" cy="228.6" r="13.9" fill="#E87070" opacity="0.08"/><circle cx="313.0" cy="228.6" r="8.2" fill="#E87070" opacity="0.18"/><circle cx="313.0" cy="228.6" r="6.3" fill="white" opacity="0.95"/><circle cx="313.0" cy="228.6" r="2.5" fill="#E87070" opacity="0.9"/><text x="324.3" y="224.6" font-family="Georgia,serif" font-size="9" fill="#E87070" opacity="0.6">Lambda Sco</text><circle cx="328.4" cy="249.0" r="11.4" fill="#E87070" opacity="0.08"/><circle cx="328.4" cy="249.0" r="6.7" fill="#E87070" opacity="0.18"/><circle cx="328.4" cy="249.0" r="5.2" fill="white" opacity="0.95"/><circle cx="328.4" cy="249.0" r="2.1" fill="#E87070" opacity="0.9"/><text x="338.5" y="245.0" font-family="Georgia,serif" font-size="9" fill="#E87070" opacity="0.6">Kappa Sco</text><circle cx="336.7" cy="260.9" r="9.3" fill="#E87070" opacity="0.08"/><circle cx="336.7" cy="260.9" r="5.5" fill="#E87070" opacity="0.18"/><circle cx="336.7" cy="260.9" r="4.2" fill="white" opacity="0.95"/><circle cx="336.7" cy="260.9" r="1.7" fill="#E87070" opacity="0.9"/><circle cx="315.0" cy="286.8" r="13.1" fill="#E87070" opacity="0.08"/><circle cx="315.0" cy="286.8" r="7.7" fill="#E87070" opacity="0.18"/><circle cx="315.0" cy="286.8" r="6.0" fill="white" opacity="0.95"/><circle cx="315.0" cy="286.8" r="2.4" fill="#E87070" opacity="0.9"/><text x="325.9" y="282.8" font-family="Georgia,serif" font-size="9" fill="#E87070" opacity="0.6">Theta Sco</text><circle cx="232.6" cy="235.2" r="9.4" fill="#E87070" opacity="0.08"/><circle cx="232.6" cy="235.2" r="5.5" fill="#E87070" opacity="0.18"/><circle cx="232.6" cy="235.2" r="4.3" fill="white" opacity="0.95"/><circle cx="232.6" cy="235.2" r="1.7" fill="#E87070" opacity="0.9"/>
  <text x="250" y="438" text-anchor="middle" font-family="Georgia,serif" font-size="24" fill="#E87070" opacity="0.95" letter-spacing="4">SCORPIUS</text>
  <text x="250" y="462" text-anchor="middle" font-family="Georgia,serif" font-size="12" fill="#aaaaaa" letter-spacing="2">23 Ott – 21 Nov</text>
  <text x="250" y="488" text-anchor="middle" font-family="Georgia,serif" font-size="18" fill="#E87070" opacity="0.65">♏</text>
</svg>