<svg xmlns="http://www.w3.org/2000/svg" viewBox="0 0 500 500" width="500" height="500">
  <rect width="500" height="500" fill="#080f1a"/>
  <circle cx="130" cy="293" r="0.3" fill="white" opacity="0.37"/>
  <circle cx="436" cy="225" r="0.8" fill="white" opacity="0.38"/>
  <circle cx="482" cy="73" r="0.8" fill="white" opacity="0.13"/>
  <circle cx="402" cy="293" r="0.6" fill="white" opacity="0.21"/>
  <circle cx="426" cy="45" r="0.8" fill="white" opacity="0.34"/>
  <circle cx="260" cy="165" r="0.4" fill="white" opacity="0.35"/>
  <circle cx="72" cy="281" r="0.4" fill="white" opacity="0.55"/>
  <circle cx="486" cy="169" r="0.3" fill="white" opacity="0.18"/>
  <circle cx="138" cy="177" r="0.4" fill="white" opacity="0.31"/>
  <circle cx="328" cy="209" r="0.9" fill="white" opacity="0.32"/>
  <circle cx="120" cy="317" r="0.9" fill="white" opacity="0.52"/>
  <circle cx="262" cy="21" r="0.8" fill="white" opacity="0.46"/>
  <circle cx="246" cy="181" r="0.9" fill="white" opacity="0.28"/>
  <circle cx="26" cy="189" r="0.6" fill="white" opacity="0.29"/>
  <circle cx="12" cy="97" r="0.6" fill="white" opacity="0.49"/>
  <circle cx="96" cy="21" r="0.4" fill="white" opacity="0.43"/>
  <circle cx="260" cy="225" r="0.6" fill="white" opacity="0.25"/>
  <circle cx="334" cy="273" r="0.3" fill="white" opacity="0.26"/>
  <circle cx="362" cy="45" r="0.6" fill="white" opacity="0.46"/>
  <circle cx="236" cy="169" r="0.9" fill="white" opacity="0.40"/>
  <circle cx="304" cy="141" r="0.3" fill="white" opacity="0.22"/>
  <circle cx="396" cy="37" r="0.8" fill="white" opacity="0.54"/>
  <circle cx="190" cy="333" r="0.3" fill="white" opacity="0.29"/>
  <circle cx="434" cy="293" r="0.6" fill="white" opacity="0.37"/>
  <circle cx="130" cy="269" r="0.8" fill="white" opacity="0.50"/>
  <circle cx="88" cy="161" r="0.4" fill="white" opacity="0.51"/>
  <circle cx="476" cy="193" r="0.8" fill="white" opacity="0.26"/>
  <circle cx="324" cy="141" r="0.3" fill="white" opacity="0.34"/>
  <circle cx="476" cy="97" r="0.4" fill="white" opacity="0.47"/>
  <circle cx="24" cy="305" r="0.9" fill="white" opacity="0.48"/>
  <circle cx="116" cy="53" r="0.4" fill="white" opacity="0.23"/>
  <circle cx="396" cy="305" r="0.8" fill="white" opacity="0.17"/>
  <circle cx="238" cy="221" r="0.9" fill="white" opacity="0.44"/>
  <circle cx="80" cy="129" r="0.6" fill="white" opacity="0.45"/>
  <circle cx="90" cy="81" r="0.9" fill="white" opacity="0.20"/>
  <circle cx="160" cy="277" r="0.4" fill="white" opacity="0.14"/>
  <circle cx="272" cy="217" r="0.6" fill="white" opacity="0.41"/>
  <circle cx="256" cy="313" r="0.3" fill="white" opacity="0.42"/>
  <circle cx="156" cy="193" r="0.6" fill="white" opacity="0.17"/>
  <circle cx="106" cy="57" r="0.4" fill="white" opacity="0.56"/>
  <circle cx="460" cy="169" r="0.3" fill="white" opacity="0.38"/>
  <circle cx="186" cy="177" r="0.3" fill="white" opacity="0.25"/>
  <circle cx="66" cy="49" r="0.3" fill="white" opacity="0.14"/>
  <circle cx="234" cy="69" r="0.9" fill="white" opacity="0.53"/>
  <circle cx="430" cy="77" r="0.8" fill="white" opacity="0.21"/>
  <circle cx="236" cy="61" r="0.8" fill="white" opacity="0.22"/>
  <circle cx="310" cy="73" r="0.8" fill="white" opacity="0.42"/>
  <circle cx="54" cy="313" r="0.6" fill="white" opacity="0.50"/>
  <circle cx="306" cy="281" r="0.8" fill="white" opacity="0.18"/>
  <circle cx="40" cy="305" r="0.4" fill="white" opacity="0.19"/>
  <circle cx="156" cy="181" r="0.4" fill="white" opacity="0.39"/>
  <circle cx="56" cy="25" r="0.3" fill="white" opacity="0.33"/>
  <circle cx="212" cy="101" r="0.4" fill="white" opacity="0.15"/>
  <circle cx="454" cy="313" r="0.9" fill="white" opacity="0.16"/>
  <circle cx="336" cy="117" r="0.9" fill="white" opacity="0.36"/>
  <circle cx="116" cy="309" r="0.8" fill="white" opacity="0.30"/>
  <circle cx="390" cy="133" r="0.9" fill="white" opacity="0.12"/>
  <circle cx="8" cy="257" r="0.6" fill="white" opacity="0.13"/>
  <circle cx="360" cy="53" r="0.6" fill="white" opacity="0.33"/>
  <circle cx="358" cy="61" r="0.4" fill="white" opacity="0.27"/>
  <circle cx="108" cy="121" r="0.6" fill="white" opacity="0.54"/>
  <circle cx="296" cy="305" r="0.3" fill="white" opacity="0.41"/>
  <circle cx="352" cy="241" r="0.3" fill="white" opacity="0.30"/>
  <circle cx="416" cy="45" r="0.9" fill="white" opacity="0.24"/>
  <circle cx="222" cy="149" r="0.3" fill="white" opacity="0.37"/>
  <circle cx="214" cy="289" r="0.8" fill="white" opacity="0.38"/>
  <circle cx="312" cy="89" r="0.8" fill="white" opacity="0.13"/>
  <circle cx="42" cy="261" r="0.6" fill="white" opacity="0.21"/>
  <circle cx="242" cy="305" r="0.8" fill="white" opacity="0.34"/>
  <circle cx="252" cy="37" r="0.4" fill="white" opacity="0.35"/>
  <circle cx="240" cy="105" r="0.4" fill="white" opacity="0.55"/>
  <circle cx="340" cy="285" r="0.3" fill="white" opacity="0.18"/>
  <circle cx="168" cy="161" r="0.4" fill="white" opacity="0.31"/>
  <circle cx="44" cy="145" r="0.9" fill="white" opacity="0.32"/>
  <circle cx="12" cy="205" r="0.9" fill="white" opacity="0.52"/>
  <circle cx="330" cy="201" r="0.8" fill="white" opacity="0.46"/>
  <circle cx="490" cy="313" r="0.9" fill="white" opacity="0.28"/>
  <circle cx="446" cy="273" r="0.6" fill="white" opacity="0.29"/>
  <circle cx="242" cy="49" r="0.6" fill="white" opacity="0.49"/>
  <circle cx="12" cy="265" r="0.4" fill="white" opacity="0.43"/>
  <circle cx="352" cy="337" r="0.6" fill="white" opacity="0.25"/>
  <circle cx="112" cy="81" r="0.3" fill="white" opacity="0.26"/>
  <circle cx="316" cy="61" r="0.6" fill="white" opacity="0.46"/>
  <circle cx="242" cy="221" r="0.9" fill="white" opacity="0.40"/>
  <circle cx="120" cy="61" r="0.3" fill="white" opacity="0.22"/>
  <circle cx="388" cy="249" r="0.8" fill="white" opacity="0.54"/>
  <circle cx="358" cy="157" r="0.3" fill="white" opacity="0.29"/>
  <circle cx="288" cy="325" r="0.6" fill="white" opacity="0.37"/>
  <circle cx="160" cy="337" r="0.8" fill="white" opacity="0.50"/>
  <circle cx="418" cy="97" r="0.4" fill="white" opacity="0.51"/>
  <circle cx="368" cy="337" r="0.8" fill="white" opacity="0.26"/>
  <circle cx="26" cy="321" r="0.3" fill="white" opacity="0.34"/>
  <circle cx="230" cy="229" r="0.4" fill="white" opacity="0.47"/>
  <circle cx="444" cy="305" r="0.9" fill="white" opacity="0.48"/>
  <circle cx="222" cy="5" r="0.4" fill="white" opacity="0.23"/>
  <circle cx="312" cy="209" r="0.8" fill="white" opacity="0.17"/>
  <circle cx="206" cy="333" r="0.9" fill="white" opacity="0.44"/>
  <circle cx="348" cy="193" r="0.6" fill="white" opacity="0.45"/>
  <circle cx="44" cy="97" r="0.9" fill="white" opacity="0.20"/>
  <circle cx="290" cy="245" r="0.4" fill="white" opacity="0.14"/>
  <line x1="245.1" y1="233.4" x2="363.4" y2="100.7" stroke="#D4A853" stroke-width="1.2" opacity="0.55" stroke-linecap="round"/><line x1="245.1" y1="233.4" x2="227.2" y2="205.4" stroke="#D4A853" stroke-width="1.2" opacity="0.55" stroke-linecap="round"/><line x1="227.2" y1="205.4" x2="226.7" y2="239.1" stroke="#D4A853" stroke-width="1.2" opacity="0.55" stroke-linecap="round"/><line x1="245.1" y1="233.4" x2="153.8" y2="274.0" stroke="#D4A853" stroke-width="1.2" opacity="0.55" stroke-linecap="round"/><line x1="128.1" y1="148.6" x2="227.2" y2="205.4" stroke="#D4A853" stroke-width="1.2" opacity="0.55" stroke-linecap="round"/><line x1="226.7" y1="239.1" x2="398.1" y2="178.1" stroke="#D4A853" stroke-width="1.2" opacity="0.55" stroke-linecap="round"/>
  <circle cx="245.1" cy="233.4" r="16.4" fill="#D4A853" opacity="0.08"/><circle cx="245.1" cy="233.4" r="9.7" fill="#D4A853" opacity="0.18"/><circle cx="245.1" cy="233.4" r="7.4" fill="white" opacity="0.95"/><circle cx="245.1" cy="233.4" r="3.0" fill="#D4A853" opacity="0.9"/><text x="257.5" y="229.4" font-family="Georgia,serif" font-size="9" fill="#D4A853" opacity="0.6">Aldebaran</text><circle cx="363.4" cy="100.7" r="13.8" fill="#D4A853" opacity="0.08"/><circle cx="363.4" cy="100.7" r="8.2" fill="#D4A853" opacity="0.18"/><circle cx="363.4" cy="100.7" r="6.3" fill="white" opacity="0.95"/><circle cx="363.4" cy="100.7" r="2.5" fill="#D4A853" opacity="0.9"/><text x="374.7" y="96.7" font-family="Georgia,serif" font-size="9" fill="#D4A853" opacity="0.6">Elnath</text><circle cx="128.1" cy="148.6" r="9.8" fill="#D4A853" opacity="0.08"/><circle cx="128.1" cy="148.6" r="5.8" fill="#D4A853" opacity="0.18"/><circle cx="128.1" cy="148.6" r="4.4" fill="white" opacity="0.95"/><circle cx="128.1" cy="148.6" r="1.8" fill="#D4A853" opacity="0.9"/><circle cx="153.8" cy="274.0" r="7.8" fill="#D4A853" opacity="0.08"/><circle cx="153.8" cy="274.0" r="4.6" fill="#D4A853" opacity="0.18"/><circle cx="153.8" cy="274.0" r="3.5" fill="white" opacity="0.95"/><circle cx="153.8" cy="274.0" r="1.4" fill="#D4A853" opacity="0.9"/><circle cx="227.2" cy="205.4" r="7.6" fill="#D4A853" opacity="0.08"/><circle cx="227.2" cy="205.4" r="4.5" fill="#D4A853" opacity="0.18"/><circle cx="227.2" cy="205.4" r="3.5" fill="white" opacity="0.95"/><circle cx="227.2" cy="205.4" r="1.4" fill="#D4A853" opacity="0.9"/><circle cx="226.7" cy="239.1" r="8.0" fill="#D4A853" opacity="0.08"/><circle cx="226.7" cy="239.1" r="4.7" fill="#D4A853" opacity="0.18"/><circle cx="226.7" cy="239.1" r="3.7" fill="white" opacity="0.95"/><circle cx="226.7" cy="239.1" r="1.5" fill="#D4A853" opacity="0.9"/><circle cx="398.1" cy="178.1" r="9.4" fill="#D4A853" opacity="0.08"/><circle cx="398.1" cy="178.1" r="5.5" fill="#D4A853" opacity="0.18"/><circle cx="398.1" cy="178.1" r="4.2" fill="white" opacity="0.95"/><circle cx="398.1" cy="178.1" r="1.7" fill="#D4A853" opacity="0.9"/>
  <text x="250" y="438" text-anchor="middle" font-family="Georgia,serif" font-size="24" fill="#D4A853" opacity="0.95" letter-spacing="4">TAURUS</text>
  <text x="250" y="462" text-anchor="middle" font-family="Georgia,serif" font-size="12" fill="#aaaaaa" letter-spacing="2">20 Apr – 20 Mag</text>
  <text x="250" y="488" text-anchor="middle" font-family="Georgia,serif" font-size="18" fill="#D4A853" opacity="0.65">♉</text>
</svg>