<svg xmlns="http://www.w3.org/2000/svg" viewBox="0 0 400 300">
<defs>
<radialGradient id="bg" cx="50%" cy="50%" r="70%"><stop offset="0%" stop-color="#0d1b35"/><stop offset="100%" stop-color="#020509"/></radialGradient>
<filter id="glow"><feGaussianBlur stdDeviation="2" result="blur"/><feMerge><feMergeNode in="blur"/><feMergeNode in="SourceGraphic"/></feMerge></filter>
</defs>
<rect width="400" height="300" fill="url(#bg)"/>
<circle cx="323.5" cy="93.0" r="0.4" fill="white" opacity="0.35"/>
<circle cx="53.9" cy="163.4" r="0.6" fill="white" opacity="0.56"/>
<circle cx="304.7" cy="48.4" r="0.7" fill="white" opacity="0.53"/>
<circle cx="145.1" cy="267.0" r="0.7" fill="white" opacity="0.22"/>
<circle cx="55.1" cy="192.3" r="0.7" fill="white" opacity="0.47"/>
<circle cx="330.8" cy="211.6" r="0.4" fill="white" opacity="0.59"/>
<circle cx="59.5" cy="29.3" r="0.5" fill="white" opacity="0.49"/>
<circle cx="232.5" cy="154.5" r="0.6" fill="white" opacity="0.38"/>
<circle cx="178.0" cy="149.8" r="0.6" fill="white" opacity="0.48"/>
<circle cx="181.5" cy="285.3" r="0.7" fill="white" opacity="0.58"/>
<circle cx="82.8" cy="240.6" r="0.3" fill="white" opacity="0.6"/>
<circle cx="258.3" cy="16.4" r="0.5" fill="white" opacity="0.5"/>
<circle cx="244.7" cy="240.2" r="0.8" fill="white" opacity="0.39"/>
<circle cx="379.0" cy="3.6" r="0.5" fill="white" opacity="0.22"/>
<circle cx="167.7" cy="45.2" r="0.3" fill="white" opacity="0.22"/>
<circle cx="109.8" cy="60.3" r="0.7" fill="white" opacity="0.58"/>
<circle cx="35.1" cy="16.2" r="0.4" fill="white" opacity="0.25"/>
<circle cx="98.7" cy="124.2" r="0.7" fill="white" opacity="0.51"/>
<circle cx="343.1" cy="86.6" r="0.7" fill="white" opacity="0.53"/>
<circle cx="29.4" cy="251.2" r="0.4" fill="white" opacity="0.49"/>
<circle cx="158.2" cy="267.1" r="0.3" fill="white" opacity="0.33"/>
<circle cx="98.0" cy="29.9" r="0.6" fill="white" opacity="0.25"/>
<circle cx="300.1" cy="226.0" r="0.3" fill="white" opacity="0.43"/>
<circle cx="215.1" cy="126.6" r="0.7" fill="white" opacity="0.34"/>
<circle cx="25.1" cy="234.5" r="0.5" fill="white" opacity="0.31"/>
<circle cx="332.8" cy="50.2" r="0.8" fill="white" opacity="0.58"/>
<circle cx="37.7" cy="41.6" r="0.6" fill="white" opacity="0.21"/>
<circle cx="114.7" cy="213.6" r="0.7" fill="white" opacity="0.46"/>
<circle cx="55.9" cy="123.8" r="0.5" fill="white" opacity="0.25"/>
<circle cx="276.3" cy="294.1" r="0.6" fill="white" opacity="0.45"/>
<circle cx="82.1" cy="184.9" r="0.6" fill="white" opacity="0.54"/>
<circle cx="339.0" cy="32.9" r="0.8" fill="white" opacity="0.54"/>
<circle cx="368.1" cy="159.0" r="0.4" fill="white" opacity="0.45"/>
<circle cx="186.5" cy="214.1" r="0.5" fill="white" opacity="0.27"/>
<circle cx="122.3" cy="141.0" r="0.7" fill="white" opacity="0.45"/>
<circle cx="282.7" cy="285.5" r="0.4" fill="white" opacity="0.54"/>
<circle cx="255.4" cy="210.8" r="0.5" fill="white" opacity="0.25"/>
<circle cx="212.1" cy="225.2" r="0.7" fill="white" opacity="0.45"/>
<circle cx="105.9" cy="124.7" r="0.4" fill="white" opacity="0.58"/>
<circle cx="136.3" cy="151.4" r="0.3" fill="white" opacity="0.54"/>
<circle cx="364.6" cy="66.4" r="0.5" fill="white" opacity="0.51"/>
<circle cx="391.3" cy="62.8" r="0.7" fill="white" opacity="0.3"/>
<circle cx="365.8" cy="154.8" r="0.4" fill="white" opacity="0.44"/>
<circle cx="214.0" cy="117.9" r="0.7" fill="white" opacity="0.36"/>
<circle cx="187.7" cy="105.9" r="0.3" fill="white" opacity="0.31"/>
<circle cx="261.5" cy="0.1" r="0.8" fill="white" opacity="0.58"/>
<circle cx="129.7" cy="16.2" r="0.5" fill="white" opacity="0.29"/>
<circle cx="226.3" cy="17.2" r="0.6" fill="white" opacity="0.25"/>
<circle cx="364.7" cy="159.1" r="0.3" fill="white" opacity="0.55"/>
<circle cx="391.6" cy="146.2" r="0.7" fill="white" opacity="0.52"/>
<circle cx="286.7" cy="90.6" r="0.5" fill="white" opacity="0.21"/>
<circle cx="170.5" cy="184.0" r="0.4" fill="white" opacity="0.48"/>
<circle cx="169.0" cy="120.6" r="0.6" fill="white" opacity="0.59"/>
<circle cx="150.8" cy="29.0" r="0.4" fill="white" opacity="0.25"/>
<circle cx="69.4" cy="92.0" r="0.7" fill="white" opacity="0.3"/>
<circle cx="80.6" cy="102.6" r="0.5" fill="white" opacity="0.37"/>
<circle cx="12.4" cy="171.2" r="0.6" fill="white" opacity="0.47"/>
<circle cx="57.4" cy="38.9" r="0.6" fill="white" opacity="0.48"/>
<circle cx="219.9" cy="202.3" r="0.6" fill="white" opacity="0.53"/>
<circle cx="191.2" cy="139.4" r="0.5" fill="white" opacity="0.43"/>
<line x1="200.0" y1="90.0" x2="174.4" y2="110.0" stroke="rgba(180,200,255,0.45)" stroke-width="1"/>
<line x1="174.4" y1="110.0" x2="161.6" y2="136.0" stroke="rgba(180,200,255,0.45)" stroke-width="1"/>
<line x1="161.6" y1="136.0" x2="184.0" y2="156.0" stroke="rgba(180,200,255,0.45)" stroke-width="1"/>
<line x1="184.0" y1="156.0" x2="225.6" y2="160.0" stroke="rgba(180,200,255,0.45)" stroke-width="1"/>
<line x1="225.6" y1="160.0" x2="248.0" y2="144.0" stroke="rgba(180,200,255,0.45)" stroke-width="1"/>
<line x1="248.0" y1="144.0" x2="270.4" y2="120.0" stroke="rgba(180,200,255,0.45)" stroke-width="1"/>
<circle cx="200.0" cy="90.0" r="6.0" fill="#fef3c7" opacity="0.25" filter="url(#glow)"/>
<circle cx="200.0" cy="90.0" r="4.5" fill="#fef3c7"/>
<circle cx="174.4" cy="110.0" r="4.5" fill="#e2e8f0" opacity="0.25" filter="url(#glow)"/>
<circle cx="174.4" cy="110.0" r="3.0" fill="#e2e8f0"/>
<circle cx="161.6" cy="136.0" r="4.0" fill="white" opacity="0.25" filter="url(#glow)"/>
<circle cx="161.6" cy="136.0" r="2.5" fill="white"/>
<circle cx="184.0" cy="156.0" r="3.5" fill="white" opacity="0.25" filter="url(#glow)"/>
<circle cx="184.0" cy="156.0" r="2.0" fill="white"/>
<circle cx="225.6" cy="160.0" r="4.0" fill="white" opacity="0.25" filter="url(#glow)"/>
<circle cx="225.6" cy="160.0" r="2.5" fill="white"/>
<circle cx="248.0" cy="144.0" r="4.0" fill="white" opacity="0.25" filter="url(#glow)"/>
<circle cx="248.0" cy="144.0" r="2.5" fill="white"/>
<circle cx="270.4" cy="120.0" r="4.5" fill="#e2e8f0" opacity="0.25" filter="url(#glow)"/>
<circle cx="270.4" cy="120.0" r="3.0" fill="#e2e8f0"/>
<text x="200" y="290" text-anchor="middle" font-family="sans-serif" font-size="13" fill="rgba(180,210,255,0.7)" letter-spacing="2">ORSA MINORE</text>
</svg>