<svg xmlns="http://www.w3.org/2000/svg" viewBox="0 0 500 500" width="500" height="500">
  <rect width="500" height="500" fill="#080f1a"/>
  <circle cx="349" cy="96" r="0.7" fill="white" opacity="0.17"/>
  <circle cx="31" cy="40" r="0.2" fill="white" opacity="0.40"/>
  <circle cx="459" cy="104" r="0.4" fill="white" opacity="0.51"/>
  <circle cx="397" cy="132" r="0.5" fill="white" opacity="0.36"/>
  <circle cx="417" cy="288" r="0.8" fill="white" opacity="0.40"/>
  <circle cx="449" cy="204" r="0.4" fill="white" opacity="0.18"/>
  <circle cx="147" cy="256" r="0.2" fill="white" opacity="0.29"/>
  <circle cx="359" cy="288" r="0.7" fill="white" opacity="0.45"/>
  <circle cx="63" cy="124" r="0.7" fill="white" opacity="0.49"/>
  <circle cx="169" cy="160" r="0.5" fill="white" opacity="0.41"/>
  <circle cx="331" cy="8" r="0.4" fill="white" opacity="0.38"/>
  <circle cx="51" cy="108" r="0.8" fill="white" opacity="0.23"/>
  <circle cx="143" cy="112" r="0.8" fill="white" opacity="0.27"/>
  <circle cx="171" cy="248" r="0.7" fill="white" opacity="0.50"/>
  <circle cx="155" cy="296" r="0.5" fill="white" opacity="0.16"/>
  <circle cx="453" cy="272" r="0.2" fill="white" opacity="0.32"/>
  <circle cx="167" cy="168" r="0.2" fill="white" opacity="0.36"/>
  <circle cx="331" cy="212" r="0.5" fill="white" opacity="0.28"/>
  <circle cx="227" cy="184" r="0.7" fill="white" opacity="0.25"/>
  <circle cx="95" cy="184" r="0.4" fill="white" opacity="0.55"/>
  <circle cx="259" cy="36" r="0.4" fill="white" opacity="0.14"/>
  <circle cx="159" cy="52" r="0.7" fill="white" opacity="0.37"/>
  <circle cx="429" cy="12" r="0.8" fill="white" opacity="0.48"/>
  <circle cx="447" cy="16" r="0.5" fill="white" opacity="0.33"/>
  <circle cx="295" cy="228" r="0.5" fill="white" opacity="0.37"/>
  <circle cx="269" cy="24" r="0.8" fill="white" opacity="0.15"/>
  <circle cx="147" cy="120" r="0.2" fill="white" opacity="0.12"/>
  <circle cx="39" cy="192" r="0.4" fill="white" opacity="0.42"/>
  <circle cx="275" cy="232" r="0.4" fill="white" opacity="0.46"/>
  <circle cx="171" cy="212" r="0.2" fill="white" opacity="0.24"/>
  <circle cx="237" cy="84" r="0.8" fill="white" opacity="0.35"/>
  <circle cx="465" cy="32" r="0.5" fill="white" opacity="0.20"/>
  <circle cx="323" cy="304" r="0.5" fill="white" opacity="0.24"/>
  <circle cx="231" cy="192" r="0.4" fill="white" opacity="0.47"/>
  <circle cx="333" cy="328" r="0.2" fill="white" opacity="0.13"/>
  <circle cx="7" cy="300" r="0.7" fill="white" opacity="0.29"/>
  <circle cx="315" cy="188" r="0.7" fill="white" opacity="0.33"/>
  <circle cx="83" cy="48" r="0.2" fill="white" opacity="0.25"/>
  <circle cx="435" cy="172" r="0.4" fill="white" opacity="0.22"/>
  <circle cx="259" cy="148" r="0.8" fill="white" opacity="0.52"/>
  <circle cx="251" cy="140" r="0.8" fill="white" opacity="0.56"/>
  <circle cx="93" cy="36" r="0.4" fill="white" opacity="0.34"/>
  <circle cx="53" cy="296" r="0.5" fill="white" opacity="0.45"/>
  <circle cx="365" cy="340" r="0.2" fill="white" opacity="0.16"/>
  <circle cx="255" cy="160" r="0.2" fill="white" opacity="0.20"/>
  <circle cx="385" cy="240" r="0.5" fill="white" opacity="0.12"/>
  <circle cx="167" cy="20" r="0.7" fill="white" opacity="0.54"/>
  <circle cx="201" cy="280" r="0.8" fill="white" opacity="0.39"/>
  <circle cx="203" cy="248" r="0.4" fill="white" opacity="0.43"/>
  <circle cx="469" cy="236" r="0.7" fill="white" opacity="0.21"/>
  <circle cx="163" cy="280" r="0.5" fill="white" opacity="0.32"/>
  <circle cx="133" cy="140" r="0.2" fill="white" opacity="0.17"/>
  <circle cx="95" cy="148" r="0.2" fill="white" opacity="0.21"/>
  <circle cx="221" cy="108" r="0.8" fill="white" opacity="0.44"/>
  <circle cx="165" cy="140" r="0.7" fill="white" opacity="0.41"/>
  <circle cx="409" cy="88" r="0.4" fill="white" opacity="0.26"/>
  <circle cx="55" cy="32" r="0.4" fill="white" opacity="0.30"/>
  <circle cx="255" cy="112" r="0.7" fill="white" opacity="0.53"/>
  <circle cx="297" cy="280" r="0.8" fill="white" opacity="0.19"/>
  <circle cx="415" cy="296" r="0.5" fill="white" opacity="0.49"/>
  <circle cx="325" cy="68" r="0.5" fill="white" opacity="0.53"/>
  <circle cx="447" cy="332" r="0.8" fill="white" opacity="0.31"/>
  <circle cx="311" cy="276" r="0.2" fill="white" opacity="0.28"/>
  <circle cx="151" cy="252" r="0.7" fill="white" opacity="0.13"/>
  <circle cx="297" cy="256" r="0.7" fill="white" opacity="0.17"/>
  <circle cx="431" cy="344" r="0.2" fill="white" opacity="0.40"/>
  <circle cx="207" cy="296" r="0.4" fill="white" opacity="0.51"/>
  <circle cx="107" cy="128" r="0.5" fill="white" opacity="0.36"/>
  <circle cx="89" cy="88" r="0.8" fill="white" opacity="0.40"/>
  <circle cx="83" cy="232" r="0.4" fill="white" opacity="0.18"/>
  <circle cx="233" cy="172" r="0.2" fill="white" opacity="0.29"/>
  <circle cx="283" cy="8" r="0.7" fill="white" opacity="0.45"/>
  <circle cx="439" cy="72" r="0.7" fill="white" opacity="0.49"/>
  <circle cx="17" cy="252" r="0.5" fill="white" opacity="0.41"/>
  <circle cx="265" cy="328" r="0.4" fill="white" opacity="0.38"/>
  <circle cx="189" cy="316" r="0.8" fill="white" opacity="0.23"/>
  <circle cx="243" cy="124" r="0.8" fill="white" opacity="0.27"/>
  <circle cx="233" cy="148" r="0.7" fill="white" opacity="0.50"/>
  <circle cx="179" cy="340" r="0.5" fill="white" opacity="0.16"/>
  <circle cx="439" cy="204" r="0.2" fill="white" opacity="0.32"/>
  <circle cx="115" cy="328" r="0.2" fill="white" opacity="0.36"/>
  <circle cx="117" cy="260" r="0.5" fill="white" opacity="0.28"/>
  <circle cx="99" cy="36" r="0.7" fill="white" opacity="0.25"/>
  <circle cx="295" cy="180" r="0.4" fill="white" opacity="0.55"/>
  <circle cx="421" cy="260" r="0.4" fill="white" opacity="0.14"/>
  <circle cx="283" cy="80" r="0.7" fill="white" opacity="0.37"/>
  <circle cx="25" cy="268" r="0.8" fill="white" opacity="0.48"/>
  <circle cx="5" cy="76" r="0.5" fill="white" opacity="0.33"/>
  <circle cx="181" cy="176" r="0.5" fill="white" opacity="0.37"/>
  <circle cx="117" cy="200" r="0.8" fill="white" opacity="0.15"/>
  <circle cx="447" cy="100" r="0.2" fill="white" opacity="0.12"/>
  <circle cx="301" cy="60" r="0.4" fill="white" opacity="0.42"/>
  <circle cx="9" cy="328" r="0.4" fill="white" opacity="0.46"/>
  <circle cx="233" cy="112" r="0.2" fill="white" opacity="0.24"/>
  <circle cx="261" cy="212" r="0.8" fill="white" opacity="0.35"/>
  <circle cx="451" cy="48" r="0.5" fill="white" opacity="0.20"/>
  <circle cx="271" cy="124" r="0.5" fill="white" opacity="0.24"/>
  <circle cx="141" cy="156" r="0.4" fill="white" opacity="0.47"/>
  <circle cx="205" cy="180" r="0.2" fill="white" opacity="0.13"/>
  <circle cx="207" cy="296" r="0.7" fill="white" opacity="0.29"/>
  <line x1="291.4" y1="291.5" x2="241.4" y2="198.3" stroke="#C8D8A0" stroke-width="1.2" opacity="0.55" stroke-linecap="round"/><line x1="241.4" y1="198.3" x2="196.7" y2="205.8" stroke="#C8D8A0" stroke-width="1.2" opacity="0.55" stroke-linecap="round"/><line x1="196.7" y1="205.8" x2="148.2" y2="199.1" stroke="#C8D8A0" stroke-width="1.2" opacity="0.55" stroke-linecap="round"/><line x1="241.4" y1="198.3" x2="227.2" y2="163.5" stroke="#C8D8A0" stroke-width="1.2" opacity="0.55" stroke-linecap="round"/><line x1="227.2" y1="163.5" x2="241.4" y2="96.5" stroke="#C8D8A0" stroke-width="1.2" opacity="0.55" stroke-linecap="round"/><line x1="291.4" y1="291.5" x2="406.7" y2="247.9" stroke="#C8D8A0" stroke-width="1.2" opacity="0.55" stroke-linecap="round"/>
  <circle cx="291.4" cy="291.5" r="16.0" fill="#C8D8A0" opacity="0.08"/><circle cx="291.4" cy="291.5" r="9.5" fill="#C8D8A0" opacity="0.18"/><circle cx="291.4" cy="291.5" r="7.3" fill="white" opacity="0.95"/><circle cx="291.4" cy="291.5" r="2.9" fill="#C8D8A0" opacity="0.9"/><text x="303.7" y="287.5" font-family="Georgia,serif" font-size="9" fill="#C8D8A0" opacity="0.6">Spica</text><circle cx="196.7" cy="205.8" r="10.2" fill="#C8D8A0" opacity="0.08"/><circle cx="196.7" cy="205.8" r="6.0" fill="#C8D8A0" opacity="0.18"/><circle cx="196.7" cy="205.8" r="4.6" fill="white" opacity="0.95"/><circle cx="196.7" cy="205.8" r="1.9" fill="#C8D8A0" opacity="0.9"/><circle cx="241.4" cy="198.3" r="8.1" fill="#C8D8A0" opacity="0.08"/><circle cx="241.4" cy="198.3" r="4.8" fill="#C8D8A0" opacity="0.18"/><circle cx="241.4" cy="198.3" r="3.7" fill="white" opacity="0.95"/><circle cx="241.4" cy="198.3" r="1.5" fill="#C8D8A0" opacity="0.9"/><circle cx="241.4" cy="96.5" r="9.9" fill="#C8D8A0" opacity="0.08"/><circle cx="241.4" cy="96.5" r="5.9" fill="#C8D8A0" opacity="0.18"/><circle cx="241.4" cy="96.5" r="4.5" fill="white" opacity="0.95"/><circle cx="241.4" cy="96.5" r="1.8" fill="#C8D8A0" opacity="0.9"/><circle cx="148.2" cy="199.1" r="6.4" fill="#C8D8A0" opacity="0.08"/><circle cx="148.2" cy="199.1" r="3.8" fill="#C8D8A0" opacity="0.18"/><circle cx="148.2" cy="199.1" r="2.9" fill="white" opacity="0.95"/><circle cx="148.2" cy="199.1" r="1.2" fill="#C8D8A0" opacity="0.9"/><circle cx="227.2" cy="163.5" r="8.1" fill="#C8D8A0" opacity="0.08"/><circle cx="227.2" cy="163.5" r="4.8" fill="#C8D8A0" opacity="0.18"/><circle cx="227.2" cy="163.5" r="3.7" fill="white" opacity="0.95"/><circle cx="227.2" cy="163.5" r="1.5" fill="#C8D8A0" opacity="0.9"/><circle cx="406.7" cy="247.9" r="5.8" fill="#C8D8A0" opacity="0.08"/><circle cx="406.7" cy="247.9" r="3.4" fill="#C8D8A0" opacity="0.18"/><circle cx="406.7" cy="247.9" r="2.6" fill="white" opacity="0.95"/><circle cx="406.7" cy="247.9" r="1.1" fill="#C8D8A0" opacity="0.9"/>
  <text x="250" y="438" text-anchor="middle" font-family="Georgia,serif" font-size="24" fill="#C8D8A0" opacity="0.95" letter-spacing="4">VIRGO</text>
  <text x="250" y="462" text-anchor="middle" font-family="Georgia,serif" font-size="12" fill="#aaaaaa" letter-spacing="2">23 Ago – 22 Set</text>
  <text x="250" y="488" text-anchor="middle" font-family="Georgia,serif" font-size="18" fill="#C8D8A0" opacity="0.65">♍</text>
</svg>